<?xml version="1.0" encoding="utf-8"?>
<!-- Generator: Adobe Illustrator 19.2.1, SVG Export Plug-In . SVG Version: 6.00 Build 0)  -->
<svg version="1.1" id="Layer_1" xmlns="http://www.w3.org/2000/svg" xmlns:xlink="http://www.w3.org/1999/xlink" x="0px" y="0px"
	 viewBox="0 0 136.7 45.9" style="enable-background:new 0 0 136.7 45.9;" xml:space="preserve">
<style type="text/css">
	.st0{fill:#233974;}
	.st1{clip-path:url(#SVGID_1_);fill-rule:evenodd;clip-rule:evenodd;fill:#015BA1;}
	.st2{clip-path:url(#SVGID_1_);fill-rule:evenodd;clip-rule:evenodd;fill:#5C3494;}
	.st3{clip-path:url(#SVGID_1_);fill-rule:evenodd;clip-rule:evenodd;fill:#EF9721;}
	.st4{clip-path:url(#SVGID_1_);fill-rule:evenodd;clip-rule:evenodd;fill:#A41E21;}
	.st5{clip-path:url(#SVGID_1_);fill-rule:evenodd;clip-rule:evenodd;fill:#F8BE15;}
	.st6{clip-path:url(#SVGID_1_);fill-rule:evenodd;clip-rule:evenodd;fill:#E86F24;}
	.st7{clip-path:url(#SVGID_1_);fill-rule:evenodd;clip-rule:evenodd;fill:#F3B41B;}
	.st8{clip-path:url(#SVGID_1_);fill-rule:evenodd;clip-rule:evenodd;fill:#DB6626;}
	.st9{clip-path:url(#SVGID_1_);fill-rule:evenodd;clip-rule:evenodd;fill:#901A1C;}
</style>
<g>
	<g>
		<g>
			<g>
				<path class="st0" d="M54,28.6V12.3h7.5v4.9c0,0,1.2,0.1,2.1-0.9c0.9-0.9,1.3-4.1,1.3-4.1h6.9c0,0-0.4,3.9-1,5.2
					c-0.6,1.3-2,2.5-2,2.5s1.6,1.6,2.2,3.6c0.6,2,0.8,5,0.8,5h-6.6c0,0,0.2-4.6-3.8-6v6H54z"/>
			</g>
			<g>
				<path class="st0" d="M85.7,12.3c-5,0-11.6,0-11.6,0v16.3l7.9,0v-3.3c0,0,3-0.5,6.3-1.8c3.2-1.2,5.8-3.1,5.6-7.2
					C93.8,13.5,90.7,12.3,85.7,12.3z M86.8,17.9c-1.7,2.2-4.9,2.7-4.9,2.7v-4.7c0,0,2.7,0,3.8,0C86.8,15.8,87.5,17,86.8,17.9z"/>
			</g>
			<g>
				<path class="st0" d="M92.7,23.5c-1.6-0.2-3,1.2-2.8,2.8c0.1,1.1,1,2,2,2.2c1.8,0.4,3.4-1.2,3-3C94.7,24.5,93.8,23.6,92.7,23.5z"
					/>
			</g>
			<g>
				<path class="st0" d="M115.1,23.8c-0.5-1.8-1.4-2.7-1.4-2.7s1.4-1.3,1.9-3.9c0.5-2.6-0.9-4.9-6-4.9c-5.1,0-12.7,0-12.7,0v16.3
					h7.9v-2.8c0.8-0.2,2.6-0.9,2.6-0.9s0.7,0.3,1,1.3c0.2,1,0.4,2.3,0.4,2.3h7.1C115.8,28.6,115.6,25.6,115.1,23.8z M108.4,18.6
					c-1.1,1-3.7,2.3-3.7,2.3l0-5.6l3.1,0C109.3,15.4,109.8,17.3,108.4,18.6z"/>
			</g>
			<path class="st0" d="M136.7,12.3l0,12.3c0,0.1,0,1.9-1.8,3.1c-1.9,1.2-6.2,1.3-7.9,1.3h-0.1c-1.8,0-6.1-0.1-7.9-1.3
				c-1.8-1.2-1.8-3-1.8-3.1l0-12.3h7.9l0,11.6c0,0,0.5,0.7,2.1,0.7c1.6,0,2.1-0.7,2.1-0.7l0-11.6H136.7z"/>
		</g>
	</g>
	<g id="Birb_1_">
		<g id="texture_1_">
			<defs>
				<path id="SVGID_3_" d="M6.6,4.6L0,1.1c0,0,18.1,0,26.7,0c2.8,0,5.6,1.1,7.6,3.2l0,0c0.4-0.5,0.6-0.7,1.3-1.4
					c1.5-1.3,3.4-2.8,6.9-2.9c1,0,2.3,0.2,3,1c1.5,0,3,0.1,4.3,0.3l-3.7,3c-0.8,4.8-3.1,6.6-4.2,7.5c2.1,2.1,3.2,4.9,3.2,7.8
					c0,8.6,0,26.2,0,26.2l0,0l0,0c0,0-5.8-10.6-8.3-15.2c-1.2-2.2-2.2-5.4-3.2-9.4c-0.3,0.4-20.3,22.8-20.3,22.8l9.3-20.6L2,32.9
					c0,0,22-19.5,22.8-20.3c-2.3-0.7-6.3-1.5-9.4-3.2C12.3,7.7,6.6,4.6,6.6,4.6L6.6,4.6L6.6,4.6z"/>
			</defs>
			<use xlink:href="#SVGID_3_"  style="overflow:visible;fill-rule:evenodd;clip-rule:evenodd;fill:#B82525;"/>
			<clipPath id="SVGID_1_">
				<use xlink:href="#SVGID_3_"  style="overflow:visible;"/>
			</clipPath>
			<path class="st1" d="M22.6,23.6l-21.1,12l-0.6-3l7-6.9c1.4,0.3,2.9,0.5,4.5,0.5C16.1,26.1,19.6,25.2,22.6,23.6L22.6,23.6
				L22.6,23.6z"/>
			<path class="st2" d="M22.6,23.6c1.2-0.6,2.3-1.4,3.3-2.2c0.3,1.4,0.4,2.8,0.4,4.3c0,12.2-9.9,22-22,22c-0.7,0-1.3,0-2-0.1
				L22.6,23.6L22.6,23.6z"/>
			<path class="st3" d="M0.4,4.1c1.3-0.2,2.6-0.4,4-0.4c3.5,0,6.8,0.8,9.7,2.3c-1.3,0.2-2.6,0.4-4,0.4C6.6,6.3,3.3,5.5,0.4,4.1
				L0.4,4.1z"/>
			<path class="st4" d="M14.1,5.9c7.6-1.4,13.9-6.8,16.5-13.9c2.3,3.5,3.7,7.7,3.7,12.2c0,7-3.3,13.2-8.3,17.2
				C24.6,14.6,20.1,8.9,14.1,5.9L14.1,5.9z"/>
			<path class="st3" d="M56.3,24.8c7.4,0,13.5,6,13.5,13.5c0,7.4-6,13.5-13.5,13.5c-7.4,0-13.5-6-13.5-13.5
				C42.8,30.9,48.9,24.8,56.3,24.8L56.3,24.8z"/>
			<path class="st5" d="M37.4,17.9c1,5.1,3.8,9.6,7.7,12.7c-1.5,2.2-2.4,4.8-2.4,7.7c0,7.4,6,13.5,13.5,13.5c0.4,0,0.7,0,1.1,0
				c-2.6,1.3-5.6,2.1-8.8,2.1c-10.9,0-19.7-8.8-19.7-19.7C28.9,27.4,32.3,21.5,37.4,17.9L37.4,17.9z"/>
			<path class="st6" d="M37.2,11c-0.1,0.8-0.2,1.7-0.2,2.6c0,1.5,0.1,2.9,0.4,4.3c-3.8,2.6-6.6,6.5-7.9,11c0-0.4,0-0.9,0-1.3
				C29.6,21,32.5,15,37.2,11L37.2,11z"/>
			<path class="st7" d="M37.4,17.9c3.2-2.2,7-3.4,11.1-3.4c10.6,0,19.3,8.4,19.7,18.9c-2.8,1.3-6,2.1-9.3,2.1
				C48.3,35.5,39.5,27.9,37.4,17.9L37.4,17.9z"/>
			<path class="st8" d="M37.2,11C41,7.7,46,5.7,51.5,5.7c12.1,0,21.9,9.8,21.9,21.9c0,0.9-0.1,1.7-0.2,2.6c-1.5,1.3-3.2,2.4-5,3.2
				c-0.4-10.5-9-18.9-19.7-18.9c-4.1,0-8,1.3-11.1,3.4c-0.3-1.4-0.4-2.8-0.4-4.3C37,12.7,37.1,11.8,37.2,11L37.2,11z"/>
			<path class="st9" d="M37.2,11C38.5,0.1,47.7-8.3,58.9-8.3c12.1,0,21.9,9.8,21.9,21.9c0,6.6-3,12.6-7.6,16.6
				c0.1-0.8,0.2-1.7,0.2-2.6c0-12.1-9.8-21.9-21.9-21.9C46,5.7,41,7.7,37.2,11L37.2,11z"/>
			<path class="st8" d="M0.4,4.1C-6.9,0.5-11.8-7-11.8-15.6c0-12.1,9.8-21.9,21.9-21.9S32-27.7,32-15.6C32-4.9,24.2,4.1,14.1,5.9
				c-2.9-1.4-6.2-2.3-9.7-2.3C3,3.7,1.7,3.8,0.4,4.1L0.4,4.1z"/>
		</g>
	</g>
</g>
</svg>
