<?xml version="1.0" encoding="utf-8"?>
<!-- Generator: Adobe Illustrator 19.2.1, SVG Export Plug-In . SVG Version: 6.00 Build 0)  -->
<svg version="1.1" id="Слой_1" xmlns="http://www.w3.org/2000/svg" xmlns:xlink="http://www.w3.org/1999/xlink" x="0px" y="0px"
	 viewBox="0 0 245.9 185" style="enable-background:new 0 0 245.9 185;" xml:space="preserve">
<style type="text/css">
	.st0{fill:#FFFFFF;}
	.st1{fill:#6C6D69;}
	.st2{fill-rule:evenodd;clip-rule:evenodd;fill:#006B6A;}
	.st3{fill-rule:evenodd;clip-rule:evenodd;fill:#FFFFFF;}
</style>
<g>
	<path class="st0" d="M123,185c-31.7,0-61.8-8.9-84.6-25.1C13.6,142.3,0,118.4,0,92.5c0-25.9,13.6-49.8,38.4-67.4
		C61.2,8.9,91.2,0,123,0c31.7,0,61.8,8.9,84.6,25.1c24.7,17.5,38.4,41.5,38.4,67.4c0,25.9-13.6,49.8-38.4,67.4
		C184.7,176.1,154.7,185,123,185z"/>
	<path class="st1" d="M123.1,178.3h-0.3c-1.5,0-2.7-1.2-2.7-2.7c0-1.5,1.2-2.7,2.7-2.7h0.3c1.5,0,2.7,1.2,2.7,2.7
		C125.7,177.1,124.5,178.3,123.1,178.3z M132.4,178c-1.4,0-2.6-1.1-2.6-2.5c-0.1-1.5,1-2.7,2.5-2.8l0.1,0c1.5-0.1,2.7,1,2.8,2.5
		c0.1,1.5-1,2.7-2.5,2.8l-0.1,0C132.5,178,132.4,178,132.4,178z M113.6,178c-0.1,0-0.1,0-0.2,0l-0.1,0c-1.5-0.1-2.6-1.3-2.5-2.8
		c0.1-1.5,1.3-2.6,2.8-2.5l0.1,0c1.5,0.1,2.6,1.3,2.5,2.8C116.1,176.9,114.9,178,113.6,178z M141.7,177.2c-1.3,0-2.4-1-2.6-2.3
		c-0.2-1.5,0.8-2.8,2.3-3l0.2,0c1.5-0.2,2.8,0.9,2.9,2.3c0.2,1.5-0.9,2.8-2.3,2.9l-0.1,0C142,177.2,141.8,177.2,141.7,177.2z
		 M104.2,177.2c-0.1,0-0.2,0-0.3,0l-0.2,0c-1.5-0.2-2.5-1.5-2.3-3c0.2-1.5,1.5-2.5,3-2.3l0.1,0c1.5,0.2,2.5,1.5,2.3,2.9
		C106.7,176.2,105.5,177.2,104.2,177.2z M151,175.8c-1.2,0-2.4-0.9-2.6-2.1c-0.3-1.4,0.7-2.8,2.1-3.1l0.2,0c1.4-0.3,2.8,0.7,3.1,2.1
		c0.3,1.4-0.7,2.8-2.1,3.1l-0.1,0C151.4,175.8,151.2,175.8,151,175.8z M94.9,175.8c-0.2,0-0.3,0-0.5,0l-0.2,0
		c-1.4-0.3-2.4-1.7-2.1-3.1c0.3-1.4,1.7-2.4,3.1-2.1l0.1,0c1.4,0.3,2.4,1.6,2.1,3.1C97.2,174.9,96.1,175.8,94.9,175.8z M160.2,173.8
		c-1.2,0-2.3-0.8-2.6-2c-0.3-1.4,0.5-2.9,2-3.2l0.1,0c1.4-0.4,2.9,0.5,3.2,1.9c0.4,1.4-0.5,2.9-1.9,3.2l-0.2,0
		C160.6,173.7,160.4,173.8,160.2,173.8z M85.7,173.8c-0.2,0-0.4,0-0.7-0.1l-0.1,0c-1.4-0.4-2.3-1.8-1.9-3.2c0.4-1.4,1.8-2.3,3.2-1.9
		l0.1,0c1.4,0.4,2.3,1.8,1.9,3.2C87.9,173,86.9,173.8,85.7,173.8z M169.3,171.2c-1.1,0-2.2-0.7-2.5-1.8c-0.5-1.4,0.3-2.9,1.7-3.3
		l0.1,0c1.4-0.4,2.9,0.3,3.3,1.7c0.5,1.4-0.3,2.9-1.7,3.3l-0.1,0C169.8,171.1,169.5,171.2,169.3,171.2z M76.6,171.1
		c-0.3,0-0.5,0-0.8-0.1l-0.2-0.1c-1.4-0.5-2.1-2-1.7-3.4c0.5-1.4,2-2.1,3.4-1.7l0.1,0c1.4,0.5,2.2,1.9,1.7,3.3
		C78.8,170.4,77.7,171.1,76.6,171.1z M178.1,167.9c-1.1,0-2.1-0.6-2.5-1.7c-0.5-1.4,0.1-2.9,1.5-3.4l0.1,0c1.4-0.6,2.9,0.1,3.5,1.4
		c0.6,1.4-0.1,2.9-1.4,3.5l-0.2,0.1C178.7,167.9,178.4,167.9,178.1,167.9z M67.8,167.9c-0.3,0-0.7-0.1-1-0.2l-0.1-0.1
		c-1.4-0.6-2-2.1-1.4-3.5c0.6-1.4,2.1-2,3.5-1.4l0.1,0.1c1.4,0.6,2,2.1,1.4,3.5C69.8,167.3,68.8,167.9,67.8,167.9z M186.7,164
		c-1,0-1.9-0.5-2.4-1.4c-0.7-1.3-0.2-2.9,1.1-3.6l0.2-0.1c1.3-0.6,2.9-0.1,3.6,1.2c0.6,1.3,0.1,2.9-1.2,3.6l-0.1,0
		C187.5,164,187.1,164,186.7,164z M59.2,164c-0.4,0-0.8-0.1-1.2-0.3l-0.1,0c-1.3-0.6-1.9-2.2-1.2-3.6c0.6-1.3,2.2-1.9,3.5-1.2
		l0.1,0.1c1.3,0.7,1.8,2.3,1.2,3.6C61.1,163.5,60.2,164,59.2,164z M194.9,159.5c-0.9,0-1.8-0.5-2.3-1.3c-0.7-1.3-0.3-2.9,0.9-3.6
		l0.1-0.1c1.3-0.8,2.9-0.4,3.6,0.9c0.8,1.3,0.4,2.9-0.9,3.6l-0.1,0.1C195.8,159.4,195.4,159.5,194.9,159.5z M51,159.5
		c-0.5,0-0.9-0.1-1.4-0.4l-0.1-0.1c-1.3-0.8-1.6-2.4-0.9-3.6c0.8-1.2,2.4-1.6,3.6-0.9l0.1,0.1c1.3,0.8,1.7,2.4,0.9,3.6
		C52.7,159,51.9,159.5,51,159.5z M202.8,154.3c-0.8,0-1.6-0.4-2.1-1.1c-0.9-1.2-0.6-2.8,0.6-3.7l0.1-0.1c1.2-0.9,2.8-0.6,3.7,0.6
		c0.9,1.2,0.6,2.8-0.6,3.7l-0.1,0.1C203.8,154.2,203.3,154.3,202.8,154.3z M43.1,154.3c-0.5,0-1.1-0.2-1.6-0.5l-0.1-0.1
		c-1.2-0.9-1.4-2.5-0.6-3.7c0.9-1.2,2.5-1.4,3.7-0.6l0.1,0.1c1.2,0.9,1.4,2.5,0.6,3.7C44.7,153.9,43.9,154.3,43.1,154.3z
		 M210.1,148.5c-0.7,0-1.5-0.3-2-0.9c-1-1.1-0.8-2.8,0.3-3.7l0.1-0.1c1.1-1,2.8-0.9,3.7,0.2c1,1.1,0.9,2.8-0.2,3.7l-0.1,0.1
		C211.3,148.2,210.7,148.5,210.1,148.5z M35.8,148.4c-0.6,0-1.2-0.2-1.7-0.7l-0.1-0.1c-1.1-1-1.2-2.6-0.2-3.7c1-1.1,2.6-1.2,3.7-0.2
		l0.1,0.1c1.1,1,1.2,2.6,0.3,3.7C37.2,148.1,36.5,148.4,35.8,148.4z M216.8,141.9c-0.7,0-1.3-0.2-1.8-0.7c-1.1-1-1.1-2.7-0.1-3.7
		l0.1-0.1c1-1.1,2.7-1.1,3.7-0.2c1.1,1,1.1,2.7,0.2,3.7l-0.1,0.1C218.3,141.6,217.6,141.9,216.8,141.9z M29,141.8
		c-0.7,0-1.4-0.3-1.9-0.8l-0.1-0.1c-1-1.1-0.9-2.8,0.2-3.7c1.1-1,2.8-0.9,3.7,0.2l0.1,0.1c1,1.1,0.9,2.7-0.1,3.7
		C30.3,141.6,29.7,141.8,29,141.8z M222.8,134.6c-0.6,0-1.1-0.2-1.6-0.5c-1.2-0.9-1.4-2.5-0.5-3.7l0.1-0.1c0.9-1.2,2.5-1.4,3.7-0.6
		c1.2,0.9,1.4,2.5,0.6,3.7l-0.1,0.1C224.4,134.3,223.6,134.6,222.8,134.6z M23,134.6c-0.8,0-1.6-0.4-2.1-1.1l-0.1-0.1
		c-0.9-1.2-0.6-2.8,0.6-3.7c1.2-0.9,2.8-0.6,3.7,0.6l0.1,0.1c0.9,1.2,0.6,2.8-0.6,3.7C24.1,134.4,23.6,134.6,23,134.6z M227.9,126.7
		c-0.4,0-0.9-0.1-1.3-0.3c-1.3-0.7-1.7-2.3-1-3.6l0.1-0.1c0.7-1.3,2.3-1.7,3.6-1c1.3,0.7,1.8,2.3,1,3.6l-0.1,0.1
		C229.7,126.2,228.8,126.7,227.9,126.7z M18,126.7c-0.9,0-1.8-0.5-2.3-1.4l-0.1-0.1c-0.7-1.3-0.3-2.9,1-3.6c1.3-0.7,2.9-0.3,3.6,1
		l0.1,0.1c0.7,1.3,0.2,2.9-1,3.6C18.9,126.6,18.4,126.7,18,126.7z M231.9,118.2c-0.3,0-0.6-0.1-1-0.2c-1.4-0.5-2-2.1-1.5-3.4l0-0.1
		c0.5-1.4,2.1-2.1,3.4-1.5c1.4,0.5,2.1,2.1,1.5,3.4l-0.1,0.1C234,117.6,233,118.2,231.9,118.2z M14,118.1c-1.1,0-2.1-0.6-2.5-1.7
		l0-0.1c-0.5-1.4,0.2-2.9,1.5-3.4c1.4-0.5,2.9,0.2,3.4,1.5l0,0.1c0.5,1.4-0.2,2.9-1.5,3.4C14.6,118.1,14.3,118.1,14,118.1z
		 M234.6,109.2c-0.2,0-0.4,0-0.6-0.1c-1.4-0.3-2.3-1.7-2-3.2l0-0.1c0.3-1.4,1.7-2.3,3.2-2c1.4,0.3,2.3,1.7,2,3.2l0,0.1
		C237,108.4,235.9,109.2,234.6,109.2z M11.3,109.1c-1.2,0-2.3-0.8-2.6-2.1l0-0.1c-0.3-1.4,0.6-2.8,2-3.2c1.4-0.3,2.8,0.6,3.2,2
		l0,0.1c0.3,1.4-0.6,2.8-2,3.2C11.7,109.1,11.5,109.1,11.3,109.1z M236,99.9c-0.1,0-0.1,0-0.2,0c-1.5-0.1-2.6-1.4-2.5-2.8l0-0.1
		c0.1-1.5,1.4-2.6,2.8-2.4c1.5,0.1,2.6,1.4,2.4,2.8l0,0.1C238.6,98.9,237.4,99.9,236,99.9z M9.9,99.8c-1.4,0-2.5-1.1-2.6-2.5l0-0.1
		c-0.1-1.5,1-2.7,2.4-2.8c1.5-0.1,2.7,1,2.8,2.4l0,0.1c0.1,1.5-1,2.7-2.5,2.8C10,99.8,9.9,99.8,9.9,99.8z M236.1,90.5
		c-1.4,0-2.5-1.1-2.6-2.5l0-0.1c-0.1-1.5,1-2.7,2.4-2.8c1.5-0.1,2.7,1,2.8,2.5l0,0.1c0.1,1.5-1,2.7-2.4,2.8
		C236.2,90.5,236.1,90.5,236.1,90.5z M9.9,90.4c-0.1,0-0.1,0-0.2,0c-1.5-0.1-2.6-1.4-2.5-2.8l0-0.2c0.1-1.5,1.4-2.6,2.9-2.4
		c1.5,0.1,2.5,1.4,2.4,2.9l0,0.1C12.4,89.4,11.3,90.4,9.9,90.4z M234.7,81.2c-1.2,0-2.3-0.8-2.6-2.1l0-0.1c-0.3-1.4,0.6-2.8,2-3.2
		c1.4-0.3,2.8,0.6,3.2,2l0,0.1c0.3,1.4-0.6,2.8-2,3.2C235.1,81.2,234.9,81.2,234.7,81.2z M11.3,81.1c-0.2,0-0.4,0-0.6-0.1
		c-1.4-0.3-2.3-1.7-2-3.2l0-0.1c0.3-1.4,1.8-2.3,3.2-2c1.4,0.3,2.3,1.8,2,3.2l0,0.1C13.6,80.3,12.5,81.1,11.3,81.1z M232,72.2
		c-1.1,0-2.1-0.7-2.5-1.7l0-0.1c-0.5-1.4,0.1-2.9,1.5-3.4c1.4-0.5,2.9,0.1,3.4,1.5l0.1,0.2c0.5,1.4-0.2,2.9-1.5,3.4
		C232.6,72.2,232.3,72.2,232,72.2z M14,72.1c-0.3,0-0.6-0.1-1-0.2c-1.4-0.5-2-2.1-1.5-3.4l0-0.1c0.5-1.4,2.1-2,3.4-1.5
		c1.4,0.5,2,2.1,1.5,3.4l0,0.1C16.1,71.5,15.1,72.1,14,72.1z M228,63.7c-0.9,0-1.8-0.5-2.3-1.4l-0.1-0.1c-0.7-1.3-0.2-2.9,1-3.6
		c1.3-0.7,2.9-0.2,3.6,1l0.1,0.1c0.7,1.3,0.2,2.9-1,3.6C228.9,63.6,228.4,63.7,228,63.7z M18,63.6c-0.4,0-0.9-0.1-1.3-0.3
		c-1.3-0.7-1.8-2.3-1-3.6l0.1-0.1c0.7-1.3,2.3-1.7,3.6-1c1.3,0.7,1.7,2.3,1,3.6l-0.1,0.1C19.8,63.1,18.9,63.6,18,63.6z M222.9,55.8
		c-0.8,0-1.6-0.4-2.1-1.1l-0.1-0.1c-0.9-1.2-0.6-2.8,0.6-3.7c1.2-0.9,2.8-0.6,3.7,0.6l0.1,0.1c0.9,1.2,0.6,2.8-0.6,3.7
		C224,55.6,223.5,55.8,222.9,55.8z M23,55.7c-0.5,0-1.1-0.2-1.6-0.5c-1.2-0.9-1.4-2.5-0.6-3.7l0.1-0.1c0.9-1.2,2.5-1.5,3.7-0.6
		c1.2,0.9,1.5,2.5,0.6,3.7l-0.1,0.1C24.7,55.3,23.9,55.7,23,55.7z M217,48.5c-0.7,0-1.4-0.3-1.9-0.8l-0.1-0.1
		c-1-1.1-0.9-2.8,0.2-3.7c1.1-1,2.8-0.9,3.7,0.2l0.1,0.1c1,1.1,0.9,2.7-0.1,3.7C218.3,48.3,217.6,48.5,217,48.5z M29,48.4
		c-0.6,0-1.3-0.2-1.8-0.7c-1.1-1-1.1-2.7-0.1-3.7l0.1-0.1c1-1.1,2.7-1.2,3.7-0.2c1.1,1,1.2,2.7,0.2,3.7L31,47.6
		C30.4,48.2,29.7,48.4,29,48.4z M210.2,41.9c-0.6,0-1.2-0.2-1.7-0.7l-0.1-0.1c-1.1-1-1.2-2.6-0.2-3.7c1-1.1,2.6-1.2,3.7-0.2l0.1,0.1
		c1.1,1,1.2,2.6,0.3,3.7C211.7,41.6,211,41.9,210.2,41.9z M35.8,41.9c-0.7,0-1.5-0.3-2-0.9c-1-1.1-0.9-2.8,0.2-3.7l0.1-0.1
		c1.1-1,2.8-0.9,3.7,0.3c1,1.1,0.8,2.8-0.3,3.7l-0.1,0.1C37,41.7,36.4,41.9,35.8,41.9z M202.9,36.1c-0.5,0-1.1-0.2-1.6-0.5l-0.1-0.1
		c-1.2-0.9-1.4-2.5-0.6-3.7c0.9-1.2,2.5-1.4,3.7-0.6l0.1,0.1c1.2,0.9,1.5,2.5,0.6,3.7C204.5,35.7,203.7,36.1,202.9,36.1z M43.1,36
		c-0.8,0-1.6-0.4-2.1-1.1c-0.9-1.2-0.6-2.8,0.6-3.7l0.1-0.1c1.2-0.9,2.8-0.6,3.7,0.6c0.9,1.2,0.6,2.8-0.6,3.7l-0.1,0.1
		C44.2,35.8,43.7,36,43.1,36z M195,30.9c-0.5,0-0.9-0.1-1.4-0.4l-0.1-0.1c-1.3-0.8-1.7-2.4-0.9-3.6c0.8-1.3,2.4-1.7,3.6-0.9l0.1,0.1
		c1.2,0.8,1.6,2.4,0.9,3.6C196.8,30.4,195.9,30.9,195,30.9z M51,30.8c-0.9,0-1.8-0.5-2.3-1.3c-0.8-1.3-0.4-2.9,0.9-3.6l0.1-0.1
		c1.3-0.8,2.9-0.4,3.6,0.9c0.8,1.3,0.4,2.9-0.9,3.6l-0.1,0.1C51.9,30.7,51.4,30.8,51,30.8z M186.8,26.3c-0.4,0-0.8-0.1-1.2-0.3
		l-0.1-0.1c-1.3-0.7-1.8-2.2-1.2-3.6s2.2-1.8,3.6-1.2l0.1,0.1c1.3,0.7,1.8,2.2,1.2,3.6C188.7,25.8,187.8,26.3,186.8,26.3z
		 M59.2,26.3c-1,0-1.9-0.5-2.4-1.5c-0.7-1.3-0.1-2.9,1.2-3.6l0.1-0.1c1.3-0.7,2.9-0.1,3.6,1.2c0.7,1.3,0.1,2.9-1.2,3.6L60.4,26
		C60,26.2,59.6,26.3,59.2,26.3z M178.2,22.4c-0.3,0-0.7-0.1-1-0.2l-0.1,0c-1.4-0.6-2-2.1-1.5-3.5c0.6-1.4,2.1-2,3.4-1.5
		c0,0,0.1,0,0.1,0c1.4,0.5,2,2.1,1.5,3.5C180.2,21.8,179.2,22.4,178.2,22.4z M67.8,22.4c-1,0-2-0.6-2.5-1.7
		c-0.5-1.4,0.1-2.9,1.5-3.5l0.1,0c1.4-0.6,2.9,0.1,3.5,1.4c0.6,1.4-0.1,2.9-1.4,3.5l-0.1,0.1C68.4,22.3,68.1,22.4,67.8,22.4z
		 M169.4,19.2c-0.3,0-0.5,0-0.8-0.1l-0.1,0c-1.4-0.5-2.1-2-1.7-3.4c0.5-1.4,2-2.1,3.3-1.7l0.1,0c1.4,0.5,2.2,1.9,1.7,3.3
		C171.5,18.5,170.5,19.2,169.4,19.2z M76.6,19.2c-1.1,0-2.2-0.7-2.5-1.8c-0.5-1.4,0.3-2.9,1.7-3.3l0.1,0c1.4-0.5,2.9,0.3,3.3,1.7
		c0.5,1.4-0.3,2.9-1.7,3.4l-0.1,0C77.2,19.1,76.9,19.2,76.6,19.2z M160.3,16.6c-0.2,0-0.4,0-0.6-0.1l-0.2,0
		c-1.4-0.4-2.3-1.8-1.9-3.2c0.4-1.4,1.8-2.3,3.2-1.9l0.1,0c1.4,0.4,2.3,1.8,1.9,3.2C162.6,15.8,161.5,16.6,160.3,16.6z M85.6,16.5
		c-1.2,0-2.3-0.8-2.6-2c-0.4-1.4,0.5-2.9,1.9-3.2l0.1,0c1.4-0.4,2.9,0.5,3.2,1.9c0.4,1.4-0.5,2.9-1.9,3.2l-0.2,0
		C86.1,16.5,85.9,16.5,85.6,16.5z M151.1,14.5c-0.2,0-0.3,0-0.5,0l-0.1,0c-1.4-0.3-2.4-1.7-2.1-3.1c0.3-1.4,1.7-2.4,3.1-2.1l0.1,0
		c1.4,0.3,2.4,1.6,2.1,3.1C153.5,13.6,152.4,14.5,151.1,14.5z M94.8,14.5c-1.3,0-2.4-0.9-2.6-2.2c-0.3-1.4,0.7-2.8,2.1-3.1l0.1,0
		c1.4-0.3,2.8,0.7,3.1,2.1c0.3,1.4-0.7,2.8-2.1,3.1l-0.1,0C95.2,14.5,95,14.5,94.8,14.5z M141.8,13.1c-0.1,0-0.2,0-0.3,0l-0.1,0
		c-1.5-0.2-2.5-1.5-2.3-2.9c0.2-1.5,1.5-2.5,2.9-2.3l0.2,0c1.5,0.2,2.5,1.5,2.3,3C144.3,12.1,143.1,13.1,141.8,13.1z M104.1,13.1
		c-1.3,0-2.5-1-2.6-2.3c-0.2-1.5,0.9-2.8,2.3-2.9l0.1,0c1.5-0.2,2.8,0.8,3,2.3c0.2,1.5-0.8,2.8-2.3,3l-0.2,0
		C104.3,13.1,104.2,13.1,104.1,13.1z M132.5,12.3c-0.1,0-0.1,0-0.2,0l-0.1,0c-1.5-0.1-2.6-1.3-2.5-2.8c0.1-1.5,1.3-2.6,2.8-2.5
		l0.2,0c1.5,0.1,2.6,1.4,2.5,2.8C135,11.2,133.8,12.3,132.5,12.3z M113.5,12.3c-1.4,0-2.6-1.1-2.6-2.5c-0.1-1.5,1-2.7,2.5-2.8l0.1,0
		c1.5-0.1,2.7,1,2.8,2.5c0.1,1.5-1,2.7-2.5,2.8l-0.1,0C113.6,12.3,113.5,12.3,113.5,12.3z M123,12L123,12c-1.5,0-2.8-1.2-2.8-2.7
		c0-1.5,1.2-2.7,2.6-2.7h0.1c1.5,0,2.7,1.2,2.7,2.7C125.7,10.8,124.5,12,123,12z"/>
	<ellipse class="st2" cx="123" cy="92.5" rx="104.7" ry="74.3"/>
	<g>
		<path class="st3" d="M127.3,57.9c-4.9-0.5-6.1-1.5-6.1-1.5l-0.6-0.3c0,0-3.5-1.3-6-5.6c-4.8-8.6,3.3-16.4,3.3-16.4s-1.3,1.8-1,4.3
			c0.2,2.3,2.1,6.6,2.1,7.8c0,1.7-1.4,3.2-1.4,3.2l0.4,0.2l3.6-3.2c1-0.9,2.2-2.1,2.3-3.3c0.2-1.5-1.1-3.9-1.1-3.9
			c-0.4-1-0.8-2.1-1.1-3.3c-0.4-1.7,0-3.9,0-3.9s2.3-1.6,3.2-3.4c0.9-1.8,0-2.4-0.7-2.5c-0.7,0.1-1.8,1.9-2.1,3.1
			c-0.3,1.2-0.5,2.2-0.5,2.2s-3.2,2-5.7,2.9c-2.5,0.9-6.8,0.3-6.8,0.3s-8.5,16.2,3.2,26.3c7.6,6.6,19,3.9,19,3.9s0.4-1.4,2.1-3.7
			c1.5-2,4.6-4.2,4.6-4.2S133.9,58.6,127.3,57.9z M122.9,28.8c0.7-1.2,1-1.6,1-1.6s0.5-0.1,0.1,1.5c-0.4,1.6-1.9,2.3-1.9,2.3
			S122.3,30,122.9,28.8z"/>
		<path class="st3" d="M139.7,44.2c-0.3-2-1-3.7-2-5.8c0,0-0.8-1.6-0.8-1.6c-1-2-1.9-4-2-4.8c-0.2-0.9-0.2-1.6-0.1-2.6
			c0.1-0.9,0.4-2,0.4-2s-2.5,1.2-6.5,4.5c-3.9,3.2-4.8,5.3-4.8,5.3c-0.3,0.8-0.6,1.9-0.4,3.2c0.3,2.5,1.4,4.6,2.9,7.8
			c1.5,3.2,2.2,4.5,2.2,6.4c0,1.9-1.5,3.5-1.5,3.5l0.5,0.3l3-2.7l7.2-6.2c0.2-0.2,0.4-0.3,0.6-0.5l0,0l0,0c0.1-0.1,0.1-0.1,0.2-0.2
			C139,48.2,140,46.7,139.7,44.2z M133.7,52.1c0.1-0.3,0.2-0.6,0.3-0.9c0.2-2.2-0.9-3.6-2.3-6c-1.4-2.4-3.1-6.2-3.4-7.4
			c-0.5-2-0.1-4.1,0.5-4.9c0.7-0.9,1.7-1.7,1.7-1.7s-0.4,1.3-0.3,3.2c0.1,1.8,0.9,3.4,1.8,5.4c0,0,0.9,1.8,0.9,1.8
			c1,2,1.9,4.1,2.3,4.9c0.4,0.9,0.6,2,0.3,3.1C135,50.8,134.1,51.7,133.7,52.1z"/>
	</g>
	<g>
		<g>
			<path class="st0" d="M93.1,131c-0.9,0-1.2,0-1.5,0.1c-0.2,0-0.4,0-0.8,0c-0.3,0-0.6,0-1-0.1l-0.4,0v0.6l0.1,0
				c0.4,0,0.6,0,0.7,0.2c0.3,0.3,0.3,0.9,0.3,1.7l0,5c0,0.5,0,1.1-0.1,1.6c-0.1,0.7-0.4,0.7-0.6,0.7h-0.4v0.6h0.7
				c0.2,0,0.3,0,0.5-0.1c0.4-0.1,0.8-0.1,1.2,0l0,0c0.2,0,0.3,0.1,0.5,0.1h0.8v-0.6h-0.6c-0.2,0-0.3,0-0.4-0.1
				c-0.3-0.3-0.3-1.3-0.3-2.1v-6.8c0.2,0,0.3-0.1,0.5-0.1c1.6,0,2.6,1,2.6,2.5c0,1.3-0.8,2.4-1.8,2.4c-0.2,0-0.4,0-0.6,0l-0.1,0v0.6
				l0.1,0c0.2,0.1,0.4,0.1,0.7,0.1c1.5,0,3.1-1.1,3.1-3C96.3,132.6,95.5,131,93.1,131z"/>
			<path class="st0" d="M103.2,130.8c-3.2,0-5.4,2.2-5.4,5.3c0,2.8,1.9,5.6,5.5,5.6c2.8,0,4.9-2.3,4.9-5.5
				C108.2,133.5,106.3,130.8,103.2,130.8z M102.9,131.5c2.1,0,3.7,2.3,3.7,5.3c0,1.9-0.9,4.2-3.3,4.2c-2.6,0-3.9-2.6-3.9-5.1
				C99.4,131.8,102.1,131.5,102.9,131.5z"/>
			<path class="st0" d="M118.7,139.1c-0.6,1.1-1.7,1.8-3,1.8c-2.2,0-4.5-1.7-4.5-5.1c0-2.2,1.3-3.2,2.1-3.7c0.7-0.4,1.5-0.6,2.4-0.6
				c2.1,0,2.5,1.4,2.5,2.2l0,0.1h0.7v-0.1c0,0,0-0.1,0-0.1c0,0,0-0.1,0-0.1c0-0.6,0.1-1.8,0.1-2.4l0-0.2l-0.2,0
				c-0.1,0-0.3,0.1-0.6,0.1c-0.2,0-0.4,0-0.7-0.1c-0.1,0-0.3,0-0.4-0.1c-0.4-0.1-0.9-0.2-1.6-0.2c-0.6,0-1.4,0-2.2,0.3
				c-1.9,0.6-3.8,2.4-3.8,5.1c0,3.1,2.6,5.4,6,5.4c0.4,0,0.8-0.1,1.1-0.1c1.8-0.4,1.9-0.8,2.5-2.1l0.2-0.4L118.7,139.1L118.7,139.1z
				"/>
			<path class="st0" d="M129.6,139.1c-0.6,1.1-1.7,1.8-3,1.8c-2.2,0-4.5-1.7-4.5-5.1c0-2.2,1.3-3.2,2.1-3.7c0.7-0.4,1.5-0.6,2.4-0.6
				c2.1,0,2.5,1.4,2.5,2.2l0,0.1h0.7v-0.1c0,0,0-0.1,0-0.2c0,0,0-0.1,0-0.1c0-0.6,0.1-1.8,0.1-2.4l0-0.2l-0.2,0
				c-0.1,0-0.3,0.1-0.6,0.1c-0.2,0-0.4,0-0.7-0.1c-0.1,0-0.3,0-0.4-0.1c-0.4-0.1-0.9-0.2-1.6-0.2c-0.6,0-1.4,0-2.2,0.3
				c-1.9,0.6-3.8,2.4-3.8,5.1c0,3.1,2.6,5.4,6,5.4c0.4,0,0.8-0.1,1.1-0.1c1.8-0.4,2-0.8,2.5-2.1l0.2-0.4L129.6,139.1L129.6,139.1z"
				/>
			<path class="st0" d="M142.3,140.6c-0.3-0.3-0.3-0.9-0.3-1.6c0-0.1,0-0.3,0-0.4v-5.8c0-0.2,0-0.6,0.1-2l0-0.1l-0.7,0.1l0,0
				c-1.1,1.4-3.1,4-4.1,5.2c-0.3,0.4-0.6,0.7-0.9,1c-0.6,0.7-1.3,1.4-2.2,2.7c0-0.7,0.1-1.9,0.1-2.5v-3.9c0-0.6,0-1.4,0.3-1.7
				c0.1-0.1,0.2-0.1,0.4-0.1h0.4V131h-0.6c-0.2,0-0.3,0-0.5,0.1l-0.1,0c-0.2,0-0.4,0-0.5,0c-0.2,0-0.4,0-0.6,0c-0.1,0-0.1,0-0.2,0
				c-0.2,0-0.3,0-0.5,0h-0.6v0.6h0.4c0.2,0,0.3,0,0.4,0.1c0.3,0.3,0.3,0.9,0.3,1.5l0,5.7c0,1,0,1.6-0.1,2.5l0,0.1l0.8-0.1l0,0
				c1.7-1.7,2.5-2.7,3.5-3.9c0.3-0.3,0.6-0.7,0.9-1l0.3-0.4c0.9-1,1.6-1.9,2.5-3.2c-0.1,0.8-0.1,1.4-0.1,2.1v3.4
				c0,1.3-0.1,2.2-0.7,2.2h-0.4v0.6h0.6c0.1,0,0.2,0,0.3,0c0,0,0.1,0,0.1,0c0.2,0,0.5-0.1,0.7-0.1c0.2,0,0.3,0,0.5,0
				c0.2,0,0.3,0.1,0.6,0.1h0.6v-0.6h-0.4C142.5,140.8,142.4,140.7,142.3,140.6z"/>
			<path class="st0" d="M156.1,140.8c-0.2,0-0.3-0.1-0.4-0.2c-0.3-0.3-0.3-0.9-0.3-1.6c0-0.1,0-0.3,0-0.4v-5.8c0-0.2,0-0.6,0.1-2
				l0-0.1l-0.7,0.1l0,0c-1,1.4-3,4-4.1,5.2c-0.3,0.3-0.6,0.7-0.9,1c-0.6,0.7-1.3,1.4-2.2,2.7c0-0.7,0.1-1.9,0.1-2.5v-3.9
				c0-0.6,0-1.4,0.3-1.7c0.1-0.1,0.2-0.1,0.4-0.1h0.4V131h-0.6c-0.2,0-0.3,0-0.5,0.1l-0.2,0c-0.2,0-0.4,0-0.5,0c-0.2,0-0.4,0-0.6,0
				c-0.1,0-0.1,0-0.2,0c-0.2,0-0.3,0-0.5,0h-0.6v0.6h0.4c0.2,0,0.3,0,0.4,0.1c0.3,0.3,0.3,0.9,0.3,1.5l0,5.7c0,0.9,0,1.6-0.1,2.5
				l0,0.1l0.8-0.1l0,0c1.7-1.7,2.5-2.7,3.5-3.9c0.3-0.3,0.5-0.7,0.9-1l0.3-0.4c0.9-1,1.6-1.9,2.5-3.2c-0.1,0.8-0.1,1.4-0.1,2.1v3.4
				c0,1.3-0.1,2.2-0.7,2.2H153v0.6h0.6c0.1,0,0.2,0,0.3,0c0,0,0.1,0,0.1,0c0.2,0,0.5-0.1,0.7-0.1c0.2,0,0.3,0,0.5,0
				c0.2,0,0.3,0.1,0.6,0.1h0.6v-0.6H156.1z"/>
		</g>
		<g>
			<path class="st0" d="M51.2,101.4c-7.2,0-11.7,5-11.7,11.4c0,5.9,4,12.1,11.9,12.1c6,0,10.5-5,10.5-11.8
				C62,107.3,57.9,101.4,51.2,101.4z M51.4,123.7c-5.6,0-8.9-5.6-8.9-11.4c0-7.6,4.3-9.9,8-9.9c4.9,0,8.5,5.3,8.5,11.9
				C59,119.3,56.6,123.7,51.4,123.7z"/>
			<path class="st0" d="M80.3,117.4c-0.1-3.2-0.1-6.3,0-9.7c0.1-2.6-0.2-4.9,1.9-4.9h0.7v-0.9h-1.1c-0.5,0-0.9,0.1-1.4,0.2
				c-0.4,0.1-0.8,0.1-1.3,0.1c-0.4,0-0.8,0-1.3-0.1c-0.5-0.1-0.9-0.2-1.4-0.2h-1.1v0.9h0.7c2,0,1.8,2.3,1.9,4.9
				c0.1,3.4,0.1,6.5,0,9.7c-0.1,2.1,0.3,6-1.8,6h-0.8v0.9h1.2c0.4,0,0.9-0.1,1.3-0.1c0.4-0.1,0.8-0.1,1.2-0.1c0.4,0,0.8,0,1.2,0.1
				c0.4,0.1,0.9,0.1,1.3,0.1h1.2v-0.9H82C80,123.4,80.3,119.5,80.3,117.4z"/>
			<path class="st0" d="M71.8,107.1c-2.1-2.4-2.4-3-2.4-3.6c0-0.4,0.7-0.8,1.3-0.7v-0.9h-1c-0.4,0-0.8,0.1-1.2,0.1
				c-0.4,0.1-0.8,0.1-1.2,0.1c-1.3,0-1.5-0.2-2.4-0.2H64v0.9h0.6c2,0,4.6,2.9,5.8,4.2c1.5,1.8,3.7,4.1,5.1,5.5
				c-2.6,1.5-4.2,3.5-7.1,7.5c-0.4,0.6-0.9,1.2-1.3,1.7c-0.7,0.9-1.5,1.8-3,1.8c-0.3,0-0.7,0-1,0v0.7c0.7,0.3,1.4,0.4,2.2,0.4
				c1.8,0,3.1-1,4.3-2.1c1.1-1,2-2.2,2.8-3.4c3.1-4,4.2-5.3,4.9-6.1C75.9,111.5,73.8,109.3,71.8,107.1z"/>
			<path class="st0" d="M91.2,121.7c-0.5-0.6-0.9-1.1-1.3-1.7c-2.9-4-4.5-6-7.1-7.5c1.4-1.4,3.5-3.7,5.1-5.5
				c1.2-1.4,3.8-4.2,5.8-4.2h0.6v-0.9h-0.9c-0.9,0-1.1,0.2-2.4,0.2c-0.4,0-0.8,0-1.2-0.1c-0.4-0.1-0.8-0.1-1.2-0.1h-1v0.9
				c0.6-0.1,1.3,0.3,1.3,0.7c0,0.6-0.3,1.3-2.4,3.6c-2,2.2-4.1,4.5-5.4,5.9c0.7,0.8,1.8,2.1,4.9,6.1c0.9,1.2,1.8,2.4,2.9,3.4
				c1.2,1.2,3.4,2.9,6.5,1.7v-0.7C93.1,123.7,91.9,122.5,91.2,121.7z"/>
			<path class="st0" d="M140.7,123.3c-2.4,0-3.4-0.4-3.4-4.7v-5.4l2.1-0.1h2.1c1.7,0,2.1,1.2,1.8,3.1h0.9c-0.1-2.4,0.1-4.7,0.5-6.8
				h-0.9c-0.1,2.3-1.1,2.6-2.3,2.6l-2.1,0l-2.1-0.1v-3.6c0-1.6,0.1-3.2,0.2-4.9h3.9c2.5,0,2.7,1.1,2.7,2.1c0,0.5-0.1,1.1-0.3,1.8
				h1.1c0.6-1.9,1-3.8,1.2-5.5c-2.7,0.2-4.4,0.2-7.1,0.2c-2.4,0-4,0-6.7-0.2v0.9h0.7c2,0,1.8,2.9,1.8,4.9v11c0,1.9,0,4.7-1.5,4.7h-1
				v0.9h0.8c1.2,0,2-0.3,3.8-0.2c0.4,0,0.7,0.1,1.1,0.1c0.9,0.1,1.8,0.1,2.7,0.2c1.1,0.1,2.1,0.1,3.2,0.1c1.6,0,2.5,0,3.6-5.1h-1.1
				C145.4,123,143.5,123.3,140.7,123.3z"/>
			<path class="st0" d="M166.1,118.5c-1.9-5.4-3-7.5-6-17.1l-1.3,0.3c-0.6,2.5-1.1,4.1-3.5,11c-1.8,5.1-2.6,7.2-3.3,8.6
				c-0.5,0.9-1.2,2.1-2.7,2.1h-0.8v0.9h0.9c0.5,0,0.9-0.1,1.4-0.1c0.5-0.1,1-0.1,1.5-0.1c0.5,0,1,0,1.5,0.1c0.4,0.1,0.9,0.1,1.3,0.1
				h1.2v-0.9h-0.7c-1.4,0-1.3-0.9-1.2-1.6c0.2-1.6,0.7-3,2.7-9c1.2-3.6,1.7-5.4,2-7.4h0.2c0.5,2.8,2.8,9.2,3.5,11
				c1.9,5.1,2.5,7,0.1,7h-0.5v0.9h1.1c0.4,0,0.8-0.1,1.3-0.1c0.5-0.1,1-0.1,1.5-0.1c0.5,0,1,0,1.6,0.1c0.5,0.1,1.1,0.1,1.6,0.1h0.9
				v-0.9h-0.6C167.8,123.4,166.8,120.5,166.1,118.5z"/>
			<path class="st0" d="M180.3,111.8c-1.1,0-2.2,0.1-3.3,0.3v-4.5c0-2.6-0.1-4.8,1.9-4.8h0.7v-0.9h-1.1c-0.5,0-1,0.1-1.4,0.1
				c-0.4,0-0.8,0.1-1.1,0.1c-0.4,0-0.9,0-1.3-0.1c-0.5-0.1-0.9-0.1-1.4-0.1H172v0.9h0.7c2,0,1.8,2.8,1.8,5.5v9.6
				c0,2.6-0.2,5.5-2,5.5H172v0.9h1.4c1.4,0,1.7-0.2,3.1-0.2c0.5,0,1,0.1,1.5,0.2c0.9,0.1,1.7,0.3,2.6,0.3c1,0,1.9-0.1,2.8-0.4
				c2.2-0.7,4.6-2.8,4.6-6.5C188.1,113.9,184.9,111.8,180.3,111.8z M182.4,123.1c-0.7,0.3-1.4,0.3-2.2,0.3c-3.3,0-3.2-2-3.2-4V113
				c0.6-0.1,1.3-0.1,1.9-0.1c5,0,6.2,3.1,6.2,5.9C185.1,121.8,183,122.9,182.4,123.1z"/>
			<path class="st0" d="M205.3,119.4c-0.9,3.6-2.8,3.9-5.7,3.9c-2.4,0-3.4-0.4-3.4-4.7v-5.4l2.1-0.1h2.1c1.7,0,2.1,1.2,1.8,3.1h0.9
				c-0.1-2.4,0.1-4.7,0.5-6.8h-0.9c-0.1,2.3-1.1,2.6-2.3,2.6l-2.1,0l-2.1-0.1v-3.6c0-1.6,0.1-3.2,0.2-4.9h3.9c2.5,0,2.7,1.1,2.7,2.1
				c0,0.5-0.1,1.1-0.3,1.8h1.1c0.6-1.9,1-3.8,1.2-5.5c-2.7,0.2-4.4,0.2-7.1,0.2c-2.4,0-4,0-6.7-0.2v0.9h0.7c2,0,1.8,2.9,1.8,4.9v11
				c0,1.9,0,4.7-1.5,4.7h-1v0.9h0.8c1.2,0,2-0.3,3.8-0.2c0.4,0,0.7,0.1,1.1,0.1c0.9,0.1,1.8,0.1,2.7,0.2c1.1,0.1,2.1,0.1,3.2,0.1
				c1.6,0,2.6,0,3.6-5.1H205.3z"/>
			<path class="st0" d="M176.1,90.1c0.1-0.4,0.1-0.7,0-0.9l0-0.2l0,0.2c-0.2,0.7-2.1,4.2-3.8,4.2c-0.1,0-0.3,0-0.4-0.1
				c-1.6-0.6-1.4-5.9-1.2-6.8c2.7-0.1,5.2-0.8,7.4-2c3.6-2,4.6-3,4.3-4.4c-0.4-1.4-2.5-2-2.6-2l0,0l0,0.2l0,0c0,0,2.1,0.5,1.9,2.2
				c-0.2,1.9-1.9,2.8-3.7,3.7c-2.4,1.1-5.4,1.6-6.5,1.6c-0.1,0-0.2,0-0.3,0c0,0,0,0,0-0.1c0,0,0-0.1,0.1-0.2c0,0,1.9-0.7,3.3-2.2
				c0.8-0.8,1-2.1,0.7-2.9c-0.1-0.5-0.4-0.8-0.8-0.8c-0.1,0-0.2,0-0.2,0c-0.8,0-1.2,0.8-1.3,0.9c-0.1,0-0.8,0.2-1.6,0.7
				c-0.6,0.4-1.3,2.5-1.7,4.4c0,0.1-0.3,0.2-0.6,0.3c-0.4,0.1-0.9,0.1-0.9,0.1l0,0l0,0c0,0,0,0.3,0.3,0.4c0.2,0.1,0.5,0.1,0.7,0.1
				c0.1,0,0.2,0,0.2,0c0,0,0.2,0.1,0.1,0.2c0,0.1,0,0.1,0,0.2c0,0.1,0,0.1,0,0.2c-0.2,1.4-0.5,5.8,0.8,7.4c0.3,0.4,0.6,0.6,1,0.6
				c0,0,0.1,0,0.1,0C172.7,95,175.8,91.4,176.1,90.1z M171.6,82.7c0.4-0.9,1.3-2.1,1.8-2.1c0,0,0,0,0,0c0.1,0,0.2,0.1,0.3,0.2
				c0.3,0.4,0.4,1.2,0.1,1.9c-0.8,2-2.7,2.3-2.8,2.4c0,0,0-0.1,0-0.1C170.9,85,171,83.9,171.6,82.7z"/>
			<path class="st0" d="M128.8,97.5c0.2-1.7,0.3-2.6,0.3-2.7c0,0,0-0.1,0.1-0.1c0,0,0.1,0,0.2,0c0.4,0,1.5-0.1,2.8-0.7
				c0.7-0.4,2-1,3-2.3c1.1-1.4,1.7-3.2,1.5-5.5c0-0.2,0-0.3-0.1-0.5c0.1-0.1,0.1-0.2,0.2-0.2c0.3-0.5,1.3-2.7,0.5-3.6
				c-0.5-0.5-1-0.6-1.3-0.6c-0.1,0-0.1,0-0.2,0c0,0-0.1,0-0.1,0c0,0-0.2,0-0.2,0.1c0,0.1,0.1,0.1,0.2,0.2c0.3,0.1,1,0.6,1.2,1
				c0.2,0.6,0.2,1.6-0.4,2.6c-0.5-2.2-1.9-3.5-3-4.3c-0.2-0.2-0.4-0.4-0.6-0.5c-1.1-1-1.2-1.7-1.2-2.1c0-1,0.8-1.1,0.8-1.1l0,0
				l-0.1-0.2h0c0,0-0.4,0-0.7,0.3c-0.4,0.3-1.1,1.4-1.2,1.5c0,0-0.2,0.3,0,0.6c0.2,0.6,1.4,1.7,2.4,2.6c0.3,0.3,0.5,0.5,0.7,0.7
				c1.5,1.5,1.5,4.1,1.5,4.3c-0.1,0.1-1,1.6-2.5,3.2c-1.6,1.8-3.3,2.6-3.3,2.6c-0.1,0-0.1,0-0.1,0c0,0,0-0.1,0-0.1
				c0,0,0.3-3.7,0.6-5.4c0.1-0.8,0.8-4.5,1.2-5.3c0.3-0.6,0.8-1,0.8-1.1l0,0l-0.1-0.1l0,0c-0.2,0-1.8,0.2-2,0.5
				c-0.2,0.4-0.7,3.2-0.9,5.2c-0.1,1.4-0.4,3.9-0.7,5.9l-0.1,1c0,0.2-0.1,0.3-0.2,0.3c0,0-0.1,0-0.1,0.1c-0.1,0.1-0.3,0.2-0.3,0.3
				c0,0.2,0.2,0.4,0.5,0.5l0,0.3c-0.1,0.8-0.5,5-0.7,8.5c-1.1-0.9-2.7-1.5-4.8-1.5c-3.6,0-2.8,0.2-4.9,0.2c-0.7,0-1.6-0.1-2.9-0.2
				v0.9c2.7-0.2,2.5,1.7,2.5,5.2v10c0,2.3,0,5.4-1.8,5.4h-0.7v0.9h1.2c0.4,0,0.7-0.1,1.1-0.1c0.5-0.1,1-0.1,1.4-0.1
				c0.4,0,0.9,0,1.3,0.1c0.4,0.1,0.8,0.1,1.2,0.1h1.6v-0.9h-1.1c-1.9,0-1.8-3-1.8-5.7v-14.7c0.4-0.1,0.9-0.2,1.3-0.2
				c3.3,0,6,2,6,5.7c0,3-1.9,5.4-4.2,5.4c-0.5,0-0.9,0-1.4-0.1v0.8c0.4,0.1,0.9,0.2,1.5,0.2c3.2,0,6.7-2.4,6.7-6.5
				c0-0.2,0-0.3,0-0.5c0.1,0,0.2-0.1,0.2-0.1l0.1,0l-0.3-0.2c-0.1-1-0.4-1.9-0.9-2.7C128.6,102.2,128.7,98.7,128.8,97.5z M130,93.2
				c0,0,1.2-0.7,2.1-1.8c1-1,3-3.3,3-3.3c0,0,0,0,0,0c0,0,0,0,0,0c0,0.2-0.4,3.1-1.6,4.4c-1,1-2.2,1.3-3,1.3c-0.4,0-0.6-0.1-0.7-0.1
				C129.7,93.5,130,93.2,130,93.2z"/>
			<path class="st0" d="M157.5,90.4c-0.1,0.1-0.2,0.3-0.3,0.4c-0.4,0.6-0.9,1.2-1.2,1.2c0,0-0.1,0-0.1,0c-0.3-0.4,0-2.7,0.3-4.8
				l0-0.1c0-0.2,0.1-0.3,0.2-0.3c1.3-0.5,2-1,2.1-1.7c0.1-0.7-0.2-1.1-0.5-1.3c0,0,0,0-0.1-0.1c-0.1-0.1-0.1-0.1-0.2-0.1
				c0,0,0,0-0.1,0c-0.1,0.1,0,0.2,0.1,0.2c0.2,0.3,0.2,1,0,1.4c-0.1,0.2-0.6,0.8-1.6,1.2c0,0,0,0,0,0l0.1-0.4c0.2-1.6,0.8-3.8,1.1-5
				c0.1-0.5,0.2-0.8,0.2-0.8c0,0,0-0.1,0-0.1c0,0-0.1-0.1-0.3-0.1c-0.4,0-1.2,0.2-1.3,0.4c-0.1,0.1-0.2,0.9-0.4,2.3
				c-0.1,0.9-0.2,1.9-0.4,2.6c-0.1,0.3-0.1,0.6-0.2,1l-0.1,0.3c0,0.1-0.1,0.1-0.1,0.2c-0.8,0.1-1.5,0.1-1.7,0.1c-0.1,0-0.3,0-0.3,0
				c-0.1,0-0.7,0-1.2-0.1c0,0-0.1,0-0.1,0c0,0,0-0.1,0-0.1c0.2-1.4,0.5-3,0.6-3.7c0.1-0.4,0.2-0.8,0.3-1.2c0.3-1.2,0.4-1.9,0.2-2.1
				c-0.1-0.1-0.2-0.1-0.3-0.1c-0.2,0-0.5,0.1-0.7,0.2c0,0-0.1,0-0.1,0.1c-0.3,0.1-0.6,0.7-0.7,1.1c0,0.1,0,0.2,0.1,0.3
				c0.2,0.1,0,1.8-0.1,2.6c0,0.1,0,0.2,0,0.3c0,0.1,0,0.2-0.1,0.4c0,0.1-0.5,1.5-3,5c-0.3,0.5-1.6,2.7-1.6,2.7c0,0-0.1,0.1-0.1,0.1
				c0,0,0,0,0-0.1c0,0-0.1-0.5-0.1-1.9c0-1.5,0.4-4.4,0.9-7.2c0.1-0.6,0.2-1.1,0.4-1.6c0,0,0,0,0.1,0c0.1,0,0.2,0.1,0.3,0.1
				c0,0.1,0.1,0,0.2,0c0,0,0-0.1,0-0.1l0,0c-0.2-0.3-0.3-0.4-0.3-0.6c0.3-0.8,0.5-1.4,0.7-1.7c0.1-0.3,0.2-0.4,0.2-0.5
				c-0.1-0.1-0.4-0.1-0.6-0.1c-0.2,0-0.4,0-0.6,0.1c-0.4,0.1-0.5,0.8-0.7,1.3c0,0.1-0.1,0.2-0.1,0.4c0,0-0.1,0-0.1,0.1
				c-0.1,0.1-0.2,0.1-0.3,0c-0.1,0-0.2,0-0.4,0c-0.2,0-0.3,0-0.5,0c-0.8,0.1-3.5,1.3-4.9,4.4c-0.6,1.3-0.6,2.6-0.1,3.3
				c0.3,0.4,0.7,0.6,1.2,0.6c0,0,0,0,0.1,0c1,0,2.2-0.7,3.2-1.5c0,0-0.1,0.1-0.1,0.1c-0.2,0.3-0.3,0.6-0.5,1
				c-0.5,0.9-1.4,2.2-1.9,2.8l-0.1,0.1c-0.3,0.5-1.8,1.9-2.3,1.9c0,0,0,0-0.1,0c-0.3-0.1-0.2-1.3-0.1-2.1c0-0.4,0.1-0.7,0-0.8
				c0-0.2-0.2-0.3-0.5-0.3c-0.2,0-0.5,0.1-0.7,0.3c-0.2,0.3-0.3,1-0.5,2.2c-0.1,0.9-0.2,2.3,0,2.5c0.1,0,0.1,0.1,0.3,0.1
				c0.2,0,0.6-0.1,1.1-0.2c0.5-0.2,2-1.9,2.8-2.9c0.1-0.2,0.3-0.3,0.4-0.4c0.4-0.4,1.1-1.6,1.7-2.5c0.4-0.6,0.7-1.1,0.8-1.2
				c0,0,0.1-0.1,0.1-0.1c0,0,0.1,0,0.1,0c0,0,0,0.1,0,0.1c0,0.2-0.6,3.7-0.6,5c0,1.2,0.1,1.7,0.5,2c0.1,0.1,0.2,0.1,0.4,0.1
				c0.2,0,0.5-0.1,0.6-0.2c0.1-0.1,0.2-0.3,0.3-0.7c0.1-0.2,0.1-0.5,0.2-0.8c0.2-0.7,0.7-1.6,1-2.1l0.1-0.1c0.2-0.4,1.4-2.4,2.3-3.3
				c0.3-0.4,0.5-0.4,0.6-0.4c0,0,0.1,0,0.1,0c0,0,0.1,0.1,0.1,0.3c-0.1,0.7-0.2,1.4-0.3,2c-0.1,0.5-0.1,0.9-0.2,1.2
				c-0.1,0.4-0.2,1-0.3,1.6c-0.3,1.3-0.4,2.1-0.3,2.2c0.1,0.1,0.1,0.1,0.2,0.1c0.3,0,0.7-0.3,1-0.6c0.4-0.5,0.7-4.1,0.8-5
				c0-0.3,0.1-0.7,0.1-1.2c0-0.3,0.1-0.4,0.3-0.4c0,0,0,0,0,0c0.2,0,0.4,0,0.7,0c0.1,0,0.2,0,0.4,0c0.6,0,1.4,0,2-0.1
				c0,0,0.1,0,0.1,0c0,0,0,0.1,0,0.1l-0.1,0.5c-0.2,1.2-0.5,2.3-0.5,3c-0.1,1.1-0.3,3.2-0.1,3.5c0.1,0.2,0.5,0.4,0.7,0.4
				c0.1,0,0.2,0,0.3-0.1c0.2-0.2,0.8-1.2,1.3-2c0.3-0.4,0.5-0.8,0.6-1c0.6-0.9,2.5-3.5,3.1-3.6c0,0.1,0,0.1,0,0.2
				c-0.1,4.5,0.9,6.7,1.1,7c0.1,0.1,0.2,0.1,0.3,0.1c0.4,0,1-0.3,1.4-0.8c0.5-0.6,2.3-3.7,3-5.2c1.3-2.8,1.6-5.8,1.5-7.1
				c0-0.5-0.1-1-0.2-1.5c0,0,0.1,0,0.1,0c0.1,0,0.1,0,0.2,0c0.1,0,0.1,0,0.2,0c0.1,0,0.1-0.1,0.1-0.1c0-0.1-0.2-0.3-0.4-0.4
				c-0.1,0-0.2-0.1-0.2-0.1c0,0-0.1-0.1-0.1-0.1c-0.3-0.9-0.6-1.7-1.1-2.1c-0.3-0.3-0.5-0.3-0.5-0.2c-0.1,0.1,0,0.5,0,0.6
				c0.4,0.8,0.5,1.5,0.5,1.7c-0.1,0-0.3,0-0.4,0c-2.6,0-4.5,3-5.1,6.3c-0.1,0.1-0.1,0.3-0.2,0.4C159.8,87.4,158.3,89.4,157.5,90.4z
				 M145.8,82c-0.1,0.5-0.2,1.2-0.3,2c-0.3,0.9-1.5,3.9-3.5,4c0,0-0.1,0-0.1,0c-0.4,0-0.7-0.1-0.9-0.4c-0.4-0.6-0.2-1.7,0.1-2.5
				c0.5-1.2,2.5-4.2,3.8-4.4c0.2,0,0.3,0,0.5,0c0.3,0,0.5,0.1,0.6,0.2C146,81.1,145.9,81.5,145.8,82L145.8,82z M162.9,82.3
				c0.6-1,1.3-1.9,2.2-1.9c0.2,0,0.4,0,0.6,0.1c1.1,0.4,0.9,5.5-0.1,8c-0.7,1.8-2.5,4.6-3,4.6c0,0,0,0,0,0c-0.5-0.1-0.9-1.6-1.1-4.2
				C161.4,86.5,162.3,83.5,162.9,82.3z"/>
			<path class="st0" d="M119.6,90c0.2,3.2,0.9,4.9,1.1,5.1c0.1,0.1,0.2,0.1,0.3,0.1c0.4,0,1-0.3,1.4-0.8c0.5-0.6,2.4-3.8,3.1-5.4
				c1.4-2.9,1.6-6,1.5-7.3c0-0.5-0.1-1-0.3-1.5c0.1,0,0.1,0,0.2,0c0.1,0,0.1,0,0.2,0c0.1,0,0.1,0,0.2,0c0.1,0,0.1-0.1,0.1-0.1
				c0-0.1-0.2-0.3-0.4-0.4c-0.1,0-0.2-0.1-0.2-0.1c-0.1-0.1-0.2-0.1-0.2-0.2c-0.4-0.9-0.9-1.5-1.3-2.1c-0.6-0.8-1.1-1.4-1.3-2.8
				c0-0.5,0.1-1.2,0.7-1.8c0.4-0.5,1.3-1.1,2.8-1.1c0.3,0,0.6,0,0.9,0.1c1.5,0.2,3.1,0.6,4.8,1c2.7,0.7,5.7,1.4,9.2,1.6
				c0.8,0,1.5,0.1,2.1,0.1c2.5,0,4.7-0.3,6.6-0.9c2.6-0.8,4.9-2.1,6.8-4c1.9-1.8,2.6-3.6,2.3-5.3c-0.5-2.6-3.3-4.1-4.2-4.5
				c-1.5-0.7-3.7-1.1-5.7-1.1c-1.4,0-2.6,0.2-3.7,0.6c-1.2,0.5-2.6,1.7-2.6,1.7l0,0l0,0c0,0,0,0.2,0,0.3c0.1,0.1,0.2,0.1,0.4,0.1
				l0,0l0,0c0.1-0.1,0.2-0.2,0.2-0.2c0.7-0.7,1.9-2,4.9-2c0.1,0,0.1,0,0.2,0c4.4,0.1,9,2,9.4,5.6c0.4,3.7-3.2,6.6-6.8,7.5
				c-1.9,0.5-4.1,0.7-6.6,0.7c-2.1,0-4.4-0.2-6.8-0.5c-2-0.3-3.6-0.6-5-0.8c-2.4-0.4-4.1-0.7-5.6-0.7c-0.2,0-0.4,0-0.6,0
				c-1.4,0.1-2.6,0.6-3.3,1.5c-0.3,0.4-0.9,1.2-0.8,2.3c0,1.5,0.7,2.3,1.3,3.2c0.4,0.5,0.7,1,1,1.7c-1.9-0.3-3.6,0.7-4.7,2.7
				c-0.9,1.5-1.5,3.6-1.5,5.7c0,0.2,0,0.4,0,0.7h0c-0.3,1.2-2.4,4.9-4.2,4.9c-0.1,0-0.2,0-0.3,0c-1.7-0.4-1.3-5.9-1.2-6.9
				c0.1-0.5,0.2-0.8,0.4-0.9c0,0,1.9-0.7,3.3-2.2c0.8-0.8,1-2.1,0.7-2.9c-0.1-0.5-0.4-0.8-0.8-0.8c-0.1,0-0.2,0-0.2,0
				c-0.8,0-1.2,0.8-1.3,0.9c-0.1,0-0.7,0.2-1.4,0.6l0,0c0,0-1.6,0.7-2.8,1.3c-1.2,0.6-2,1.1-2,1.2c0,0,0,0-0.1,0
				c-0.1,0-0.2,0-0.3-0.2c-0.6-2.5-2.5-4-3.3-4c0,0,0,0-0.1,0c-0.8,0.1-1.5,1.3-1.5,1.3c-0.1,0.1-0.1,0.1-0.1,0c0-0.2,0-0.6,0.2-1.3
				c0.1-0.5,0.6-0.9,0.6-0.9l0,0l0,0c0-0.1-0.1-0.2-0.1-0.2l0,0l0,0c0,0-0.5,0.1-0.8,0.1l-0.1,0c-0.2,0-0.7,0-1,0.8
				c-0.3,1-0.5,3.1-0.7,4.6c-0.6,1.5-1.8,4.2-2.4,5.1l-0.1,0.2c-1,1.8-2.5,4.2-4,4.2c-0.2,0-0.3,0-0.5-0.1c-1.6-0.5-1.4-5.8-1.2-6.9
				c0.7,0,1.6-0.2,2.8-0.4c0.8-0.2,3.3-0.9,3.4-2c0.1-0.7-0.2-1-0.4-1.3c0,0-0.1-0.1-0.1-0.1c-0.1-0.1-0.1-0.1-0.2-0.1
				c0,0-0.1,0-0.1,0c0,0.1,0,0.2,0.1,0.2c0.2,0.3,0.2,1,0,1.4c-0.3,0.5-1.4,1.2-2.8,1.4c-0.5,0.1-1,0.1-1.5,0.1
				c-0.4,0-0.7,0-0.9-0.1c0,0,0,0,0-0.1c0,0,0-0.1,0.1-0.2c0,0,1.9-0.7,3.3-2.2c0.8-0.8,1-2.1,0.7-2.9c-0.1-0.5-0.4-0.8-0.8-0.8
				c-0.1,0-0.2,0-0.2,0c-0.8,0-1.2,0.8-1.3,0.9c-0.1,0-0.8,0.2-1.6,0.7c-0.6,0.4-1.3,2.5-1.7,4.4c0,0.1-0.3,0.2-0.6,0.3
				C92.3,86,91.8,86,91.8,86l0,0l0,0c0,0,0,0.3,0.3,0.4c0.2,0.1,0.5,0.1,0.7,0.1c0.1,0,0.2,0,0.2,0c0,0,0.1,0.1,0.1,0.2
				c0,0.1,0,0.2,0,0.3l0,0.1c0,0.1,0,0.2,0,0.4c-0.9,2.1-3.7,6.4-10,6.4c-0.2,0-0.4,0-0.6,0c-2.8-0.1-5.4-1.5-7.3-3.9
				c-2.3-2.9-3.3-6.9-2.7-10.5c0.1-0.4,0.2-0.8,0.2-1.2c2.1,0.3,4.3,0.4,6.5,0.4c2.8,0,5.7-0.2,8.5-0.7c0.6-0.1,1.2-0.2,1.9-0.3
				c-0.7,2.1-2.4,3.3-5.1,3.5c-0.2,0-0.4,0-0.6,0c-2.1,0-3.1-1-3.1-1c-0.2-0.2-0.4-0.1-0.5,0c-0.1,0.1,0,0.3,0.1,0.4
				c0.3,0.3,1.5,1.1,3.3,1.1c0.3,0,0.6,0,0.8-0.1c2-0.3,4.7-1.2,5.8-4.2c5-1.1,13.4-3.9,13.5-9.9c0-0.5-0.2-1-0.7-1.5
				c-1.3-1.3-4.4-2.1-8.3-2.1c-2.8,0-5.8,0.4-8.9,1.1c-1.1,0.3-2.1,0.6-3.1,0.9c-0.9-0.3-1.9-0.6-3-0.8c-2.1-0.4-4.6-0.6-7.1-0.6
				c-3.2,0-6.2,0.4-8.5,1c-2.4,0.7-5.5,2.1-5.4,5.7c0.1,2.3,3.4,4.5,6.4,5.4c1.9,0.5,3.9,1,6,1.3c-1.1,4.6-0.3,9.2,2.1,12.4
				c2.1,2.8,5.3,4.4,9.1,4.6c0.1,0,0.3,0,0.4,0c2.3,0,4.8-1,7.1-2.9c1.3-1,2.4-2.2,3.2-3.3c-0.1,1.9,0,4.4,0.9,5.6
				c0.3,0.4,0.6,0.6,1,0.6c0,0,0.1,0,0.1,0c1,0,2.8-1.5,3.9-2.9c1.5-2,2.8-4.9,3.6-6.4c0,0,0,0,0,0c0,0.3-0.1,0.6-0.1,0.9l0,0.1
				c0,0.4-0.1,1.2-0.4,3c-0.1,1-0.2,1.8-0.3,2.5c-0.4,0.5-1,1.7-1,1.8c0,0.1,0,0.2,0.1,0.3c0,0,0.1,0,0.1,0.1
				c0.2,0.1,0.5,0.3,0.6,0.5c-0.1,1.6-0.3,4.6-0.9,7.1c-1.1,0-2.2-0.1-3.5-0.2v0.9h0.7c1.3,0,1.6,1.2,1.8,2.6
				c-0.3,0.7-0.7,1.2-1.2,1.4c-0.6,0.3-1.2,0.4-1.8,0.4c-1.4,0-2.3-0.9-2.3-0.9l0,0l-0.1,0.1l0,0c0,0,0.7,1.5,2.2,1.5
				c0.1,0,0.1,0,0.2,0c1.1-0.1,1.9-0.7,2.5-1.1c0.2-0.2,0.4-0.3,0.5-0.3c0,0,0.1,0,0.1,0c0,0.4,0,0.8,0,1.2v11c0,1.9,0,4.7-1.5,4.7
				h-1v0.9h0.8c1.2,0,2-0.3,3.8-0.2c0.4,0,0.7,0.1,1.1,0.1c0.9,0.1,1.8,0.1,2.7,0.2c1.1,0.1,2.1,0.1,3.2,0.1c1.6,0,2.6,0,3.6-5.1
				h-1.1c-0.9,3.6-2.8,3.9-5.7,3.9c-2.4,0-3.4-0.4-3.4-4.7v-5.4l2.1-0.1h2.1c1.7,0,2.1,1.2,1.8,3.1h0.9c-0.1-2.4,0.1-4.7,0.5-6.8
				h-0.9c-0.1,2.3-1.1,2.6-2.3,2.6l-2.1,0L102,112v-3.6c0-1.6,0.1-3.2,0.2-4.9h3.9c2.5,0,2.7,1.1,2.7,2.1c0,0.5-0.1,1.1-0.3,1.8h1.1
				c0.6-1.9,1-3.8,1.2-5.5c-2.7,0.2-4.4,0.2-7.1,0.2c-0.6,0-1.1,0-1.6,0c0.3-1.6,0.5-3.4,0.6-4.9c0.1-2.1,0.2-2.4,0.2-2.5
				c0,0,0.1-0.1,0.2-0.2c0,0,3-1.3,4.2-2.3c1.5-1.2,2.8-3.7,2.5-7c0-0.2,0.1-0.5,0.3-0.9c0.2-0.4,1.2-1,1.9-1.4l0.1-0.1
				c0.8-0.4,1.6-0.7,1.9-0.8c0,0,0,0,0,0c-0.5,1.1-0.9,2.9-1.1,3.6c0,0.2-0.2,0.9-0.2,1.1c0,0.1,0,0.3-0.1,0.4
				c-0.2,1.4-0.5,5.8,0.8,7.4c0.3,0.4,0.6,0.6,1,0.6c0,0,0.1,0,0.1,0C115.8,95.1,118.9,91.6,119.6,90z M122.4,81.9
				c0.6-1,1.3-2,2.3-2c0.2,0,0.4,0,0.6,0.1c1.1,0.5,0.9,5.7-0.1,8.3c-0.7,1.9-2.6,4.8-3.1,4.8c0,0,0,0,0,0c-0.5-0.1-0.9-1.7-1.1-4.3
				C120.9,86.2,121.7,83.1,122.4,81.9z M114.9,82.8c0.4-0.9,1.3-2.1,1.8-2.1c0,0,0,0,0,0c0.1,0,0.2,0.1,0.3,0.2
				c0.3,0.4,0.4,1.2,0.1,1.9c-0.8,2-2.7,2.3-2.8,2.4c0,0,0-0.1,0-0.1C114.2,85.1,114.3,84,114.9,82.8z M95.3,82.8
				c0.4-0.9,1.3-2.1,1.8-2.1c0,0,0,0,0,0c0.1,0,0.2,0.1,0.3,0.2c0.3,0.4,0.4,1.2,0.1,1.9c-0.8,2-2.7,2.3-2.8,2.4c0,0,0-0.1,0-0.1
				C94.6,85.1,94.8,84,95.3,82.8z M86,65.4c2.5-0.5,4.9-0.8,7.1-0.8c5,0,8.6,1.5,8.7,3.5c0,0.9-0.2,2.8-2,4.7
				c-1.9,1.9-5.2,3.4-9.5,4.4c0.2-0.7,0.3-1.5,0.4-2.3c0.1-3.6-2.6-6.7-7.5-8.5C84,65.9,85,65.7,86,65.4z M89.7,74.9
				c0,0.9-0.1,1.6-0.2,2.3c-0.2,0-0.3,0.1-0.5,0.1c-2.7,0.5-5.5,0.8-8.2,0.8c-2.6,0-5.3-0.2-7.9-0.7c1.3-5.1,4.2-8.6,8.9-10.6
				C86.7,68.3,89.7,71.4,89.7,74.9z M71.2,77.1L71.2,77.1c-2.1-0.4-3.8-0.8-5.1-1.2c-0.2,0-0.3-0.1-0.5-0.1
				c-1.9-0.5-5.2-2.1-5.9-4.2c-0.3-0.9-0.2-1.8,0.3-2.7c0.8-1.3,2.3-2.3,4.1-2.8c2.4-0.6,4.6-0.8,6.9-0.8c2.9,0,5.3,0.5,7.5,0.9
				c0.2,0,0.5,0.1,0.7,0.1c0.6,0.1,1.2,0.3,1.8,0.4c-5.1,2.1-8.4,5.5-9.8,10.1C71.3,76.8,71.2,77,71.2,77.1z M103.4,88.1
				c0.1-1.6,0.2-3.6,0.4-4.5c0.3-1.3,0.7-2.8,1.3-2.8c0,0,0.1,0,0.1,0c0.9,0,2.9,1.8,3.1,3.8c-0.4,0.4-1.9,1.8-2.4,2.4
				c-0.2,0.2-0.5,0.6-0.8,0.9c-0.7,0.7-1.4,1.6-1.5,1.6c-0.1,0.1-0.2,0.1-0.2,0C103.3,89.3,103.3,88.7,103.4,88.1z M106.2,92.2
				c-1.4,1.3-2.4,1.4-2.8,1.4c-0.2,0-0.3,0-0.5-0.1c-0.2-0.1-0.1-1.1-0.1-1.4c0.2-0.7,0.5-1.2,0.7-1.6c0-0.1,0.1-0.2,0.1-0.2
				c0.4-0.7,1.7-2.2,2.2-2.7c0.5-0.6,2.1-1.9,2.2-2c0,0,0.1,0,0.2,0C108.3,87.8,107.8,90.7,106.2,92.2z"/>
		</g>
	</g>
</g>
</svg>
