<svg xmlns="http://www.w3.org/2000/svg" xmlns:xlink="http://www.w3.org/1999/xlink" viewBox="3090 5679 80 73.523">
  <defs>
    <style>
      .cls-1 {
        fill: #3e4095;
      }

      .cls-1, .cls-2 {
        fill-rule: evenodd;
      }

      .cls-2 {
        fill: url(#linear-gradient);
      }
    </style>
    <linearGradient id="linear-gradient" y1="0.5" x2="1" y2="0.5" gradientUnits="objectBoundingBox">
      <stop offset="0" stop-color="#317cc0"/>
      <stop offset="1" stop-color="#01add8"/>
    </linearGradient>
  </defs>
  <g id="Group_39" data-name="Group 39" transform="translate(3090 5679)">
    <path id="Path_19" data-name="Path 19" class="cls-1" d="M33.413,37.412V9.382h8.409V20.594h-2.8V12.185h-2.8V34.609h2.8V26.2h2.8V37.412Zm11.212,0V9.382h8.409V37.412h-2.8V12.185h-2.8V37.412Zm16.819-2.8V23.4h-2.8V34.609Zm-5.607,2.8V9.382h8.409v2.8H58.641v8.409h5.606V34.609l-2.8,2.8H55.838Z" transform="translate(10.188 2.861)"/>
    <path id="Path_20" data-name="Path 20" class="cls-2" d="M32.074,49.573V2.968H37.53V9.544h2.8V2.968h8.408V9.544h2.8V2.968h8.409V9.544h2.8V2.968H68.1v46.6H62.758V43h-2.8v6.576H51.546V43h-2.8v6.576H40.334V43h-2.8v6.576ZM71.07,0H29.106V52.541h0l2.968,2.967,8.475,8.474,7.44,7.44,2.1,2.1,2.1-2.1,7.44-7.44L68.1,55.51l2.967-2.967h0v-4.2l0,0V2.968h.055V0Zm-4.2,52.541L55.429,63.984H44.747L33.3,52.541Z" transform="translate(8.875)"/>
    <path id="Path_21" data-name="Path 21" class="cls-1" d="M2.791,12.477v.137a1.668,1.668,0,0,1-.3,1.15,1.382,1.382,0,0,1-1.056.342,1.413,1.413,0,0,1-1.114-.372A1.962,1.962,0,0,1,0,12.454V11.041A1.979,1.979,0,0,1,.323,9.755a1.417,1.417,0,0,1,1.114-.372,1.345,1.345,0,0,1,1.017.349,1.332,1.332,0,0,1,.308.965v.224H1.829v-.137a1.09,1.09,0,0,0-.092-.534.323.323,0,0,0-.3-.178.408.408,0,0,0-.38.2,1.407,1.407,0,0,0-.117.663v1.414a2.2,2.2,0,0,0,.109.831.39.39,0,0,0,.388.234.345.345,0,0,0,.323-.2,1.3,1.3,0,0,0,.1-.6v-.137h.933ZM4.68,14.105a1.452,1.452,0,0,1-1.1-.35,1.784,1.784,0,0,1-.322-1.207V10.66A1.227,1.227,0,0,1,3.609,9.7,1.566,1.566,0,0,1,4.68,9.382,1.571,1.571,0,0,1,5.752,9.7a1.219,1.219,0,0,1,.358.959v1.888a1.784,1.784,0,0,1-.322,1.207,1.457,1.457,0,0,1-1.108.35Zm0-.689a.406.406,0,0,0,.382-.182,1.378,1.378,0,0,0,.108-.647V10.7a.743.743,0,0,0-.126-.468.434.434,0,0,0-.364-.161.432.432,0,0,0-.365.161.753.753,0,0,0-.122.468v1.889a1.381,1.381,0,0,0,.107.647.4.4,0,0,0,.38.182Zm3.46.689a1.451,1.451,0,0,1-1.1-.35,1.785,1.785,0,0,1-.322-1.207V10.66A1.226,1.226,0,0,1,7.069,9.7,1.565,1.565,0,0,1,8.14,9.382,1.573,1.573,0,0,1,9.212,9.7a1.219,1.219,0,0,1,.358.959v1.888a1.785,1.785,0,0,1-.322,1.207,1.459,1.459,0,0,1-1.108.35Zm0-.689a.405.405,0,0,0,.382-.182,1.378,1.378,0,0,0,.108-.647V10.7a.746.746,0,0,0-.125-.468.494.494,0,0,0-.729,0,.753.753,0,0,0-.122.468v1.889a1.381,1.381,0,0,0,.106.647.4.4,0,0,0,.38.182Zm2.047.62V9.451h2.528v.683H11.125V11.2h.332a1.922,1.922,0,0,1,1.213.279,1.358,1.358,0,0,1,.323,1.053,1.646,1.646,0,0,1-.325,1.194,1.88,1.88,0,0,1-1.261.307H10.187Zm.938-2.145v1.457h.309a.7.7,0,0,0,.536-.155,1,1,0,0,0,.133-.617.83.83,0,0,0-.13-.54.646.646,0,0,0-.49-.145Zm2.427,2.145h0V9.451h.94v3.9h.893v-3.9h.94v3.9h.893v-3.9h.94v3.9h.461v1.64h-.938v-.958Zm5.281,0h0V9.451h2.291v.683H19.772v1.212h1.306v.682H19.772v1.326H21.15v.682H18.833Zm5.57-1.56v.137a1.668,1.668,0,0,1-.3,1.15,1.382,1.382,0,0,1-1.057.342,1.412,1.412,0,0,1-1.113-.372,1.962,1.962,0,0,1-.323-1.278V11.041a1.978,1.978,0,0,1,.323-1.287,1.416,1.416,0,0,1,1.113-.372,1.346,1.346,0,0,1,1.017.349,1.332,1.332,0,0,1,.308.965v.224h-.933v-.137a1.09,1.09,0,0,0-.092-.534.323.323,0,0,0-.3-.178.407.407,0,0,0-.38.2,1.4,1.4,0,0,0-.117.663v1.414a2.2,2.2,0,0,0,.109.831.39.39,0,0,0,.388.234.345.345,0,0,0,.323-.2,1.3,1.3,0,0,0,.1-.6v-.137H24.4Zm1.235,1.56v-3.9H24.65V9.451h2.913v.683h-.985v3.9h-.94Zm2.334,0V9.451H29.36a1.683,1.683,0,0,1,1.075.251,1.216,1.216,0,0,1,.286.939V10.55a1.16,1.16,0,0,1-.307.942,1.223,1.223,0,0,1-.583.2h0a1.382,1.382,0,0,1,.628.211,1.1,1.1,0,0,1,.322.92V12.73a1.355,1.355,0,0,1-.307,1.038,1.89,1.89,0,0,1-1.19.268h-1.31Zm.939-3.9v1.216h.19a.8.8,0,0,0,.553-.139.8.8,0,0,0,.138-.551v.092a.679.679,0,0,0-.134-.489.736.736,0,0,0-.5-.129Zm0,1.9v1.3h.3a.66.66,0,0,0,.507-.147.944.944,0,0,0,.127-.588v.094a.778.778,0,0,0-.129-.536.815.815,0,0,0-.55-.127Zm3.812,2.06a1.452,1.452,0,0,1-1.1-.35,1.784,1.784,0,0,1-.322-1.207V10.66a1.227,1.227,0,0,1,.355-.959,1.962,1.962,0,0,1,2.143,0,1.219,1.219,0,0,1,.358.959v1.888a1.784,1.784,0,0,1-.322,1.207,1.457,1.457,0,0,1-1.108.35Zm0-.689a.406.406,0,0,0,.382-.182,1.378,1.378,0,0,0,.108-.647V10.7a.746.746,0,0,0-.126-.468.494.494,0,0,0-.729,0,.753.753,0,0,0-.122.468v1.889a1.381,1.381,0,0,0,.107.647.4.4,0,0,0,.38.182ZM6.192,20.084h-.94V15.5H8.024v4.586h-.94v-3.9H6.192v3.9Zm3.761,0H8.712V15.5h.77v2.779c0,.217,0,.458-.01.725s-.013.435-.022.507h0q.013-.118.082-.511c.048-.264.092-.5.136-.7l.575-2.8h1.241v4.586h-.769V17.306c0-.221,0-.465.009-.731s.013-.434.022-.5h0c-.009.077-.035.248-.082.511s-.092.5-.136.7l-.575,2.8Zm2.95,0v-3.9h-.988V15.5h2.913v.683h-.985v3.9H12.9Zm2.35,0h0V15.5h2.291v.683H16.191v1.212H17.5v.682H16.191V19.4h1.379v.682H15.252Zm2.815,0V15.5h1.391a1.5,1.5,0,0,1,1.067.312,1.431,1.431,0,0,1,.317,1.044,1.486,1.486,0,0,1-.321,1.116,1.947,1.947,0,0,1-1.248.287h-.266v1.827h-.94Zm.94-2.516h.266a.679.679,0,0,0,.5-.14.878.878,0,0,0,.127-.562.81.81,0,0,0-.132-.536.667.667,0,0,0-.5-.142h-.266v1.38Zm5.03.955v.137a1.665,1.665,0,0,1-.3,1.15,1.381,1.381,0,0,1-1.056.342,1.414,1.414,0,0,1-1.114-.372,1.962,1.962,0,0,1-.323-1.278V17.088a1.978,1.978,0,0,1,.323-1.287,1.417,1.417,0,0,1,1.114-.373,1.346,1.346,0,0,1,1.017.349,1.332,1.332,0,0,1,.309.965v.224h-.933V16.83a1.1,1.1,0,0,0-.092-.534.323.323,0,0,0-.3-.178.407.407,0,0,0-.38.2,1.408,1.408,0,0,0-.117.663V18.4a2.208,2.208,0,0,0,.109.831.39.39,0,0,0,.388.234.345.345,0,0,0,.323-.2,1.306,1.306,0,0,0,.1-.6v-.137h.933Zm.513,1.56V15.5h.94v1.745h0a1.037,1.037,0,0,0,.6-.15.605.605,0,0,0,.2-.492l.007-.186a1.006,1.006,0,0,1,.247-.7.987.987,0,0,1,.705-.217h.2v.788h-.1a.193.193,0,0,0-.168.077.446.446,0,0,0-.063.238l0,.129a.738.738,0,0,1-.537.832h0a.916.916,0,0,1,.728,1.008l.072.779c.014.172.034.312.054.421a2.559,2.559,0,0,0,.079.311H26.6a2.26,2.26,0,0,1-.079-.3c-.019-.1-.037-.231-.052-.385l-.064-.7a.908.908,0,0,0-.212-.576.759.759,0,0,0-.546-.172h-.158v2.132h-.94Zm4.569,0H27.878V15.5h.771v2.779c0,.217,0,.458-.01.725s-.014.435-.022.507h0q.013-.118.082-.511c.048-.264.092-.5.136-.7l.575-2.8h1.242v4.586h-.769V17.306c0-.221,0-.465.009-.731s.014-.434.023-.5h0c-.009.077-.035.248-.082.511s-.092.5-.135.7l-.576,2.8Zm1.982,0L32.163,17.7h0L31.2,15.5h.961l.6,1.515h0L33.37,15.5h.9l-.99,2.249h0l1.036,2.337H33.4l-.685-1.609h0l-.711,1.609H31.1ZM8.742,26.131V21.545H11.27v.683H9.681V23.3h.332a1.922,1.922,0,0,1,1.213.279,1.357,1.357,0,0,1,.323,1.053,1.645,1.645,0,0,1-.325,1.194,1.88,1.88,0,0,1-1.261.307H8.742Zm.939-2.145v1.457h.308a.7.7,0,0,0,.536-.155,1,1,0,0,0,.133-.617.829.829,0,0,0-.13-.54.646.646,0,0,0-.49-.145Zm4.259-1.757h-.752v2.737a1.345,1.345,0,0,1-.276.944,1.18,1.18,0,0,1-.892.29h-.163v-.79h.088a.26.26,0,0,0,.231-.1.621.621,0,0,0,.072-.34h0V21.545H14.88v4.586h-.94v-3.9ZM16.956,26.2a1.449,1.449,0,0,1-1.1-.35,1.783,1.783,0,0,1-.322-1.207V22.754a1.225,1.225,0,0,1,.355-.959,1.564,1.564,0,0,1,1.071-.319,1.572,1.572,0,0,1,1.072.319,1.219,1.219,0,0,1,.358.959v1.889a1.784,1.784,0,0,1-.322,1.207,1.457,1.457,0,0,1-1.108.35Zm0-.689a.4.4,0,0,0,.382-.182,1.378,1.378,0,0,0,.108-.647V22.793a.743.743,0,0,0-.126-.468.494.494,0,0,0-.729,0,.752.752,0,0,0-.122.468v1.889a1.381,1.381,0,0,0,.106.647.4.4,0,0,0,.38.182Zm3.015.62h-.94V21.545h2.36v.683H19.97v3.9Zm1.956,0h0V21.545h2.291v.683H22.865V23.44h1.306v.682H22.865v1.327h1.378v.682H21.926Zm2.815,0V21.545h1.39a1.5,1.5,0,0,1,1.067.312,1.43,1.43,0,0,1,.317,1.044,1.484,1.484,0,0,1-.321,1.116,1.944,1.944,0,0,1-1.248.287h-.266v1.827h-.94Zm.94-2.516h.266a.68.68,0,0,0,.5-.14.878.878,0,0,0,.127-.562.81.81,0,0,0-.132-.536.668.668,0,0,0-.5-.142h-.266v1.38Zm3.7,2.584a1.45,1.45,0,0,1-1.1-.35,1.783,1.783,0,0,1-.322-1.207V22.754a1.226,1.226,0,0,1,.355-.959,1.96,1.96,0,0,1,2.143,0,1.218,1.218,0,0,1,.358.959v1.889a1.783,1.783,0,0,1-.322,1.207,1.456,1.456,0,0,1-1.108.35Zm0-.689a.405.405,0,0,0,.382-.182,1.378,1.378,0,0,0,.108-.647V22.793a.743.743,0,0,0-.126-.468.494.494,0,0,0-.729,0,.753.753,0,0,0-.122.468v1.889a1.38,1.38,0,0,0,.107.647.4.4,0,0,0,.38.182Zm2.047.62V21.545h1.387a1.68,1.68,0,0,1,1.074.251,1.215,1.215,0,0,1,.286.938v-.091a1.16,1.16,0,0,1-.307.942,1.223,1.223,0,0,1-.583.2h0a1.38,1.38,0,0,1,.628.211,1.1,1.1,0,0,1,.322.919v-.094a1.354,1.354,0,0,1-.307,1.038,1.889,1.889,0,0,1-1.19.268h-1.31Zm.939-3.9v1.216h.189a.554.554,0,0,0,.691-.69v.092a.678.678,0,0,0-.135-.489.736.736,0,0,0-.5-.129h-.241Zm0,1.9v1.3h.295a.663.663,0,0,0,.507-.147.948.948,0,0,0,.126-.588V24.8a.778.778,0,0,0-.129-.536.814.814,0,0,0-.549-.127Z" transform="translate(0 2.861)"/>
  </g>
</svg>
