<svg id="Layer_1" data-name="Layer 1" xmlns="http://www.w3.org/2000/svg" xmlns:xlink="http://www.w3.org/1999/xlink" viewBox="0 0 236.04535 80.91931">
  <defs>
    <style>
      .cls-1 {
        fill: none;
      }

      .cls-2 {
        fill: #502b1c;
      }

      .cls-3 {
        clip-path: url(#clip-path);
      }
    </style>
    <clipPath id="clip-path" transform="translate(-0.10425 0.38809)">
      <rect class="cls-1" x="0.104" y="-0.388" width="236.04602" height="80.91901"/>
    </clipPath>
  </defs>
  <title>d2g</title>
  <rect class="cls-2" x="101.08673" y="23.33609" width="8.85199" height="37.31201"/>
  <g class="cls-3">
    <path class="cls-2" d="M52.78455,36.57611a8.90941,8.90941,0,0,1,8.72406-6.734c4.272,0,7.357,2.492,8.442,6.734Zm8.72406-14.684c-11.231,0-18.207,7.669-18.207,20.013,0,11.516,7.549,19.56,18.357,19.56,7.424,0,13.07-3.466,16.783-10.305l.464-.852-7.188-3.294c-2.704,4.452-5.69,6.352-9.985,6.352-5.721,0-9.045-4.768-9.52-9.595h26.822v-2.092c0-12.206-6.71594-19.787-17.52594-19.787" transform="translate(-0.10425 0.38809)"/>
    <path class="cls-2" d="M29.47028,41.60291c0,5.854-3.217,11.763-10.408,11.763-6.635,0-10.106-5.917-10.106-11.763,0-5.771,3.471-11.613,10.106-11.613,7.191,0,10.408,5.832,10.408,11.613m-.375-14.58a15.10248,15.10248,0,0,0-11.389-5.131c-11.434,0-17.602,10.039-17.602,19.487,0,9.675,5.602,20.087,17.904,20.087a15.099,15.099,0,0,0,11.087-4.97v3.764h8.85V1.83691h-8.85Z" transform="translate(-0.10425 0.38809)"/>
    <rect class="cls-2" x="85.04974" y="2.09909" width="8.85199" height="58.422"/>
    <path class="cls-2" d="M105.61682,16.502a5.67475,5.67475,0,0,0,5.705-5.632,5.706,5.706,0,1,0-11.411,0,5.67566,5.67566,0,0,0,5.70605,5.632" transform="translate(-0.10425 0.38809)"/>
    <path class="cls-2" d="M142.19781,37.32291c5.099-5.566,10.878-11.875,10.879-19.832a17.88233,17.88233,0,0,0-18.264-17.879,20.24554,20.24554,0,0,0-14.437,6.461c-2.946,3.421-3.659,7.087-3.825,11.54l-.031.845h5.388l-.024-.839a12.35036,12.35036,0,0,1,3.39-9.075,13.55595,13.55595,0,0,1,18.657-.212,12.24506,12.24506,0,0,1,3.812,8.925c0,6.164-5.718,12.46-9.893,17.058l-23.563,25.909h38.555v-5.1h-26.628l15.683-17.472Z" transform="translate(-0.10425 0.38809)"/>
    <path class="cls-2" d="M187.37067,27.82022a16.31234,16.31234,0,0,0-12.774-5.665c-10.587,0-18.571,8.317-18.571,19.345a20.46795,20.46795,0,0,0,4.971,13.617,17.29879,17.29879,0,0,0,13.137,5.881,18.52746,18.52746,0,0,0,13.236-5.718v2.355c0,5.165-.515,9.361-3.021,13.049-2.223,3.209-6.044,4.975-10.756,4.975-7.196,0-12.666-4.74-13.006-11.27l-.04-.773h-5.11l.048.86c.531,9.603,7.933,16.055,18.419,16.055a18.05415,18.05415,0,0,0,14.864-7.21c3.431-4.754,3.704-9.673,3.705-15.609v-34.782h-5.10205Zm.23206,13.141c0,7.549-4.093,15.166-13.23706,15.166-8.599,0-13.238-7.616-13.238-14.782,0-6.887,4.973-14.32,13.007-14.32,7.93,0,13.468,5.73,13.468,13.936" transform="translate(-0.10425 0.38809)"/>
    <path class="cls-2" d="M216.57361,22.15552a19.42261,19.42261,0,1,0,19.576,19.424,19.44427,19.44427,0,0,0-19.576-19.424m14.471,19.499a14.43463,14.43463,0,0,1-14.704,14.473,14.26265,14.26265,0,0,1-14.008-14.473c0-8.066,6.285-14.629,14.009-14.629a14.34436,14.34436,0,0,1,14.703,14.629" transform="translate(-0.10425 0.38809)"/>
  </g>
</svg>
