<svg xmlns="http://www.w3.org/2000/svg" xmlns:xlink="http://www.w3.org/1999/xlink" viewBox="3453 5859 74.603 72.209">
  <defs>
    <style>
      .cls-1 {
        clip-path: url(#clip-path);
      }

      .cls-2 {
        clip-path: url(#clip-path-2);
      }

      .cls-3 {
        fill: #a82924;
      }

      .cls-4 {
        clip-path: url(#clip-path-3);
      }

      .cls-5 {
        clip-path: url(#clip-path-4);
      }

      .cls-6 {
        fill: #2e2d2e;
      }

      .cls-7 {
        clip-path: url(#clip-path-5);
      }

      .cls-8 {
        clip-path: url(#clip-path-6);
      }

      .cls-9 {
        fill: #19191a;
      }

      .cls-10 {
        clip-path: url(#clip-path-7);
      }

      .cls-11 {
        clip-path: url(#clip-path-8);
      }

      .cls-12 {
        fill: #cecccb;
      }

      .cls-13 {
        clip-path: url(#clip-path-9);
      }

      .cls-14 {
        clip-path: url(#clip-path-10);
      }

      .cls-15 {
        fill: #4f5052;
      }

      .cls-16 {
        clip-path: url(#clip-path-11);
      }

      .cls-17 {
        clip-path: url(#clip-path-12);
      }

      .cls-18 {
        fill: #767779;
      }

      .cls-19 {
        clip-path: url(#clip-path-13);
      }

      .cls-20 {
        clip-path: url(#clip-path-14);
      }

      .cls-21 {
        fill: #010101;
      }

      .cls-22 {
        clip-path: url(#clip-path-15);
      }

      .cls-23 {
        clip-path: url(#clip-path-16);
      }
    </style>
    <clipPath id="clip-path">
      <path id="Path_94" data-name="Path 94" d="M436.357,6315.074v10.182c-8.1,0-12.352,0-12.679.085a3.4,3.4,0,0,0-2.945,2.206,3.886,3.886,0,0,0,.245,3.309c.491,1.019,1.8,1.527,3.681,1.527v-4.073h11.861v15.273H424.169c-6.871,0-11.616-3.14-14.07-9.418a15.859,15.859,0,0,1,1.309-12.389,13.872,13.872,0,0,1,11.289-6.7Zm.245,34.959h-4.826v.849H436.6v3.224h-4.826v.934H436.6v3.309h-9v-11.54h9.08v3.225Zm-14.315-3.225a3.4,3.4,0,0,1,2.863,3.394,3.053,3.053,0,0,1-1.8,2.97,6.846,6.846,0,0,1,1.391,2.036l1.472,3.14h-4.744l-1.145-2.885a.819.819,0,0,0-.573-.679H419.1v3.564h-4.254v-11.54ZM393.9,6323.134a12.6,12.6,0,0,0,12.025,0V6343.5H393.9Zm-4.335-1.018c.245,3.479-.818,6.024-3.354,7.637,2.7,1.1,4.09,3.225,4.008,6.534-.327,4.412-2.863,6.873-7.689,7.382h-20.45v-28h16.606C385.15,6315.413,388.749,6317.534,389.567,6322.116Zm-15.624,9.334v6.024c3.027.169,4.581-.849,4.5-3.055C378.442,6332.214,376.888,6331.2,373.943,6331.45Zm0-10.183v5.516c3.027.169,4.5-.764,4.417-2.885C378.2,6321.777,376.724,6320.928,373.943,6321.268Zm-1.8,30.886a3.386,3.386,0,0,1-2.7,2.546,12.1,12.1,0,0,1-3.108.169v3.394h-4.172v-11.455h6.053c1.881.085,3.108.764,3.681,1.952A4.883,4.883,0,0,1,372.143,6352.154Zm5.808-5.346v11.54h-4.172v-11.54Zm24.295,0H406.5v7.212q1.227,1.528,2.454,0v-7.212h4.254v7.722a4.767,4.767,0,0,1-4.417,3.988,21.388,21.388,0,0,1-2.29-.085,4.58,4.58,0,0,1-4.335-4.243v-7.382Zm-1.554,0v3.649h-2.945v7.891h-4.172v-7.891h-3.027v-3.649Zm18.487,2.97v1.7h1.063a.884.884,0,0,0,.736-.764.9.9,0,0,0-.736-.933Zm-51.044,1.1a.77.77,0,0,0-.736-.849h-1.063v1.7H367.4A.9.9,0,0,0,368.135,6350.881Zm16.851-4.328a11.009,11.009,0,0,1,4.09.254l-.409,3.649a5.2,5.2,0,0,0-2.536-.085,2.4,2.4,0,0,0-2.045,1.867,2.906,2.906,0,0,0,0,1.188,2.37,2.37,0,0,0,1.881,1.612,6.414,6.414,0,0,0,2.618-.255l.409,3.31a11.444,11.444,0,0,1-2.372.339h-1.881a5.735,5.735,0,0,1-3.6-1.612,6.072,6.072,0,0,1-1.472-3.394,4.262,4.262,0,0,1,0-1.442,6.336,6.336,0,0,1,5.317-5.431Z"/>
    </clipPath>
    <clipPath id="clip-path-2">
      <rect id="Rectangle_29" data-name="Rectangle 29" width="1920" height="6860" transform="translate(-357.082 -6310.074)"/>
    </clipPath>
    <clipPath id="clip-path-3">
      <path id="Path_95" data-name="Path 95" d="M406.5,6303.364l-.245-.254a8.857,8.857,0,0,0-12.925,0,9.673,9.673,0,0,0,0,13.407,8.858,8.858,0,0,0,12.925,0,9.272,9.272,0,0,0,2.7-6.7,10.336,10.336,0,0,0-.9-4.242A13.348,13.348,0,0,0,406.5,6303.364Zm4.172,6.449a10.977,10.977,0,0,1-3.19,7.892,10.2,10.2,0,0,1-7.607,3.309,9.954,9.954,0,0,1-7.607-3.309,10.977,10.977,0,0,1-3.19-7.892,10.7,10.7,0,0,1,3.19-7.891,10.2,10.2,0,0,1,7.607-3.309,9.954,9.954,0,0,1,7.607,3.309A10.7,10.7,0,0,1,410.672,6309.813Z"/>
    </clipPath>
    <clipPath id="clip-path-4">
      <rect id="Rectangle_31" data-name="Rectangle 31" width="1920" height="6860" transform="translate(-384.076 -6293.612)"/>
    </clipPath>
    <clipPath id="clip-path-5">
      <path id="Path_96" data-name="Path 96" d="M406.5,6303.364l-.9.679,1.472,2.206.982-.679a10.046,10.046,0,0,1,.9,4.242,9.272,9.272,0,0,1-2.7,6.7,8.858,8.858,0,0,1-12.925,0,9.673,9.673,0,0,1,0-13.407,8.857,8.857,0,0,1,12.925,0Zm-.982,6.534a5.677,5.677,0,0,0-1.636-4.073,5.39,5.39,0,0,0-7.853,0,5.888,5.888,0,0,0,0,8.146,5.391,5.391,0,0,0,7.853,0A5.977,5.977,0,0,0,405.518,6309.9Zm-12.188-5.77a8.579,8.579,0,0,0-1.881,3.649l1.063.594c.245-.594.409-1.1.654-1.612l-.491-.424a5.818,5.818,0,0,1,1.227-1.782Zm2.863,13.407a7.746,7.746,0,0,0,7.444-.254v-.594a7.744,7.744,0,0,1-7.444.255Z"/>
    </clipPath>
    <clipPath id="clip-path-6">
      <rect id="Rectangle_33" data-name="Rectangle 33" width="1920" height="6860" transform="translate(-385.63 -6295.309)"/>
    </clipPath>
    <clipPath id="clip-path-7">
      <path id="Path_97" data-name="Path 97" d="M407.972,6305.57l-.982.679-1.472-2.206.9-.679A7.732,7.732,0,0,1,407.972,6305.57Zm-11.779,11.964v-.594a7.744,7.744,0,0,0,7.444-.255v.594A7.323,7.323,0,0,1,396.193,6317.534Zm-2.863-13.407.573.509a11.591,11.591,0,0,0-1.227,1.782l.491.424a9.4,9.4,0,0,0-.654,1.612l-1.063-.679A8.118,8.118,0,0,1,393.33,6304.127Z"/>
    </clipPath>
    <clipPath id="clip-path-8">
      <rect id="Rectangle_35" data-name="Rectangle 35" width="1920" height="6860" transform="translate(-386.448 -6298.364)"/>
    </clipPath>
    <clipPath id="clip-path-9">
      <path id="Path_98" data-name="Path 98" d="M410.672,6309.813a10.7,10.7,0,0,0-3.19-7.891,10.2,10.2,0,0,0-7.607-3.309,9.954,9.954,0,0,0-7.607,3.309,11.355,11.355,0,0,0,0,15.783,10.2,10.2,0,0,0,7.607,3.309,9.954,9.954,0,0,0,7.607-3.309A10.977,10.977,0,0,0,410.672,6309.813Zm1.391-.084a12.408,12.408,0,0,1-3.6,8.909,11.933,11.933,0,0,1-17.178,0,13.042,13.042,0,0,1,0-17.819,11.747,11.747,0,0,1,17.178,0A12.083,12.083,0,0,1,412.062,6309.728Z"/>
    </clipPath>
    <clipPath id="clip-path-10">
      <rect id="Rectangle_37" data-name="Rectangle 37" width="1920" height="6860" transform="translate(-382.767 -6292.085)"/>
    </clipPath>
    <clipPath id="clip-path-11">
      <path id="Path_99" data-name="Path 99" d="M403.473,6309.9a3.5,3.5,0,0,0-5.971-2.545,3.792,3.792,0,0,0,0,5.091,3.345,3.345,0,0,0,2.454,1.1,3.06,3.06,0,0,0,2.454-1.1A3.284,3.284,0,0,0,403.473,6309.9Zm.9,0a4.379,4.379,0,0,1-1.309,3.225,4.245,4.245,0,0,1-3.19,1.357,3.955,3.955,0,0,1-3.108-1.357,4.516,4.516,0,0,1-1.309-3.225,4.57,4.57,0,0,1,1.309-3.309,4.072,4.072,0,0,1,3.108-1.358,4.244,4.244,0,0,1,3.19,1.358,4.57,4.57,0,0,1,1.309,3.309,4.57,4.57,0,0,0-1.309-3.309,4.244,4.244,0,0,0-3.19-1.358,3.954,3.954,0,0,0-3.108,1.358,4.775,4.775,0,0,0-1.309,3.309,4.379,4.379,0,0,0,1.309,3.225,4.073,4.073,0,0,0,3.108,1.357,4.552,4.552,0,0,0,4.5-4.582Zm1.145,0a5.679,5.679,0,0,1-1.636,4.073,5.391,5.391,0,0,1-7.853,0,5.888,5.888,0,0,1,0-8.146,5.39,5.39,0,0,1,7.853,0A5.677,5.677,0,0,1,405.518,6309.9Z"/>
    </clipPath>
    <clipPath id="clip-path-12">
      <rect id="Rectangle_39" data-name="Rectangle 39" width="1920" height="6860" transform="translate(-389.393 -6299.127)"/>
    </clipPath>
    <clipPath id="clip-path-13">
      <path id="Path_100" data-name="Path 100" d="M402.164,6308.794a1.112,1.112,0,0,0-.327-.849.983.983,0,0,0-.736-.339,1.031,1.031,0,0,0-.818.339,1.112,1.112,0,0,0-.327.849.839.839,0,0,0,.327.764,1.031,1.031,0,0,0,.818.339.787.787,0,0,0,.736-.339A1.055,1.055,0,0,0,402.164,6308.794Zm1.309,1.1a3.284,3.284,0,0,1-1.063,2.546,3.345,3.345,0,0,1-2.454,1.1,3.061,3.061,0,0,1-2.454-1.1,3.792,3.792,0,0,1,0-5.091,3.518,3.518,0,0,1,5.971,2.545Z"/>
    </clipPath>
    <clipPath id="clip-path-14">
      <rect id="Rectangle_41" data-name="Rectangle 41" width="1920" height="6860" transform="translate(-391.52 -6301.334)"/>
    </clipPath>
    <clipPath id="clip-path-15">
      <path id="Path_101" data-name="Path 101" d="M434.721,6365.646l-.573-1.867a1.113,1.113,0,0,1-.082-.509c0,.17-.082.339-.082.509l-.573,1.867Zm1.963,2.121h-1.309l-.409-1.187h-1.881l-.409,1.188h-1.309l1.881-5.43H434.8Zm-7.117,0h-1.145v-4.412h-2.209v4.412h-1.227v-5.43h4.5v5.43Zm-7.035,0h-1.145v-4.412h-2.209v4.412h-1.145v-5.43h4.5Zm-6.38-5.43-1.636,3.733a4.226,4.226,0,0,1-.9,1.442,1.473,1.473,0,0,1-1.063.339,1.54,1.54,0,0,1-.654-.085v-1.1a.857.857,0,0,0,.654.17c.327,0,.573-.254.818-.764l-1.8-3.733h1.309l.9,2.206a.789.789,0,0,1,.082.424c0-.17.082-.255.164-.424l.818-2.206Zm-8.671.933v1.7h.491c.654,0,.982-.255.982-.849s-.327-.849-.982-.849Zm0,2.63v1.867h-1.145v-5.43h1.881c1.309,0,1.963.594,1.963,1.7a1.718,1.718,0,0,1-.573,1.358,2.3,2.3,0,0,1-1.554.509Zm-3.19-2.545h-1.963v4.412h-1.145v-5.43h3.108Zm-5.481,2.8h-1.963v-.849h1.963Zm-5.808-.509-.573-1.867a1.113,1.113,0,0,1-.082-.509c0,.17-.082.339-.082.509l-.573,1.867Zm1.881,2.121h-1.309l-.327-1.187h-1.881l-.409,1.188h-1.309l1.881-5.43h1.554Zm-7.035,0H386.7v-3.818a1.878,1.878,0,0,0-.245.424l-2.127,3.394H383.1v-5.43h1.145v3.733a4.423,4.423,0,0,1,.245-.424l2.045-3.309h1.227v5.43Zm-8.835-1.018v-3.394h-.9a6.559,6.559,0,0,1-.245,1.7,10.243,10.243,0,0,1-.573,1.7Zm1.963,2.545h-1.063v-1.442h-3.354v1.442H375.5v-2.46h.491a10.587,10.587,0,0,0,1.145-4.413h3.027v4.413h.736v2.46Zm-7.28-1.527h-3.108v-5.43h3.027v1.018h-1.881v1.188h1.718v1.018h-1.718v1.273H373.7Zm-5.644,0h-1.145v-3.224a6.231,6.231,0,0,1,.082-1.188,5.6,5.6,0,0,1-.164.764l-1.227,3.733h-1.063l-1.227-3.648c0-.085-.082-.339-.164-.764,0,.509.082,1.018.082,1.442v2.97h-1.145v-5.515H363.8l1.063,3.224a2.56,2.56,0,0,1,.164.764,1.4,1.4,0,0,0,.245-.764l1.145-3.224h1.718v5.43Z"/>
    </clipPath>
    <clipPath id="clip-path-16">
      <rect id="Rectangle_43" data-name="Rectangle 43" width="1920" height="6860" transform="translate(-357.082 -6357.336)"/>
    </clipPath>
  </defs>
  <g id="Group_76" data-name="Group 76" transform="translate(3090.918 -438.085)">
    <g id="Group_78" data-name="Group 78">
      <g id="Group_77" data-name="Group 77" class="cls-1">
        <g id="Group_76-2" data-name="Group 76" class="cls-2" transform="translate(357.082 6310.074)">
          <rect id="Rectangle_28" data-name="Rectangle 28" class="cls-3" width="84.602" height="53.444"/>
        </g>
      </g>
    </g>
    <g id="Group_81" data-name="Group 81">
      <g id="Group_80" data-name="Group 80" class="cls-4">
        <g id="Group_79" data-name="Group 79" class="cls-5" transform="translate(384.076 6293.612)">
          <rect id="Rectangle_30" data-name="Rectangle 30" class="cls-6" width="31.595" height="32.401"/>
        </g>
      </g>
    </g>
    <g id="Group_84" data-name="Group 84">
      <g id="Group_83" data-name="Group 83" class="cls-7">
        <g id="Group_82" data-name="Group 82" class="cls-8" transform="translate(385.63 6295.309)">
          <rect id="Rectangle_32" data-name="Rectangle 32" class="cls-9" width="28.323" height="29.007"/>
        </g>
      </g>
    </g>
    <g id="Group_87" data-name="Group 87">
      <g id="Group_86" data-name="Group 86" class="cls-10">
        <g id="Group_85" data-name="Group 85" class="cls-11" transform="translate(386.448 6298.364)">
          <rect id="Rectangle_34" data-name="Rectangle 34" class="cls-12" width="26.524" height="25.065"/>
        </g>
      </g>
    </g>
    <g id="Group_90" data-name="Group 90">
      <g id="Group_89" data-name="Group 89" class="cls-13">
        <g id="Group_88" data-name="Group 88" class="cls-14" transform="translate(382.767 6292.085)">
          <rect id="Rectangle_36" data-name="Rectangle 36" class="cls-15" width="34.295" height="35.201"/>
        </g>
      </g>
    </g>
    <g id="Group_93" data-name="Group 93">
      <g id="Group_92" data-name="Group 92" class="cls-16">
        <g id="Group_91" data-name="Group 91" class="cls-17" transform="translate(389.393 6299.127)">
          <rect id="Rectangle_38" data-name="Rectangle 38" class="cls-18" width="21.125" height="21.54"/>
        </g>
      </g>
    </g>
    <g id="Group_96" data-name="Group 96">
      <g id="Group_95" data-name="Group 95" class="cls-19">
        <g id="Group_94" data-name="Group 94" class="cls-20" transform="translate(391.52 6301.334)">
          <rect id="Rectangle_40" data-name="Rectangle 40" class="cls-21" width="16.953" height="17.212"/>
        </g>
      </g>
    </g>
    <g id="Group_99" data-name="Group 99">
      <g id="Group_98" data-name="Group 98" class="cls-22">
        <g id="Group_97" data-name="Group 97" class="cls-23" transform="translate(357.082 6357.336)">
          <rect id="Rectangle_42" data-name="Rectangle 42" class="cls-3" width="84.602" height="16.958"/>
        </g>
      </g>
    </g>
  </g>
</svg>
