<svg xmlns="http://www.w3.org/2000/svg" viewBox="3032 5886 196.711 38.625">
  <defs>
    <style>
      .cls-1, .cls-2 {
        fill: #00964c;
      }

      .cls-2 {
        fill-rule: evenodd;
      }
    </style>
  </defs>
  <g id="Group_71" data-name="Group 71" transform="translate(3032 5886)">
    <g id="Group_75" data-name="Group 75">
      <g id="Group_74" data-name="Group 74">
        <g id="Group_73" data-name="Group 73">
          <g id="Group_72" data-name="Group 72">
            <g id="Group_71-2" data-name="Group 71">
              <path id="Path_91" data-name="Path 91" class="cls-1" d="M29.179.26C29.042.24,28.9.221,28.764.2V20.123a1.611,1.611,0,0,1-1.611,1.61H24.69a.211.211,0,0,0-.214.213V38.591c.142.013.285.027.43.037.488.035.984.056,1.483.056A19.314,19.314,0,0,0,29.179.26Zm-.912,29.373a2.307,2.307,0,1,1,2.307-2.3A2.305,2.305,0,0,1,28.267,29.633Zm5.67,0a2.307,2.307,0,1,1,2.306-2.3A2.308,2.308,0,0,1,33.936,29.633Zm5.665,0a2.307,2.307,0,1,1,2.308-2.3A2.306,2.306,0,0,1,39.6,29.633Z" transform="translate(-7.076 -0.059)"/>
              <path id="Path_92" data-name="Path 92" class="cls-1" d="M19.313,19.1V0c-.142,0-.288,0-.429.007a19.314,19.314,0,0,0-4.275,38.041c.143.035.284.072.43.1l0-17.231a1.611,1.611,0,0,1,1.61-1.611H19.1A.214.214,0,0,0,19.313,19.1Zm-3.793-3.052a2.307,2.307,0,1,1,2.309-2.3A2.309,2.309,0,0,1,15.521,16.047Z"/>
            </g>
            <path id="Path_93" data-name="Path 93" class="cls-2" d="M218.892,32.711V16.265h-3.818v6.227h-8.248V16.265h-3.82V32.711h3.82V26.064h8.248v6.647Zm-99.123,0V29.242H109.9c-.271,0-.314-.146-.314-.391v-2.9h9.948V22.6H109.59V20.18c0-.243.043-.442.314-.442h9.866V16.265H108.077c-1.392,0-2.3.983-2.3,2.67V30.044c0,1.687.91,2.667,2.3,2.667Zm7.9-12.973c-.267,0-.313.2-.313.442V32.711h-3.817V18.936c0-1.687.909-2.67,2.3-2.67h11.7v3.473h-9.871ZM150.1,32.711h4.191L147.846,18.1a3.466,3.466,0,0,0-6.475,0l-6.44,14.611h4.189l1.405-3.469h8.163Zm-8.236-6.764,2.418-5.969c.112-.272.212-.324.328-.324s.217.052.329.324l2.417,5.969Zm26.574-8.8h1.691c3.61,0,4.554,1.547,4.554,4.995s-.945,4.994-4.554,4.994h-1.691Zm0,15.568V30.6h1.713c5.952,0,8.372-2.8,8.372-8.473,0-5.765-2.365-8.452-8.336-8.452h-7.431c-5.973,0-8.338,2.687-8.338,8.452,0,5.671,2.419,8.473,8.372,8.473H164.5v2.107Zm-3.935-5.58h-1.688c-3.611,0-4.559-1.548-4.559-4.994s.947-4.995,4.559-4.995H164.5ZM94.408,16.383c.874-2.068,2.052-3.1,3.9-3.1,2.176,0,3.511,1.293,3.511,4.1V32.711H97.879v-14.9l-5.3,12.578c-.7,1.713-1.685,2.637-3.313,2.637s-2.617-.923-3.314-2.637l-5.3-12.578v14.9H76.722V17.39c0-2.811,1.334-4.1,3.511-4.1,1.845,0,3.022,1.029,3.9,3.1L89.27,28.767Zm97.09-.368h-1.377c-5.971,0-8.336,2.689-8.336,8.45,0,5.673,2.419,8.474,8.368,8.474h1.31c5.952,0,8.373-2.8,8.373-8.474C199.836,18.7,197.472,16.015,191.5,16.015Zm4.5,8.459c0,3.446-.948,4.995-4.558,4.995h-1.258c-3.614,0-4.56-1.549-4.56-4.995s.947-4.995,4.56-4.995h1.258C195.049,19.479,196,21.024,196,24.473Z" transform="translate(-22.181 -3.841)"/>
          </g>
        </g>
      </g>
    </g>
  </g>
</svg>
