<svg id="Layer_1" data-name="Layer 1" xmlns="http://www.w3.org/2000/svg" viewBox="0 0 100.789 58.35329">
  <defs>
    <style>
      .cls-1 {
        fill: #002c5f;
      }
    </style>
  </defs>
  <title>hyundai</title>
  <g>
    <path class="cls-1" d="M50.852,36.465c19.669,0,35.608-8.162,35.608-18.233S70.518,0,50.852,0s-35.61,8.161-35.61,18.233S31.182,36.465,50.852,36.465Zm6.7-8.946c-.591,1.379-1.614,4.319-3.963,5.489a5.887,5.887,0,0,1-2.378.545c-.175.006-.3,0-.354,0a61.8909,61.8909,0,0,1-17.813-2.472c-.042-.013-.159-.059-.2-.072-.473-.159-.714-.377-.714-.645a.792.792,0,0,1,.292-.58c.071-.074.182-.165.324-.287,1.181-.988,4.743-3.568,11.454-6.132A56.32885,56.32885,0,0,1,52.581,20.7c1.807-.385,8.511-1.407,4.971,6.82ZM75.543,9.14a.724.724,0,0,1,.6-.425,1.259,1.259,0,0,1,.745.242c4.179,2.574,6.658,5.786,6.658,9.267,0,6.292-8.086,11.693-19.645,14.059-.744.143-1.235.14-1.407-.048a.456.456,0,0,1,0-.565,2.81214,2.81214,0,0,1,.31-.425c6.3-7.423,11.091-18.368,12.454-21.528C75.362,9.5,75.465,9.283,75.543,9.14ZM44.252,8.909c.591-1.377,1.615-4.319,3.963-5.486a5.869,5.869,0,0,1,2.378-.546c.176-.007.3,0,.351,0A61.775,61.775,0,0,1,68.761,5.352c.039.01.159.057.194.069.473.158.714.376.716.646a.8.8,0,0,1-.294.578c-.071.071-.18.164-.324.285-1.18.991-4.743,3.567-11.449,6.133a56.5,56.5,0,0,1-8.38,2.671C47.415,16.117,40.71,17.135,44.252,8.909ZM37.797,4.175c.742-.145,1.23-.142,1.405.046a.461.461,0,0,1,0,.561,3.084,3.084,0,0,1-.31.426c-6.3,7.423-11.091,18.37-12.454,21.53-.1.22-.208.433-.288.578a.713.713,0,0,1-.6.426,1.283,1.283,0,0,1-.745-.241c-4.181-2.577-6.662-5.789-6.662-9.27C18.145,11.941,26.233,6.537,37.797,4.175Z"/>
    <g>
      <path class="cls-1" d="M9.772,43.757v5.559H3.47V43.757H0V58.344H3.47V52.481h6.3v5.863h3.473V43.757Z"/>
      <path class="cls-1" d="M25.974,43.757l-3.63,5.777-3.63-5.777h-4.1l6,9.537v5.05h3.469v-5.05l5.993-9.537H25.974Z"/>
      <path class="cls-1" d="M41.242,43.757V54.452a.72.72,0,0,1-.70563.73409q-.01618.00031-.03237-.00009H34.939V43.757H31.47V58.344H41.727a2.768,2.768,0,0,0,2.984-2.98V43.757Z"/>
      <path class="cls-1" d="M58.191,43.757H47.928V58.344H51.4V46.916h5.571a.724.724,0,0,1,.73692.71085q.00018.01008.00008.02016v10.7h3.471v-11.6a2.778,2.778,0,0,0-2.984-2.985Z"/>
      <path class="cls-1" d="M74.654,43.757H64.392V58.344H74.654a2.771,2.771,0,0,0,2.98-2.98V46.742a2.777,2.777,0,0,0-2.98-2.985Zm-.489,3.916v6.761a.736.736,0,0,1-.71672.75478q-.01314.00034-.02628.00021H67.86v-8.27h5.543a.729.729,0,0,1,.76077.69579q.00133.02958.00024.05921Z"/>
      <path class="cls-1" d="M83.682,43.757a2.778,2.778,0,0,0-2.981,2.985v11.6h3.463V53.834h6.308v4.51H93.94V43.757Zm6.79,3.159v3.76H84.165V47.657a.738.738,0,0,1,.734-.742h5.573Z"/>
      <rect class="cls-1" x="97.317" y="43.757" width="3.472" height="14.587"/>
    </g>
  </g>
</svg>
