
<svg width="168px" height="44px" viewBox="0 0 168 44" version="1.1" xmlns="http://www.w3.org/2000/svg" xmlns:xlink="http://www.w3.org/1999/xlink">
    <!-- Generator: Sketch 44.1 (41455) - http://www.bohemiancoding.com/sketch -->
    <desc>Created with Sketch.</desc>
    <defs></defs>
    <g id="Page-1" stroke="none" stroke-width="1" fill="none" fill-rule="evenodd">
        <g id="Главный-экран" transform="translate(-316.000000, -6451.000000)" fill-rule="nonzero" fill="#1A9F29">
            <g id="Партнеры-и-футер" transform="translate(0.000000, 5800.000000)">
                <g id="Логотипы" transform="translate(316.000000, 349.000000)">
                    <g id="content" transform="translate(0.000000, 302.000000)">
                        <path d="M43.781137,20.2766426 C44.4727821,21.0675755 45.3027562,21.6427994 46.3402239,22.0742173 C47.3776916,22.5056353 48.5534884,22.7213442 50.0059432,22.7213442 C50.6975883,22.7213442 51.3892334,22.6494412 51.9425495,22.5775382 C52.5650301,22.5056353 53.0491817,22.3618293 53.5333333,22.1461203 C54.0174849,22.0023143 54.432472,21.7866054 54.8474591,21.6427994 C55.1932817,21.4270904 55.5391042,21.2832845 55.8157623,21.1394785 L55.3316107,20.0609337 C55.0549526,20.2047396 54.7782946,20.3485456 54.5016365,20.4923516 C54.2249785,20.6361576 53.9483204,20.7080606 53.6024978,20.8518665 C53.2566753,20.9237695 52.9108527,21.0675755 52.4958656,21.0675755 C52.0808786,21.1394785 51.596727,21.1394785 51.0434109,21.1394785 C50.0059432,21.1394785 49.1068045,20.9237695 48.4843239,20.4923516 C47.7926787,20.0609337 47.3085271,19.4857098 46.8935401,18.8385829 C46.5477175,18.119553 46.2710594,17.2567171 46.1327304,16.3219783 C45.9944014,15.3153365 45.9252369,14.3086946 45.9252369,13.1582468 C45.9252369,12.295411 45.9944014,11.3606721 46.0635659,10.4259333 C46.1327304,9.49119442 46.3402239,8.70026155 46.6860465,7.98123167 C47.0318691,7.26220179 47.4468562,6.68697789 48.0693368,6.18365697 C48.6918174,5.75223904 49.5217916,5.46462709 50.5592593,5.46462709 C51.5275624,5.46462709 52.3575366,5.75223904 53.0491817,6.25555996 C53.7408269,6.75888088 54.155814,7.62171673 54.3633075,8.70026155 L55.4699397,8.70026155 L55.4699397,5.17701514 C55.1241171,5.03320916 54.7782946,4.88940319 54.3633075,4.74559721 C53.9483204,4.60179123 53.5333333,4.52988825 53.0491817,4.45798526 C52.5650301,4.38608227 52.1500431,4.38608227 51.6658915,4.31417928 C51.2509044,4.31417928 50.8359173,4.24227629 50.4900947,4.24227629 C48.9684755,4.24227629 47.7235142,4.45798526 46.616882,4.88940319 C45.5794143,5.32082111 44.6802756,5.96794801 43.9886305,6.75888088 C43.2969854,7.54981374 42.8128338,8.55645558 42.4670112,9.70690338 C42.1211886,10.8573512 41.9828596,12.223508 41.9828596,13.6615677 C41.9828596,15.0277245 42.1211886,16.3219783 42.4670112,17.4005231 C42.6745047,18.6228739 43.1586563,19.5576127 43.781137,20.2766426 Z" id="Shape"></path>
                        <path d="M111.424031,22.1461203 C112.254005,22.0742173 113.083979,21.7866054 113.70646,21.4270904 C114.398105,20.9956725 114.951421,20.4204486 115.297244,19.6295157 C115.712231,18.8385829 115.919724,17.760038 115.919724,16.3938813 C115.919724,15.3872394 115.781395,14.5963066 115.504737,13.8772767 C115.228079,13.1582468 114.813092,12.6549259 114.190612,12.151605 C113.568131,11.720187 112.807321,11.4325751 111.839018,11.2168661 C110.870715,11.0011572 109.694918,10.9292542 108.311628,10.9292542 L106.859173,10.9292542 L106.859173,6.68697789 C106.859173,6.25555996 106.928338,5.96794801 107.135831,5.82414203 C107.343325,5.68033605 107.689147,5.68033605 108.242463,5.68033605 L110.317399,5.68033605 C110.939879,5.68033605 111.493196,5.68033605 111.908183,5.75223904 C112.32317,5.82414203 112.668992,5.89604502 112.876486,6.11175398 C113.153144,6.32746295 113.360637,6.6150749 113.498966,6.97458984 C113.637295,7.33410478 113.844789,7.8374257 113.983118,8.48455259 L114.882257,8.48455259 L114.882257,4.52988825 L103.124289,4.52988825 L102.155986,4.52988825 L102.155986,5.10511215 C102.225151,5.10511215 102.294315,5.17701514 102.501809,5.17701514 C102.709302,5.24891813 102.847631,5.32082111 102.916796,5.3927241 C102.98596,5.46462709 103.055125,5.60843307 103.124289,5.82414203 C103.124289,6.03985099 103.193454,6.25555996 103.193454,6.54317191 L103.193454,10.1383213 L103.193454,16.6814932 L103.193454,20.2766426 C103.193454,20.5642546 103.193454,20.8518665 103.124289,20.9956725 C103.124289,21.2113815 103.055125,21.3551874 102.916796,21.4270904 C102.847631,21.4989934 102.709302,21.6427994 102.501809,21.6427994 C102.294315,21.7147024 102.225151,21.7147024 102.155986,21.7147024 L102.155986,22.2899263 L108.588286,22.2899263 C109.625754,22.2899263 110.524892,22.2899263 111.424031,22.1461203 Z M107.204996,20.8518665 C107.066667,20.7080606 106.997502,20.5642546 106.997502,20.3485456 C106.997502,20.1328366 106.928338,19.8452247 106.928338,19.4857098 L106.928338,12.007799 L108.380792,12.007799 C109.694918,12.007799 110.663221,12.3673139 111.216537,13.0863438 C111.769854,13.8053737 112.046512,14.9558215 112.046512,16.5376872 C112.046512,17.6162321 111.977347,18.4071649 111.769854,19.0542918 C111.56236,19.7014187 111.354866,20.1328366 111.009044,20.4923516 C110.663221,20.7799635 110.317399,20.9956725 109.971576,21.1394785 C109.556589,21.2113815 109.141602,21.2832845 108.726615,21.2832845 C108.311628,21.2113815 107.965805,21.2113815 107.758312,21.1394785 C107.550818,21.0675755 107.343325,20.9956725 107.204996,20.8518665 Z" id="Shape"></path>
                        <path d="M93.233764,21.7147024 C93.1645995,21.7147024 93.095435,21.6427994 92.8879414,21.6427994 C92.6804479,21.5708964 92.5421189,21.4989934 92.4729543,21.4270904 C92.4037898,21.3551874 92.3346253,21.2113815 92.2654608,20.9956725 C92.2654608,20.7799635 92.1962963,20.5642546 92.1962963,20.2766426 L92.1962963,15.3153365 L93.9254091,15.3153365 C94.8245478,15.3153365 95.654522,15.2434335 96.4844961,15.0996275 C97.3144703,14.9558215 98.0061154,14.6682096 98.628596,14.3086946 C99.2510767,13.8772767 99.7352283,13.3739558 100.081051,12.5830229 C100.426873,11.863993 100.634367,10.8573512 100.634367,9.6350004 C100.634367,8.48455259 100.426873,7.54981374 100.150215,6.90268685 C99.8043928,6.25555996 99.3202412,5.68033605 98.7669251,5.32082111 C98.213609,4.96130617 97.5219638,4.74559721 96.7611542,4.67369422 C96.0003445,4.60179123 95.2395349,4.52988825 94.4095607,4.52988825 L88.5997416,4.52988825 L87.6314384,4.52988825 L87.6314384,5.10511215 C87.7006029,5.10511215 87.7697674,5.17701514 87.977261,5.17701514 C88.1847545,5.24891813 88.3230835,5.32082111 88.3922481,5.3927241 C88.4614126,5.46462709 88.5305771,5.60843307 88.5997416,5.82414203 C88.5997416,6.03985099 88.6689061,6.25555996 88.6689061,6.54317191 L88.6689061,20.2047396 C88.6689061,20.4923516 88.6689061,20.7799635 88.5997416,20.9237695 C88.5997416,21.1394785 88.5305771,21.2832845 88.3922481,21.3551874 C88.3230835,21.4270904 88.1847545,21.5708964 87.977261,21.5708964 C87.7697674,21.6427994 87.7006029,21.6427994 87.6314384,21.6427994 L87.6314384,22.2180233 L93.233764,22.2180233 L93.233764,21.7147024 L93.233764,21.7147024 Z M92.2654608,6.54317191 C92.2654608,6.39936593 92.2654608,6.25555996 92.3346253,6.11175398 C92.3346253,5.96794801 92.4037898,5.89604502 92.4729543,5.82414203 C92.5421189,5.75223904 92.6804479,5.68033605 92.8879414,5.68033605 C93.095435,5.68033605 93.3029285,5.60843307 93.6487511,5.60843307 C94.0637382,5.60843307 94.4787252,5.68033605 94.8937123,5.75223904 C95.3086994,5.89604502 95.5853575,6.11175398 95.93118,6.39936593 C96.2078381,6.68697789 96.4153316,7.11839582 96.6228252,7.62171673 C96.7611542,8.12503765 96.8303187,8.77216454 96.8303187,9.49119442 C96.8303187,11.0011572 96.6228252,12.151605 96.2078381,12.9425378 C95.792851,13.7334707 95.0320413,14.1648886 93.9945736,14.1648886 L92.2654608,14.1648886 L92.2654608,6.54317191 L92.2654608,6.54317191 Z" id="Shape"></path>
                        <path d="M85.3490095,18.191456 L84.2423773,18.191456 C84.1040482,18.9104859 83.9657192,19.4138068 83.8273902,19.8452247 C83.6890612,20.2766426 83.5507321,20.5642546 83.2740741,20.7799635 C83.0665805,20.9956725 82.720758,21.1394785 82.3057709,21.1394785 C81.8907838,21.2113815 81.3374677,21.2113815 80.5766581,21.2113815 C79.8850129,21.2113815 79.3316968,21.2113815 78.9858742,21.1394785 C78.5708872,21.0675755 78.2942291,20.9956725 78.0867356,20.8518665 C77.879242,20.7080606 77.740913,20.4923516 77.740913,20.2766426 C77.6717485,19.9890307 77.6717485,19.7014187 77.6717485,19.2700008 L77.6717485,13.6615677 L79.9541774,13.6615677 L80.6458226,13.6615677 C80.9224806,13.6615677 81.1991387,13.7334707 81.4757967,13.7334707 C81.7524548,13.7334707 82.0291128,13.8053737 82.3057709,13.8772767 C82.5824289,13.9491797 82.7899225,14.0210827 82.997416,14.1648886 L82.997416,11.863993 C82.7899225,12.007799 82.5824289,12.079702 82.3057709,12.151605 C82.0291128,12.223508 81.7524548,12.295411 81.4757967,12.295411 C81.1991387,12.3673139 80.9224806,12.3673139 80.6458226,12.3673139 L79.9541774,12.3673139 L77.6717485,12.3673139 L77.6717485,6.47126892 C77.6717485,6.11175398 77.740913,5.82414203 77.8100775,5.68033605 C77.9484065,5.53653008 78.1559001,5.53653008 78.5017227,5.53653008 L80.3691645,5.53653008 C80.9916451,5.53653008 81.5449612,5.53653008 81.9599483,5.60843307 C82.3749354,5.68033605 82.720758,5.75223904 82.9282515,5.96794801 C83.2049096,6.18365697 83.4124031,6.47126892 83.5507321,6.83078386 C83.6890612,7.1902988 83.8965547,7.69361972 84.0348837,8.34074661 L84.9340224,8.34074661 L84.9340224,4.52988825 L74.0060293,4.52988825 L73.0377261,4.52988825 L73.0377261,5.10511215 C73.1068906,5.10511215 73.1760551,5.17701514 73.3835487,5.17701514 C73.5910422,5.24891813 73.7293712,5.32082111 73.7985357,5.3927241 C73.8677003,5.46462709 73.9368648,5.60843307 74.0060293,5.82414203 C74.0060293,6.03985099 74.0751938,6.25555996 74.0751938,6.54317191 L74.0751938,20.2047396 C74.0751938,20.4923516 74.0751938,20.7799635 74.0060293,20.9237695 C74.0060293,21.1394785 73.9368648,21.2832845 73.7985357,21.3551874 C73.7293712,21.4270904 73.5910422,21.5708964 73.3835487,21.5708964 C73.1760551,21.6427994 73.1068906,21.6427994 73.0377261,21.6427994 L73.0377261,22.2180233 L85.3490095,22.2180233 L85.3490095,18.191456 L85.3490095,18.191456 Z" id="Shape"></path>
                        <path d="M66.5362618,22.1461203 C67.366236,22.0742173 68.1962102,21.7866054 68.8186908,21.4270904 C69.5103359,20.9956725 70.063652,20.4204486 70.4786391,19.6295157 C70.8936262,18.8385829 71.1011197,17.760038 71.1011197,16.3938813 C71.1011197,15.3872394 70.9627907,14.5963066 70.6861326,13.8772767 C70.4094746,13.1582468 69.9944875,12.6549259 69.3720069,12.151605 C68.7495263,11.720187 67.9887166,11.4325751 67.0204134,11.2168661 C66.0521102,11.0011572 64.8763135,10.9292542 63.4930233,10.9292542 L62.0405685,10.9292542 L62.0405685,6.68697789 C62.0405685,6.25555996 62.109733,5.96794801 62.3172265,5.82414203 C62.5247201,5.68033605 62.8705426,5.68033605 63.4238587,5.68033605 L65.4987941,5.68033605 C66.1212748,5.68033605 66.6745909,5.68033605 67.089578,5.75223904 C67.504565,5.82414203 67.8503876,5.89604502 68.0578811,6.11175398 C68.3345392,6.32746295 68.5420327,6.6150749 68.6803618,6.97458984 C68.8186908,7.33410478 69.0261843,7.8374257 69.1645134,8.48455259 L70.063652,8.48455259 L70.063652,4.52988825 L58.3056848,4.52988825 L57.3373816,4.52988825 L57.3373816,5.10511215 C57.4065461,5.10511215 57.4757106,5.17701514 57.6832041,5.17701514 C57.8906977,5.24891813 58.0290267,5.32082111 58.0981912,5.3927241 C58.1673557,5.46462709 58.2365202,5.60843307 58.3056848,5.82414203 C58.3056848,6.03985099 58.3748493,6.25555996 58.3748493,6.54317191 L58.3748493,6.90268685 L58.3748493,10.0664183 L58.3748493,16.5376872 L58.3748493,19.1980978 C58.3748493,19.1980978 58.3748493,19.1980978 58.3748493,19.2700008 L58.3748493,20.2047396 C58.3748493,20.4923516 58.3748493,20.7080606 58.3056848,20.9237695 C58.3056848,21.1394785 58.2365202,21.2832845 58.0981912,21.3551874 C58.0290267,21.4270904 57.8906977,21.5708964 57.6832041,21.5708964 C57.4757106,21.6427994 57.4065461,21.6427994 57.3373816,21.6427994 L57.3373816,22.2899263 L63.7696813,22.2899263 C64.807149,22.2899263 65.6371232,22.2899263 66.5362618,22.1461203 Z M62.3172265,20.8518665 C62.1788975,20.7080606 62.109733,20.5642546 62.109733,20.3485456 C62.109733,20.1328366 62.0405685,19.8452247 62.0405685,19.4857098 L62.0405685,12.007799 L63.4930233,12.007799 C64.807149,12.007799 65.7754522,12.3673139 66.3287683,13.0863438 C66.8820844,13.8053737 67.1587425,14.9558215 67.1587425,16.5376872 C67.1587425,17.6162321 67.089578,18.4071649 66.8820844,19.0542918 C66.6745909,19.7014187 66.4670973,20.1328366 66.1212748,20.4923516 C65.7754522,20.7799635 65.4296296,20.9956725 65.0838071,21.1394785 C64.66882,21.2113815 64.2538329,21.2832845 63.8388458,21.2832845 C63.4238587,21.2113815 63.1472007,21.2113815 62.8705426,21.1394785 C62.6630491,21.0675755 62.4555556,20.9956725 62.3172265,20.8518665 Z" id="Shape"></path>
                        <rect id="Rectangle-path" x="41.8445306" y="27.3231355" width="125.395263" height="1.72567171"></rect>
                        <path d="M157.210939,15.6029484 C157.556761,16.1062693 157.833419,16.5376872 158.179242,16.9691052 C158.4559,17.4005231 158.801723,17.831941 159.078381,18.263359 C159.355039,18.6947769 159.631697,19.1261948 159.977519,19.5576127 C160.323342,20.0609337 160.6,20.4923516 160.876658,20.9956725 C161.153316,21.4270904 161.36081,21.9304113 161.568303,22.3618293 L167.378122,22.4337323 C166.755642,21.7866054 166.202326,21.1394785 165.579845,20.4923516 C165.026529,19.8452247 164.542377,19.2700008 164.196555,18.9104859 C163.643239,18.263359 163.159087,17.6881351 162.7441,17.1848141 C162.259948,16.6095902 161.844961,16.1062693 161.429974,15.6029484 C161.014987,15.0996275 160.6,14.5244036 160.254177,14.0210827 C159.908355,13.5177618 159.493368,12.8706349 159.147545,12.295411 L159.424203,11.935896 C159.83919,11.3606721 160.323342,10.7854482 160.876658,10.0664183 C161.429974,9.34738844 161.98329,8.62835856 162.605771,7.98123167 C163.228252,7.26220179 163.781568,6.6150749 164.404048,6.03985099 C165.026529,5.46462709 165.51068,5.03320916 165.994832,4.67369422 L161.98329,4.67369422 C161.844961,5.03320916 161.637468,5.46462709 161.36081,5.96794801 C161.084152,6.47126892 160.807494,7.04649283 160.392506,7.62171673 C160.046684,8.19694064 159.631697,8.84406753 159.285874,9.49119442 C158.870887,10.1383213 158.525065,10.7135452 158.110078,11.2887691 C157.69509,11.863993 157.349268,12.4392169 157.003445,12.8706349 C156.657623,13.3739558 156.380965,13.7334707 156.173471,14.0929857 C156.519294,14.5963066 156.865116,15.0996275 157.210939,15.6029484 Z" id="Shape"></path>
                        <path d="M156.726787,21.7147024 C156.657623,21.7147024 156.588458,21.6427994 156.380965,21.6427994 C156.173471,21.5708964 156.035142,21.4989934 155.965978,21.4270904 C155.896813,21.3551874 155.827649,21.2113815 155.758484,20.9956725 C155.758484,20.7799635 155.68932,20.5642546 155.68932,20.2766426 L155.68932,6.6150749 C155.68932,6.32746295 155.68932,6.03985099 155.758484,5.89604502 C155.758484,5.68033605 155.827649,5.53653008 155.965978,5.46462709 C156.035142,5.3927241 156.173471,5.32082111 156.380965,5.24891813 C156.588458,5.17701514 156.657623,5.17701514 156.726787,5.17701514 L156.726787,4.52988825 L152.092765,4.52988825 L151.124462,4.52988825 L151.124462,5.10511215 C151.193626,5.10511215 151.262791,5.17701514 151.470284,5.17701514 C151.677778,5.24891813 151.816107,5.32082111 151.885271,5.3927241 C151.954436,5.46462709 152.0236,5.60843307 152.092765,5.82414203 C152.092765,6.03985099 152.161929,6.25555996 152.161929,6.54317191 L152.161929,20.2047396 C152.161929,20.4923516 152.161929,20.7799635 152.092765,20.9237695 C152.092765,21.1394785 152.0236,21.2832845 151.885271,21.3551874 C151.816107,21.4270904 151.677778,21.5708964 151.470284,21.5708964 C151.262791,21.6427994 151.193626,21.6427994 151.124462,21.6427994 L151.124462,22.2180233 L156.726787,22.2180233 L156.726787,21.7147024 Z" id="Shape"></path>
                        <path d="M119.516279,20.1328366 C119.723773,19.1261948 120.13876,17.6881351 120.692076,15.8905604 L126.156072,15.8905604 L126.916882,18.191456 C127.262705,19.1980978 127.539363,20.0609337 127.677692,20.7799635 C127.885185,21.4989934 128.023514,22.0023143 128.023514,22.3618293 L132.380879,22.3618293 C132.173385,22.0023143 131.965891,21.4989934 131.689233,20.9237695 C131.412575,20.3485456 131.066753,19.4857098 130.72093,18.4071649 L126.778553,6.75888088 C126.571059,6.25555996 126.501895,5.82414203 126.43273,5.46462709 C126.363566,5.10511215 126.363566,4.8175002 126.294401,4.60179123 L121.383721,4.60179123 L121.383721,5.17701514 C121.452885,5.17701514 121.52205,5.24891813 121.729543,5.24891813 C121.937037,5.32082111 122.075366,5.3927241 122.144531,5.46462709 C122.213695,5.53653008 122.28286,5.68033605 122.352024,5.89604502 L122.352024,6.25555996 C122.352024,6.68697789 122.28286,7.11839582 122.144531,7.40600777 L119.37795,14.4525006 C118.893798,15.7467544 118.409647,16.8972022 118.063824,17.760038 C117.718002,18.6228739 117.372179,19.4138068 117.164686,19.9890307 C116.888028,20.5642546 116.680534,21.0675755 116.47304,21.4270904 C116.265547,21.7866054 116.127218,22.0742173 115.988889,22.3618293 L119.101292,22.3618293 C119.170457,21.8585084 119.308786,21.1394785 119.516279,20.1328366 Z M123.458656,7.47791076 L125.741085,14.6682096 L121.037898,14.6682096 L123.458656,7.47791076 Z" id="Shape"></path>
                        <path d="M138.951507,21.7147024 L138.813178,21.7147024 C138.744014,21.7147024 138.674849,21.6427994 138.467356,21.6427994 C138.259862,21.5708964 138.121533,21.4989934 138.052369,21.4270904 C137.983204,21.3551874 137.91404,21.2113815 137.844875,20.9956725 C137.844875,20.7799635 137.775711,20.5642546 137.775711,20.2766426 L137.775711,13.4458588 L144.415504,13.4458588 L144.415504,20.2047396 C144.415504,20.4923516 144.415504,20.7799635 144.346339,20.9237695 C144.346339,21.1394785 144.277175,21.2832845 144.138846,21.3551874 C144.069681,21.4270904 143.931352,21.5708964 143.723859,21.5708964 C143.516365,21.6427994 143.447201,21.6427994 143.378036,21.6427994 L143.378036,22.2180233 L148.980362,22.2180233 L148.980362,21.6427994 C148.911197,21.6427994 148.842033,21.5708964 148.634539,21.5708964 C148.427046,21.4989934 148.288717,21.4270904 148.219552,21.3551874 C148.150388,21.2832845 148.081223,21.1394785 148.012059,20.9237695 C148.012059,20.7080606 147.942894,20.4923516 147.942894,20.2047396 L147.942894,16.6814932 L147.942894,16.5376872 L147.942894,10.0664183 L147.942894,9.99451534 L147.942894,6.47126892 C147.942894,6.18365697 147.942894,5.89604502 148.012059,5.75223904 C148.012059,5.53653008 148.081223,5.3927241 148.219552,5.32082111 C148.288717,5.24891813 148.427046,5.17701514 148.634539,5.10511215 C148.842033,5.03320916 148.911197,5.03320916 148.980362,5.03320916 L148.980362,4.52988825 L144.346339,4.52988825 L143.516365,4.52988825 L143.516365,5.10511215 C143.58553,5.10511215 143.654694,5.17701514 143.862188,5.17701514 C144.069681,5.24891813 144.20801,5.32082111 144.277175,5.3927241 C144.346339,5.46462709 144.415504,5.60843307 144.484668,5.82414203 C144.484668,6.03985099 144.553833,6.25555996 144.553833,6.54317191 L144.553833,12.223508 L137.91404,12.223508 L137.91404,6.54317191 C137.91404,6.25555996 137.91404,5.96794801 137.983204,5.82414203 C137.983204,5.60843307 138.052369,5.46462709 138.190698,5.3927241 C138.259862,5.32082111 138.398191,5.24891813 138.605685,5.17701514 C138.813178,5.10511215 138.882343,5.10511215 138.951507,5.10511215 L138.951507,4.52988825 L134.317485,4.52988825 L133.349182,4.52988825 L133.349182,5.10511215 C133.418346,5.10511215 133.487511,5.17701514 133.695004,5.17701514 C133.902498,5.24891813 134.040827,5.32082111 134.109991,5.3927241 C134.179156,5.46462709 134.24832,5.60843307 134.317485,5.82414203 C134.317485,6.03985099 134.386649,6.25555996 134.386649,6.54317191 L134.386649,6.97458984 L134.386649,19.2700008 L134.386649,19.3419038 L134.386649,20.2766426 C134.386649,20.5642546 134.386649,20.7799635 134.317485,20.9956725 C134.317485,21.2113815 134.24832,21.3551874 134.109991,21.4270904 C134.040827,21.4989934 133.902498,21.6427994 133.695004,21.6427994 C133.487511,21.7147024 133.418346,21.7147024 133.349182,21.7147024 L133.349182,22.2899263 L138.951507,22.2899263 L138.951507,21.7147024 L138.951507,21.7147024 Z" id="Shape"></path>
                        <path d="M30.4323859,6.39936593 C30.0865633,5.89604502 29.7407407,5.3927241 29.3949182,4.88940319 L10.236348,16.3219783 L0.968303187,10.7854482 C0.760809647,11.4325751 0.62248062,12.007799 0.553316107,12.6549259 L10.3055125,18.4790679 L30.4323859,6.39936593 Z" id="Shape"></path>
                        <path d="M10.236348,20.6361576 L0.276658053,14.6682096 C0.20749354,15.0277245 0.20749354,15.4591424 0.20749354,15.8186574 C0.20749354,25.2379488 7.53893196,32.9315685 16.6686477,32.9315685 C25.729199,32.9315685 33.1298019,25.3098518 33.1298019,15.8186574 C33.1298019,13.0144408 32.5073213,10.3540303 31.3315245,8.05313466 L10.236348,20.6361576 Z" id="Shape"></path>
                        <path d="M28.0807924,3.45134343 C27.5966408,2.94802251 27.1124892,2.58850757 26.6283376,2.15708964 L10.236348,12.007799 L2.35159345,7.33410478 C2.0749354,7.8374257 1.79827735,8.4126496 1.52161929,8.9878735 L10.1671835,14.1648886 L28.0807924,3.45134343 Z" id="Shape"></path>
                        <path d="M24.9683893,1.00664183 C24.3459087,0.647126892 23.7234281,0.287611952 23.0317829,0 L10.236348,7.69361972 L4.49569337,4.31417928 C4.08070629,4.74559721 3.73488372,5.24891813 3.31989664,5.75223904 L10.1671835,9.85070936 L24.9683893,1.00664183 Z" id="Shape"></path>
                        <g id="Group" transform="translate(112.046512, 34.513434)">
                            <path d="M0,7.54981374 L1.31412575,0.503320916 L3.45822567,0.503320916 C4.70318691,0.503320916 5.25650301,1.15044781 5.25650301,2.15708964 C5.25650301,3.09182849 4.70318691,3.5951494 3.66571921,3.95466434 C4.35736434,4.24227629 4.77235142,4.74559721 4.77235142,5.46462709 C4.77235142,6.75888088 3.94237726,7.47791076 2.28242894,7.47791076 L0,7.47791076 L0,7.54981374 Z M0.82997416,6.90268685 L2.42075797,6.90268685 C3.45822567,6.90268685 4.08070629,6.32746295 4.08070629,5.46462709 C4.08070629,4.8175002 3.52739018,4.17037331 2.48992248,4.17037331 L1.24496124,4.17037331 L0.82997416,6.90268685 Z M1.45245478,3.5951494 L2.83574505,3.5951494 C4.01154177,3.5951494 4.63402239,3.0199255 4.63402239,2.15708964 C4.63402239,1.43805976 4.21903531,1.07854482 3.38906115,1.07854482 L2.00577089,1.07854482 L1.45245478,3.5951494 Z" id="Shape"></path>
                            <path d="M9.47553833,6.25555996 C9.06055125,7.04649283 8.57639966,7.62171673 7.60809647,7.62171673 C6.50146425,7.62171673 5.74065461,6.68697789 5.74065461,5.3927241 C5.74065461,3.81085837 6.7089578,2.44470159 8.02308355,2.44470159 C8.99138674,2.44470159 9.47553833,3.0199255 9.75219638,3.88276135 L9.12971576,4.02656733 C8.92222222,3.37944044 8.57639966,3.0199255 8.02308355,3.0199255 C7.12394488,3.0199255 6.36313523,4.02656733 6.36313523,5.46462709 C6.36313523,6.47126892 6.84728682,6.97458984 7.67726098,6.97458984 C8.43807063,6.97458984 8.71472868,6.54317191 8.99138674,6.03985099 L9.47553833,6.25555996 Z" id="Shape"></path>
                            <path d="M10.9279931,5.10511215 L10.9279931,5.46462709 C10.9279931,6.47126892 11.4121447,7.04649283 12.1729543,7.04649283 C12.8645995,7.04649283 13.2795866,6.54317191 13.6945736,5.89604502 L14.2478898,6.18365697 C13.6945736,7.04649283 13.1412575,7.62171673 12.1037898,7.62171673 C10.9971576,7.62171673 10.3055125,6.75888088 10.3055125,5.46462709 C10.3055125,3.73895538 11.2738157,2.44470159 12.6571059,2.44470159 C13.7637382,2.44470159 14.3862188,3.16373147 14.3862188,4.45798526 C14.3862188,4.67369422 14.3170543,4.88940319 14.3170543,5.10511215 L10.9279931,5.10511215 L10.9279931,5.10511215 Z M13.7637382,4.52988825 C13.8329027,4.38608227 13.7637382,4.31417928 13.7637382,4.24227629 C13.7637382,3.66705239 13.4179156,3.09182849 12.6571059,3.09182849 C11.7579673,3.09182849 11.3429802,3.66705239 11.0663221,4.60179123 L13.7637382,4.60179123 L13.7637382,4.52988825 Z" id="Shape"></path>
                            <polygon id="Shape" points="15.9770026 2.58850757 18.6744186 2.58850757 18.6052541 3.16373147 16.5303187 3.16373147 15.7003445 7.54981374 15.0778639 7.54981374"></polygon>
                            <path d="M18.1211025,6.97458984 L20.1268734,2.58850757 L21.0951766,2.58850757 L21.6484927,6.97458984 L22.1326443,6.97458984 L21.8559862,8.48455259 L21.3718346,8.48455259 L21.4409991,7.54981374 L18.190267,7.54981374 L17.913609,8.48455259 L17.4294574,8.48455259 L17.7061154,6.97458984 L18.1211025,6.97458984 Z M20.9568475,6.97458984 L20.611025,3.23563446 L20.472696,3.23563446 L18.8127476,6.97458984 L20.9568475,6.97458984 Z" id="Shape"></path>
                            <path d="M26.0750215,4.60179123 C26.0750215,4.38608227 26.144186,4.17037331 26.144186,4.02656733 C26.144186,3.45134343 25.729199,3.09182849 25.1067183,3.09182849 C24.6917313,3.09182849 24.3459087,3.30753745 24.0692506,3.66705239 L23.6542636,3.23563446 C24.0692506,2.87611952 24.5534022,2.51660458 25.2450474,2.51660458 C26.2133506,2.51660458 26.8358312,3.16373147 26.8358312,3.95466434 C26.8358312,4.09847032 26.7666667,4.38608227 26.7666667,4.74559721 L26.4208441,6.39936593 C26.2825151,6.97458984 26.2825151,7.33410478 26.2825151,7.62171673 L25.6600345,7.62171673 C25.5908699,7.47791076 25.5908699,7.26220179 25.5908699,7.04649283 C25.1758829,7.40600777 24.7608958,7.69361972 24.2075797,7.69361972 C23.44677,7.69361972 22.8242894,7.04649283 22.8242894,6.25555996 C22.8242894,5.24891813 23.7234281,4.60179123 25.3833764,4.60179123 L26.0750215,4.60179123 L26.0750215,4.60179123 Z M25.9366925,5.10511215 L25.4525409,5.10511215 C24.1384152,5.10511215 23.44677,5.46462709 23.44677,6.18365697 C23.44677,6.68697789 23.7925926,7.04649283 24.2767442,7.04649283 C24.7608958,7.04649283 25.1758829,6.75888088 25.6600345,6.39936593 L25.9366925,5.10511215 Z" id="Shape"></path>
                            <path d="M31.8156761,3.16373147 C32.2306632,2.73231355 32.6456503,2.44470159 33.1989664,2.44470159 C34.2364341,2.44470159 34.7897502,3.16373147 34.7897502,4.52988825 C34.7897502,6.32746295 33.7522825,7.62171673 32.5073213,7.62171673 C31.8848407,7.62171673 31.4698536,7.33410478 31.124031,6.97458984 L30.6398794,9.49119442 L30.0173988,9.49119442 L31.3315245,2.51660458 L31.8848407,2.51660458 L31.8156761,3.16373147 Z M31.26236,6.32746295 C31.5390181,6.75888088 31.8848407,7.04649283 32.5073213,7.04649283 C33.4064599,7.04649283 34.2364341,5.96794801 34.2364341,4.45798526 C34.2364341,3.52324641 33.821447,3.0199255 33.1298019,3.0199255 C32.6456503,3.0199255 32.1614987,3.23563446 31.8156761,3.88276135 L31.26236,6.32746295 Z" id="Shape"></path>
                            <path d="M37.4871662,5.24891813 L35.9655469,7.54981374 L35.2739018,7.54981374 L36.8646856,5.24891813 C36.242205,5.03320916 35.8963824,4.52988825 35.8963824,3.95466434 C35.8963824,3.30753745 36.4496985,2.58850757 37.5563307,2.58850757 L39.8387597,2.58850757 L38.8704565,7.54981374 L38.2479759,7.54981374 L38.662963,5.24891813 L37.4871662,5.24891813 Z M39.0087855,3.09182849 L37.4871662,3.09182849 C36.7955211,3.09182849 36.4496985,3.52324641 36.4496985,3.88276135 C36.4496985,4.38608227 36.7263566,4.60179123 37.2796727,4.60179123 L38.662963,4.60179123 L39.0087855,3.09182849 Z" id="Shape"></path>
                            <path d="M40.4612403,6.97458984 L42.4670112,2.58850757 L43.4353144,2.58850757 L43.9886305,6.97458984 L44.4727821,6.97458984 L44.196124,8.48455259 L43.7119724,8.48455259 L43.781137,7.54981374 L40.5304048,7.54981374 L40.2537468,8.48455259 L39.7695952,8.48455259 L40.0462532,6.97458984 L40.4612403,6.97458984 Z M43.2278208,6.97458984 L42.8819983,3.23563446 L42.7436693,3.23563446 L41.0837209,6.97458984 L43.2278208,6.97458984 Z" id="Shape"></path>
                            <path d="M45.0260982,5.46462709 C45.0260982,3.73895538 46.0635659,2.44470159 47.3085271,2.44470159 C48.3459948,2.44470159 48.9684755,3.30753745 48.9684755,4.60179123 C48.9684755,6.25555996 47.9310078,7.62171673 46.6860465,7.62171673 C45.7177433,7.62171673 45.0260982,6.83078386 45.0260982,5.46462709 Z M45.6485788,5.60843307 C45.6485788,6.54317191 46.1327304,7.04649283 46.755211,7.04649283 C47.5851852,7.04649283 48.4151593,5.96794801 48.4151593,4.52988825 C48.4151593,3.5951494 47.9310078,3.0199255 47.3085271,3.0199255 C46.478553,3.0199255 45.6485788,4.09847032 45.6485788,5.60843307 Z" id="Shape"></path>
                            <polygon id="Shape" points="54.5016365 3.16373147 52.4267011 7.54981374 51.8042205 7.54981374 51.1817399 3.16373147 50.3517657 7.54981374 49.7292851 7.54981374 50.6975883 2.58850757 51.735056 2.58850757 52.2883721 6.90268685 54.294143 2.58850757 55.3316107 2.58850757 54.3633075 7.54981374 53.7408269 7.54981374"></polygon>
                        </g>
                    </g>
                </g>
            </g>
        </g>
    </g>
</svg>