<svg width="174" height="70" viewBox="0 0 174 70" fill="none" xmlns="http://www.w3.org/2000/svg">
<path d="M97.5115 4.6615H89.4792V21.9013H93.2081V16.2341H97.5056C101.704 16.2341 104.313 14.9031 104.313 10.4217C104.313 5.94024 101.709 4.6615 97.5115 4.6615ZM97.6874 12.9908H93.214V7.91649H97.6874C99.5987 7.91649 100.519 8.41054 100.519 10.4565C100.519 12.5025 99.5987 12.9908 97.6815 12.9908H97.6874Z" fill="#151F28"/>
<path d="M119.48 18.6579H110.803V14.8159H118.583V11.59H110.803V7.91648H119.333V4.6615H107.08V21.9129H119.48V18.6579Z" fill="#151F28"/>
<path d="M127.46 21.9129H131.165V7.98623H136.506V4.6615H122.118V7.98623H127.46V21.9129Z" fill="#151F28"/>
<path d="M150.308 21.9014H154.623L149.428 15.3972C151.539 14.7346 153.233 13.2292 153.233 10.2706C153.233 5.91126 149.715 4.64996 146.321 4.64996H139.145V21.9014H142.897V15.8738H145.629L150.308 21.9014ZM142.897 7.91657H146.503C148.068 7.91657 149.434 8.5792 149.434 10.3578C149.434 12.1364 148.068 12.799 146.503 12.799H142.897V7.92239V7.91657Z" fill="#151F28"/>
<path d="M164.754 4.3187C158.586 4.3187 155.508 8.60829 155.508 13.2873C155.508 17.9664 158.592 22.256 164.754 22.256C170.916 22.256 174 17.9664 174 13.2873C174 8.60829 170.916 4.3187 164.754 4.3187ZM164.754 18.8499C161.125 18.8499 159.307 16.3389 159.307 13.3048C159.307 10.2707 161.125 7.75968 164.754 7.75968C168.383 7.75968 170.171 10.2707 170.171 13.3048C170.171 16.3389 168.36 18.8324 164.754 18.8324V18.8499Z" fill="#151F28"/>
<path d="M100.765 40.1003C100.151 40.3208 99.5016 40.4291 98.8483 40.42C96.2862 40.42 92.8856 39.2575 92.8856 34.6773C92.8856 30.6086 95.9402 29.0101 99.0476 29.0101C100.759 28.9865 102.441 29.4484 103.896 30.3412V26.8188C102.213 26.0859 100.394 25.7078 98.5551 25.7087C93.7827 25.7087 89.0864 28.4173 89.0864 34.6773C89.0864 40.9373 93.7768 43.6459 98.6548 43.6459C100.604 43.6369 102.532 43.2417 104.324 42.4834V33.9391H100.771V40.1003H100.765Z" fill="#151F28"/>
<path d="M121.145 31.6721C121.145 27.3127 117.627 26.0515 114.233 26.0515H107.08V43.3029H110.809V37.2637H113.541L118.231 43.3029H122.529L117.334 36.7987C119.445 36.1303 121.145 34.6248 121.145 31.6721ZM114.409 34.1831H110.803V29.3064H114.409C115.974 29.3064 117.34 29.9691 117.34 31.7477C117.34 33.5263 115.98 34.1831 114.409 34.1831Z" fill="#151F28"/>
<path d="M131.03 26.0515L123.918 43.3029H127.77L129.06 40.0769H137.034L138.3 43.3029H142.152L135.07 26.0515H131.042H131.03ZM130.233 37.0138L132.643 30.8293C132.831 30.3958 132.965 29.941 133.041 29.475C133.124 29.9369 133.25 30.3903 133.416 30.8293L135.861 37.0138H130.233Z" fill="#151F28"/>
<path d="M150.789 26.0515H144.281V43.3029H150.795C156.968 43.3029 159.9 39.6759 159.9 34.6888C159.9 29.7017 156.968 26.0515 150.789 26.0515ZM150.789 40.0479H148.004V29.3064H150.789C154.242 29.3064 156.106 31.1315 156.106 34.6772C156.106 38.2228 154.248 40.0479 150.789 40.0479Z" fill="#151F28"/>
<path d="M79.307 38.1182C79.307 38.1182 79.307 38.0717 79.307 38.0426C79.2883 37.953 79.2608 37.8654 79.225 37.7811L69.4103 15.1589C69.4024 14.9866 69.3626 14.8172 69.2931 14.659L65.2476 5.62647C65.2476 5.62647 65.2183 5.57996 65.2066 5.5509C65.1806 5.4968 65.1513 5.44439 65.1186 5.39397L65.06 5.33002C65.0236 5.28503 64.9845 5.24232 64.9427 5.20215L64.9134 5.16728L64.8489 5.12078L64.7141 5.02196L64.6672 4.98709L64.5968 4.95804L64.5206 4.91734L52.9236 0.0755649C52.8478 0.0436778 52.7693 0.0183922 52.6891 0H52.607H52.4194H26.8803H26.6809H26.6106C26.5284 0.0180937 26.4479 0.043383 26.3702 0.0755649L14.7732 4.91734L14.697 4.95804L14.6208 4.99291L14.5739 5.02778L14.439 5.12078L14.3745 5.16728L14.3452 5.20215C14.3056 5.24253 14.2684 5.28523 14.2338 5.33002L14.1752 5.39397C14.1426 5.4444 14.1132 5.49681 14.0873 5.5509C14.0873 5.5509 14.0579 5.5974 14.0462 5.62647L10.0183 14.6881C9.9488 14.8462 9.90906 15.0157 9.90109 15.188L0.0864611 37.8101C0.050617 37.8945 0.0231276 37.9821 0.00437977 38.0717C0.00437977 38.0717 0.00437977 38.1182 0.00437977 38.1472C-0.00145992 38.2208 -0.00145992 38.2946 0.00437977 38.3681C0.00437977 38.3681 0.00437977 38.3972 0.00437977 38.4146C0.00437977 38.432 0.00437977 38.4146 0.00437977 38.4495C0.00827244 38.5356 0.0200453 38.6212 0.0395562 38.7052V38.7343C0.0659275 38.8247 0.101278 38.9123 0.14509 38.9959L0.186131 39.0656C0.222456 39.1287 0.263622 39.1889 0.309257 39.2458L0.362022 39.3097C0.422267 39.378 0.489027 39.4402 0.561365 39.4957L11.1734 47.2554L38.3952 69.3079C38.4282 69.3667 38.4654 69.423 38.5066 69.4764C38.6405 69.6397 38.8095 69.7713 39.0011 69.8618C39.1928 69.9523 39.4024 69.9993 39.6147 69.9996H39.7085C39.9554 70.0058 40.1994 69.9452 40.4142 69.8244C40.6291 69.7036 40.8067 69.527 40.928 69.3137L54.2487 58.5199C53.6562 57.7311 53.2259 56.8345 52.9823 55.8811L39.6205 66.6574L13.9993 45.9011L21.6622 36.5662L30.9726 50.1674V54.7477C30.9725 54.9979 31.0392 55.2436 31.1658 55.4601C31.2925 55.6765 31.4746 55.8558 31.6938 55.9799L38.5359 59.8859C38.6687 60.0293 38.8299 60.1441 39.0095 60.2231C39.189 60.3022 39.3831 60.3437 39.5795 60.3451H39.6498H39.7202C39.9162 60.3444 40.11 60.3038 40.2895 60.2258C40.469 60.1478 40.6305 60.0341 40.7638 59.8917L47.5883 56.0089C47.8075 55.8849 47.9896 55.7055 48.1163 55.4891C48.2429 55.2727 48.3096 55.0269 48.3095 54.7767V50.1965L57.6199 36.5953L62.8966 43.0181L65.9688 46.7439L66.2384 47.0752L67.1003 48.1214L68.1732 47.2496L78.7852 39.4899C78.8575 39.4344 78.9243 39.3721 78.9846 39.3039L79.0373 39.24C79.083 39.1832 79.1242 39.1229 79.1605 39.0598L79.2015 38.99C79.2453 38.9065 79.2807 38.8189 79.307 38.7285V38.6994C79.3266 38.6154 79.3384 38.5298 79.3422 38.4437C79.3422 38.4437 79.3422 38.4437 79.3422 38.4088C79.3422 38.3739 79.3422 38.3797 79.3422 38.3623C79.3377 38.2801 79.3259 38.1984 79.307 38.1182ZM74.1124 33.2066L59.7305 20.8377L67.1707 17.2107L74.1124 33.2066ZM50.6605 23.9532H47.1427L45.1669 16.0482H49.7811L54.8643 20.4192L50.6605 23.9532ZM39.6029 45.6395L33.4937 39.7631H45.7473L39.6029 45.6395ZM39.6733 36.9208H31.7876L37.0115 16.0482H42.2354L47.4593 36.9208H39.7085H39.6733ZM28.5336 23.9474L24.3357 20.4192L29.4189 16.0482H34.0331L32.0866 23.9532H28.5688L28.5336 23.9474ZM15.9282 8.2537L21.3867 11.6482L26.4816 14.816L21.8322 18.8208L13.1785 14.6009L15.9282 8.2537ZM52.7008 14.8102L57.7958 11.6424L63.2542 8.2479L66.0039 14.5893L57.3502 18.8091L52.7008 14.8102ZM49.9218 13.1827H46.0346L52.8709 3.06317L60.8445 6.39372L49.9218 13.1827ZM49.6579 2.72023L42.5931 13.1827H36.6539L29.589 2.72023H49.6755H49.6579ZM26.3761 3.06317L33.2123 13.1827H29.3251L18.4024 6.39372L26.3761 3.06317ZM12.0821 17.1758L19.5222 20.8028L5.1169 33.2066L12.0821 17.1758ZM22.4889 22.5291L26.0829 25.5458L11.7186 44.1457L3.66874 38.2577L22.4889 22.5291ZM23.2921 33.8751L28.774 26.7897H31.4006L28.5688 38.0019C28.5688 38.0019 28.5688 38.0019 28.5688 38.0426C28.5639 38.1103 28.5639 38.1783 28.5688 38.246C28.5688 38.2751 28.5688 38.31 28.5688 38.339C28.5681 38.4386 28.5779 38.538 28.5981 38.6355C28.6196 38.7314 28.651 38.8249 28.6919 38.9145L28.733 38.9959C28.7655 39.0586 28.8028 39.1188 28.8444 39.176V39.2109L28.903 39.269C28.903 39.269 28.9499 39.3272 28.9792 39.3562L36.9353 46.988L33.0188 48.104L23.2921 33.8751ZM45.4366 53.9513L39.644 57.247L33.8455 53.9513V50.8242L39.6323 49.1735L45.4249 50.8242V53.9513H45.4366ZM46.2633 48.1098L42.3468 46.9938L50.2618 39.3388C50.2618 39.3388 50.3087 39.2807 50.3381 39.2516L50.3967 39.1935V39.1586C50.4383 39.1014 50.4755 39.0412 50.5081 38.9784L50.5491 38.897C50.5901 38.8075 50.6215 38.714 50.6429 38.618C50.6632 38.5205 50.673 38.4212 50.6722 38.3216C50.6722 38.2925 50.6722 38.2577 50.6722 38.2286C50.6772 38.1609 50.6772 38.0929 50.6722 38.0252C50.6722 38.0252 50.6722 38.0252 50.6722 37.9845L47.8697 26.7722H50.4963L55.9782 33.8576L46.2633 48.1098ZM67.5576 44.1573L53.1933 25.5574L56.7873 22.5408L75.6134 38.2344L67.5576 44.1573Z" fill="#151F28"/>
<path d="M107.174 61.188L103.421 48.1506H100.138L96.3857 61.188L92.9324 48.1506H88.9045L94.275 65.402H98.3264L101.78 53.6492L105.239 65.402H109.29L114.655 48.1506H110.633L107.174 61.188Z" fill="#151F28"/>
<path d="M120.705 58.305H128.485V55.0791H120.705V51.4056H129.236V48.1506H116.982V65.402H129.382V62.1471H120.705V58.305Z" fill="#151F28"/>
<path d="M143.226 56.2823C144.028 56.0374 144.723 55.5323 145.201 54.8481C145.678 54.1639 145.91 53.3404 145.858 52.51C145.858 49.5514 143.548 48.1506 139.843 48.1506H132.221V65.402H139.702C142.733 65.402 146.538 64.4895 146.538 60.5719C146.577 59.5862 146.267 58.6181 145.662 57.8348C145.057 57.0515 144.195 56.5024 143.226 56.2823ZM135.967 51.3707H139.52C141.162 51.3707 142.153 51.9869 142.153 53.3412C142.153 54.6955 141.132 55.3116 139.719 55.3116H135.967V51.3707ZM139.673 62.4144H135.944V57.9388H139.872C141.361 57.9388 142.803 58.3341 142.803 60.1592C142.803 61.9843 141.338 62.397 139.673 62.397V62.4144Z" fill="#151F28"/>
<path d="M64.919 51.9519C64.7843 51.403 64.5499 50.883 64.2272 50.4174C63.6535 49.6027 62.8316 48.9916 61.882 48.6737L61.7941 48.6388C61.2044 48.4505 60.5829 48.3808 59.9657 48.4337C59.3486 48.4866 58.7483 48.6611 58.2 48.9469C57.533 49.2932 56.9599 49.7936 56.5291 50.4058C56.1982 50.8754 55.9577 51.4015 55.8197 51.9577C55.8197 52.0159 55.7904 52.0682 55.7786 52.1263C55.6199 52.8079 55.6184 53.5162 55.7741 54.1985C55.9299 54.8808 56.2389 55.5195 56.6781 56.0669C57.1174 56.6144 57.6756 57.0565 58.3111 57.3604C58.9467 57.6644 59.6432 57.8222 60.3488 57.8222C61.0544 57.8222 61.751 57.6644 62.3865 57.3604C63.0221 57.0565 63.5803 56.6144 64.0195 56.0669C64.4588 55.5195 64.7678 54.8808 64.9235 54.1985C65.0793 53.5162 65.0777 52.8079 64.919 52.1263C64.919 52.0624 64.919 52.0101 64.919 51.9519Z" fill="#00EC90"/>
</svg>
