<?xml version="1.0" standalone="no"?>
<!DOCTYPE svg PUBLIC "-//W3C//DTD SVG 20010904//EN"
 "http://www.w3.org/TR/2001/REC-SVG-20010904/DTD/svg10.dtd">
<svg version="1.0" xmlns="http://www.w3.org/2000/svg"
 width="700.000000pt" height="700.000000pt" viewBox="0 0 700.000000 700.000000"
 preserveAspectRatio="xMidYMid meet">
<metadata>
Created by potrace 1.11, written by Peter Selinger 2001-2013
</metadata>
<g transform="translate(0.000000,700.000000) scale(0.100000,-0.100000)"
fill="#000000" stroke="none">
<path d="M3879 6085 c-2 -2 -29 -6 -59 -10 -30 -3 -80 -10 -110 -15 -30 -5
-68 -12 -85 -14 -98 -17 -128 -25 -136 -37 -13 -21 -11 -27 11 -31 26 -4 27 1
-20 -148 -22 -69 -46 -156 -55 -195 -9 -38 -18 -74 -19 -80 -2 -5 -6 -31 -10
-56 -9 -55 -13 -61 -48 -76 -45 -20 -57 -9 -46 40 5 23 10 74 10 113 2 81 -15
119 -57 130 -14 3 -25 8 -25 11 0 10 74 120 97 145 14 15 38 30 54 33 36 8
100 104 71 106 -92 8 -146 -43 -271 -253 -13 -21 -27 -38 -32 -38 -12 0 -13
-7 17 85 18 57 35 90 60 114 19 18 32 37 29 41 -4 7 -74 -15 -205 -65 -70 -26
-207 -87 -322 -142 l-118 -56 -11 -60 c-12 -57 -13 -59 -28 -39 -24 29 -55 42
-84 34 -53 -14 -155 -114 -228 -222 -29 -43 -44 -113 -55 -247 l-6 -83 25 0
c38 0 51 -23 27 -45 -17 -15 -28 -55 -16 -55 11 0 156 86 190 113 21 17 53 54
71 81 29 46 38 77 51 181 12 100 28 174 35 169 24 -14 49 11 75 76 23 55 35
72 61 84 18 9 33 12 33 6 0 -5 -11 -55 -25 -112 -14 -57 -32 -157 -40 -223
-13 -108 -18 -122 -40 -138 -14 -10 -25 -27 -25 -38 0 -18 3 -18 68 7 37 14
83 31 102 37 42 14 51 53 13 51 -27 -2 -27 -11 -7 127 18 132 68 338 86 355 7
6 26 15 41 18 24 6 28 4 24 -11 -3 -10 -9 -37 -12 -61 l-7 -44 30 16 c25 13
35 30 56 94 21 62 30 78 47 79 16 2 19 -2 14 -15 -27 -66 -84 -321 -100 -444
-4 -33 -12 -51 -29 -62 -13 -8 -26 -24 -29 -35 -3 -12 -4 -21 -4 -21 1 0 45
13 97 29 75 23 96 33 98 48 2 13 -4 22 -16 25 -20 6 -20 10 12 163 2 11 7 39
11 63 4 23 10 42 13 43 4 0 15 2 25 4 41 8 57 -58 41 -167 -4 -29 -8 -57 -8
-61 -1 -5 -10 -16 -22 -25 -22 -17 -39 -52 -26 -52 4 0 72 13 152 29 80 16
166 32 193 36 37 5 47 10 47 25 0 11 -7 23 -16 28 -16 9 -13 33 21 182 2 8 4
22 4 31 1 10 20 23 49 34 108 40 198 119 242 213 36 76 69 172 60 177 -4 2 -9
3 -11 0z m-129 -86 c0 -7 -10 -39 -22 -73 -16 -44 -37 -76 -74 -113 -49 -49
-88 -69 -79 -40 25 80 68 213 71 216 1 1 20 5 41 8 21 3 40 7 42 9 9 8 21 4
21 -7z m-1299 -486 c7 -19 7 -47 -1 -93 -6 -36 -13 -83 -15 -105 -13 -111 -18
-142 -31 -166 -15 -29 -44 -57 -44 -41 0 6 -13 23 -29 37 -32 31 -32 34 -5
184 17 96 33 139 66 181 29 36 46 37 59 3z"/>
<path d="M3907 6071 c-3 -13 2 -25 14 -33 18 -12 16 -20 -39 -183 -32 -93 -63
-190 -70 -215 -6 -25 -19 -72 -28 -106 -14 -51 -21 -62 -45 -71 -39 -15 -40
-51 -1 -50 43 1 285 -13 309 -17 25 -5 34 5 50 54 49 149 60 265 29 316 -21
34 -72 64 -111 64 l-25 0 35 96 c19 53 36 98 39 101 4 4 31 11 52 12 6 1 15
11 21 24 l10 22 -117 3 c-109 2 -118 1 -123 -17z m114 -327 c21 -25 19 -98 -5
-187 l-21 -82 -52 -1 c-34 0 -53 4 -53 11 0 15 53 202 71 253 10 26 41 29 60
6z"/>
<path d="M4347 6041 c-3 -13 2 -25 14 -33 19 -13 18 -18 -35 -148 -30 -74 -76
-197 -101 -272 -44 -128 -49 -137 -76 -143 -21 -5 -29 -12 -29 -29 0 -20 8
-23 78 -34 42 -6 87 -14 100 -16 33 -7 41 22 13 45 l-22 18 50 133 c27 73 75
196 108 272 52 125 61 141 88 149 28 9 44 23 45 38 0 6 -183 39 -213 39 -8 0
-17 -9 -20 -19z"/>
<path d="M4586 6004 c-4 -11 0 -25 12 -37 19 -19 19 -20 -20 -111 -48 -111
-151 -367 -167 -418 -12 -36 -20 -42 -48 -39 -11 2 -39 -37 -31 -43 2 -2 64
-18 138 -36 74 -18 192 -50 262 -70 121 -36 127 -37 131 -18 3 11 -2 27 -12
36 -17 16 -17 19 5 64 13 26 27 49 32 52 5 3 34 -5 66 -16 53 -20 57 -23 51
-47 -15 -58 -34 -89 -57 -93 -15 -2 -23 -10 -23 -22 0 -14 19 -26 75 -47 41
-16 89 -35 105 -43 17 -8 53 -24 82 -35 l52 -20 6 20 c4 11 2 26 -4 33 -12 15
-4 36 39 96 57 81 106 115 145 100 l27 -10 -25 -43 c-14 -23 -37 -64 -52 -92
-45 -80 -49 -86 -65 -83 -19 3 -40 -10 -40 -25 0 -7 39 -32 86 -57 70 -36 87
-42 94 -30 6 10 4 23 -6 38 -12 18 -12 27 -3 45 21 40 191 321 220 364 16 23
29 45 29 48 0 4 9 20 20 36 18 24 24 27 45 19 20 -8 25 -6 30 11 4 11 5 21 3
23 -84 54 -322 186 -336 186 -12 0 -87 -154 -101 -206 -6 -23 -8 -65 -5 -95
l5 -54 -45 -24 c-55 -28 -122 -95 -151 -149 -18 -33 -24 -38 -42 -31 -24 9
-36 -38 111 423 37 115 66 209 64 210 -7 5 -175 66 -181 66 -3 0 -11 -9 -17
-20 -9 -17 -6 -22 25 -37 19 -9 35 -20 35 -24 0 -3 -17 -19 -37 -35 -64 -47
-226 -215 -274 -284 -26 -36 -58 -89 -73 -117 -14 -29 -31 -53 -36 -53 -15 0
-13 11 15 84 32 86 39 155 20 209 -14 40 -14 43 6 57 72 51 112 99 151 177 23
45 39 86 35 89 -5 6 -262 74 -333 89 -25 5 -33 2 -38 -11z m233 -110 c9 -8
-42 -96 -77 -135 -30 -34 -87 -67 -97 -57 -3 3 16 52 41 110 l46 106 41 -10
c23 -5 44 -11 46 -14z m271 -336 c-21 -62 -41 -120 -45 -129 -5 -14 -11 -14
-55 0 -28 8 -50 18 -50 22 0 16 171 219 185 219 2 0 -13 -51 -35 -112z m-420
1 c0 -37 -40 -180 -55 -197 -5 -6 -105 20 -105 28 0 4 20 56 44 116 35 88 48
110 67 115 36 9 49 -8 49 -62z m907 48 l43 -22 -61 -105 c-33 -58 -64 -109
-69 -114 -14 -14 -42 42 -42 83 1 42 60 180 77 180 6 0 29 -10 52 -22z"/>
<path d="M1467 5434 c-1 -1 -36 -5 -77 -8 -132 -12 -365 -73 -395 -103 -38
-38 15 -50 115 -26 30 7 73 15 95 18 22 3 51 7 65 10 57 12 260 5 325 -10 314
-72 324 -343 25 -672 -256 -281 -362 -425 -427 -578 -108 -253 -85 -511 60
-682 72 -85 154 -146 336 -251 11 -6 11 -15 -2 -53 -33 -96 -49 -268 -32 -349
2 -14 7 -38 11 -55 8 -41 17 -70 65 -215 71 -212 171 -438 404 -915 70 -143
161 -330 201 -415 80 -167 94 -190 121 -190 31 0 41 13 86 110 24 52 118 246
209 430 91 184 187 382 213 440 27 58 54 111 60 118 9 10 25 -16 70 -115 33
-70 113 -236 178 -368 142 -287 250 -508 282 -580 24 -56 53 -80 84 -70 11 3
36 43 62 98 24 51 91 187 148 302 122 247 245 502 290 600 18 39 42 89 54 112
l20 43 19 -43 c49 -109 125 -267 269 -557 85 -173 173 -353 194 -400 48 -105
62 -122 94 -118 30 3 14 -26 277 513 347 710 436 919 510 1200 33 125 23 321
-22 438 -3 10 19 24 73 48 487 210 654 482 482 785 -36 64 -74 112 -153 194
-175 182 -201 325 -71 390 43 21 62 24 147 23 54 -1 100 3 103 8 16 24 -7 48
-56 58 -224 48 -392 -52 -391 -232 0 -108 55 -221 163 -337 83 -89 126 -146
155 -207 95 -201 -50 -391 -419 -549 -43 -19 -84 -34 -90 -34 -7 0 -23 18 -36
39 -30 49 -130 152 -195 201 -94 71 -235 131 -346 148 -25 4 -90 7 -145 7
-129 0 -186 -10 -295 -53 -81 -32 -187 -99 -250 -158 l-48 -45 -61 49 c-293
236 -757 224 -1033 -27 l-27 -24 -48 44 c-105 98 -249 174 -389 204 -64 14
-259 13 -329 -2 -193 -41 -402 -177 -496 -324 l-31 -48 -61 31 c-187 94 -311
229 -337 366 -12 64 -5 195 14 264 37 137 141 304 298 481 34 37 72 79 85 95
70 78 163 192 190 232 126 187 164 386 98 508 -71 130 -224 202 -438 206 -27
1 -49 0 -50 0z m1042 -1914 c12 -6 21 -9 21 -6 0 10 115 -35 169 -65 272 -152
415 -459 352 -754 -17 -76 -43 -167 -61 -210 -4 -11 -11 -28 -14 -37 -5 -16
-11 -15 -61 11 -65 34 -99 33 -172 -3 -28 -14 -58 -26 -66 -26 -8 0 -43 13
-78 30 -72 34 -105 33 -172 -6 -53 -30 -76 -30 -136 1 -70 37 -100 38 -171 4
-34 -16 -68 -29 -76 -29 -8 0 -42 13 -75 29 -72 34 -107 33 -173 -4 -25 -14
-47 -22 -49 -17 -10 15 -66 201 -82 267 -9 39 -17 104 -17 145 0 70 23 200 40
227 6 9 28 5 87 -17 44 -17 129 -44 190 -61 60 -17 111 -32 114 -34 2 -2 6
-24 8 -47 11 -97 63 -172 152 -216 181 -90 394 47 387 248 -3 77 -23 125 -74
182 -97 106 -281 108 -386 3 l-37 -37 -102 27 c-91 24 -154 44 -239 77 -34 13
-29 24 48 107 112 122 250 192 439 224 42 7 215 -2 234 -13z m2324 1 c317 -68
555 -356 558 -678 1 -95 -28 -235 -73 -346 l-11 -28 -21 21 c-53 49 -175 41
-224 -14 l-29 -33 -27 33 c-54 68 -197 67 -242 -1 l-17 -26 -21 24 c-31 36
-65 54 -113 56 -34 2 -42 -1 -48 -19 -9 -28 11 -50 44 -50 32 0 50 -13 80 -57
29 -43 69 -45 106 -6 14 15 25 31 25 34 0 14 60 31 89 24 25 -5 65 -44 87 -83
1 -1 16 -4 33 -7 24 -3 37 2 49 17 47 59 61 68 106 68 45 0 66 -12 86 -51 8
-15 -4 -51 -58 -176 l-67 -158 -50 -5 c-59 -7 -86 -20 -109 -54 l-16 -26 -33
36 c-59 65 -176 65 -232 1 -30 -34 -31 -35 -40 -15 -24 52 -126 86 -159 53
-25 -25 -16 -38 38 -56 34 -12 53 -25 68 -50 11 -19 21 -35 22 -36 0 -1 14 -5
29 -8 24 -7 33 -2 70 38 63 69 124 68 171 -3 22 -34 32 -40 61 -40 29 0 39 6
57 35 20 30 72 65 82 54 4 -5 -34 -84 -260 -543 l-163 -330 -162 330 c-163
332 -269 552 -269 559 0 1 -18 41 -40 88 -22 46 -40 91 -40 99 0 34 61 54 110
36 14 -5 38 -27 53 -49 25 -36 31 -40 60 -35 18 3 37 13 42 22 27 46 51 65 85
66 54 2 75 -9 104 -52 36 -55 73 -55 117 0 18 22 39 42 48 44 9 2 28 7 44 10
20 5 27 12 27 30 0 57 -108 44 -158 -19 l-20 -25 -16 25 c-24 36 -71 56 -131
56 -49 0 -125 -24 -125 -40 0 -3 -4 -12 -9 -20 -7 -11 -16 -7 -43 22 -28 29
-44 37 -86 43 -29 3 -52 10 -52 15 0 4 13 43 29 86 48 132 82 285 84 381 l2
87 39 6 c32 5 39 3 43 -12 21 -77 105 -165 183 -188 174 -52 351 78 352 258 2
156 -128 279 -284 269 -107 -7 -199 -71 -237 -165 -11 -28 -19 -32 -64 -38
-42 -6 -53 -4 -64 11 -7 10 -13 24 -13 32 0 24 -68 157 -104 206 l-35 45 42
41 c93 94 247 172 367 186 25 3 46 7 48 9 7 7 173 -3 225 -14z m-1125 -51
c309 -85 520 -357 525 -675 0 -52 -12 -147 -21 -162 -4 -7 -60 -23 -125 -37
-350 -76 -743 -199 -976 -307 -46 -22 -86 -38 -87 -36 -2 2 9 37 25 78 70 182
139 437 125 460 -3 5 0 17 6 28 7 14 17 18 37 15 44 -7 53 -12 53 -30 0 -17
38 -74 71 -106 62 -61 191 -85 276 -53 217 83 234 388 28 498 -55 30 -182 31
-240 2 -56 -28 -121 -97 -137 -147 -14 -40 -17 -43 -52 -43 -21 0 -41 2 -45 5
-4 3 -12 28 -18 55 -17 76 -49 154 -89 221 l-36 59 48 43 c53 46 182 112 254
131 132 33 259 33 378 1z m456 -1003 c-23 -70 -28 -77 -52 -77 -30 -1 -282
-46 -288 -53 -2 -2 -1 -18 2 -36 6 -27 10 -32 28 -27 37 11 248 47 251 44 1
-2 -13 -40 -32 -85 l-34 -81 -77 -17 c-200 -42 -464 -134 -681 -236 -68 -33
-125 -59 -126 -59 -2 0 -65 129 -65 134 0 1 62 33 139 70 l139 68 -12 29 c-14
38 -19 36 -179 -40 l-122 -58 -22 51 c-12 28 -22 56 -23 62 0 13 129 75 270
129 52 20 104 41 115 45 53 23 355 114 480 145 177 43 309 73 312 70 2 -1 -9
-36 -23 -78z m-2121 -109 c18 0 55 11 84 26 65 33 91 33 153 0 27 -14 66 -26
85 -26 19 0 54 11 79 26 56 33 89 33 154 0 68 -34 95 -33 171 4 69 33 63 34
153 -8 l27 -13 -19 -46 c-11 -29 -23 -44 -32 -42 -51 17 -98 11 -154 -17 -64
-32 -63 -32 -144 6 -68 31 -99 30 -162 -2 -62 -33 -86 -32 -150 0 -28 14 -66
26 -83 26 -17 0 -55 -12 -83 -26 -65 -33 -90 -33 -155 0 -53 28 -102 33 -136
14 -16 -8 -21 -4 -35 30 -22 54 -21 57 16 76 63 33 79 33 141 2 32 -16 72 -29
90 -30z m-90 -164 c66 -33 117 -33 181 1 61 31 75 31 134 1 74 -37 102 -38
172 -5 75 35 93 36 150 3 59 -33 102 -34 174 -1 61 28 83 32 104 19 10 -7 7
-20 -10 -60 -18 -40 -29 -52 -52 -58 -16 -3 -45 -15 -63 -25 -51 -29 -72 -29
-138 3 -76 35 -97 35 -178 -3 l-66 -30 -70 30 c-84 37 -102 38 -167 7 -78 -38
-81 -38 -149 -6 -35 17 -70 30 -78 30 -20 0 -60 102 -44 112 21 13 45 9 100
-18z m2047 -129 c0 -10 -158 -342 -316 -663 l-158 -323 -168 342 c-92 188
-168 345 -168 349 0 11 221 113 365 168 117 45 276 96 337 108 13 2 37 8 53
13 36 11 55 13 55 6z m-1716 -66 c75 -35 91 -35 178 5 63 29 73 28 144 -8 62
-31 85 -32 143 -6 24 11 45 20 46 20 2 0 -26 -62 -62 -137 -36 -76 -88 -185
-115 -243 -115 -244 -242 -500 -248 -500 -3 0 -40 71 -82 158 -42 86 -138 282
-213 435 -76 153 -135 280 -133 283 3 2 23 -5 46 -16 52 -25 76 -25 132 2 43
21 77 35 91 37 4 1 37 -13 73 -30z"/>
<path d="M3580 2267 c-147 -50 -155 -54 -152 -77 1 -14 6 -28 11 -33 5 -5 80
15 168 45 l159 53 -8 33 c-5 17 -12 32 -16 32 -4 -1 -77 -24 -162 -53z"/>
<path d="M3587 5314 c-1 -1 -35 -4 -75 -8 -134 -11 -153 -16 -150 -40 2 -11 8
-21 13 -21 27 -1 31 -16 23 -77 -4 -35 -8 -154 -8 -265 l-1 -201 -24 -16 c-16
-10 -22 -22 -18 -32 5 -13 18 -15 77 -10 39 3 118 6 174 7 l104 1 -5 112 c-2
61 -11 131 -18 155 -19 63 -73 117 -133 132 l-48 12 7 91 c3 50 7 91 8 92 3 3
77 6 98 5 12 -1 17 -10 17 -33 -2 -101 0 -107 31 -106 26 1 31 6 40 42 5 23
12 57 16 76 3 19 8 48 11 63 l6 28 -72 -3 c-39 -2 -72 -4 -73 -4z m-40 -356
c11 -13 26 -33 32 -46 14 -27 27 -192 15 -193 -5 0 -26 -2 -46 -4 -22 -2 -41
1 -45 8 -4 7 -8 67 -9 135 -2 109 0 122 15 122 10 0 27 -10 38 -22z"/>
<path d="M3753 5301 c-1 -12 6 -23 19 -27 21 -6 22 -25 3 -171 -9 -68 -14
-155 -14 -280 -1 -113 -2 -122 -21 -128 -11 -3 -20 -15 -20 -26 0 -16 8 -19
43 -20 23 -1 65 -3 94 -5 44 -3 51 -1 48 14 -2 9 -4 20 -4 25 -1 4 -8 7 -16 7
-18 0 -19 15 -16 191 l1 56 38 7 c73 11 148 85 173 168 7 23 39 174 39 183 0
1 -8 1 -17 1 -10 0 -49 4 -88 7 -38 4 -113 9 -165 13 -91 5 -96 4 -97 -15z
m244 -64 c5 -5 -22 -125 -35 -157 -11 -28 -48 -64 -74 -73 -13 -4 -16 -1 -13
16 2 12 7 45 9 72 3 28 9 74 12 102 l6 53 46 -5 c25 -3 47 -6 49 -8z"/>
<path d="M4155 5270 c-3 -5 -4 -10 -1 -10 2 0 -2 -24 -10 -52 -24 -90 -20
-163 14 -229 29 -57 30 -58 11 -75 -32 -29 -68 -116 -72 -172 -4 -49 -20 -78
-38 -66 -4 2 -9 -5 -12 -17 -6 -24 -4 -25 90 -38 91 -14 90 -14 97 4 4 10 -3
20 -19 27 -24 11 -25 15 -20 67 11 116 41 176 82 165 20 -6 21 -11 18 -92 -2
-48 -4 -101 -4 -118 -1 -22 -7 -33 -19 -36 -23 -6 -25 -36 -3 -42 9 -3 32 -7
51 -10 19 -4 53 -10 75 -15 29 -7 42 -7 47 2 5 8 8 7 8 -4 0 -11 22 -20 78
-34 42 -10 82 -19 87 -22 19 -7 14 37 -6 50 -17 12 -19 23 -15 103 2 49 5 113
5 141 l1 53 51 -31 50 -32 -7 -121 c-3 -66 -8 -124 -10 -128 -3 -4 -11 -5 -19
-1 -11 4 -15 -2 -15 -19 0 -22 9 -27 88 -50 75 -22 87 -23 91 -9 2 8 -7 23
-19 33 -22 18 -22 22 -17 146 4 70 8 136 10 147 3 11 7 38 11 60 4 22 16 75
28 118 18 68 23 77 44 77 13 0 28 9 34 19 9 18 2 22 -81 50 -51 17 -96 28
-100 25 -14 -8 -10 -32 6 -42 14 -7 12 -21 -10 -117 -14 -60 -28 -111 -29
-113 -2 -1 -24 11 -49 28 l-45 30 10 42 c23 108 39 148 58 148 16 0 30 18 30
40 0 4 -10 10 -22 14 -13 3 -54 14 -91 25 -59 17 -69 18 -74 5 -3 -8 3 -24 13
-35 17 -19 17 -22 0 -94 -10 -42 -20 -90 -22 -108 -3 -17 -7 -42 -9 -54 -5
-22 -15 -160 -18 -257 -2 -59 -27 -76 -66 -45 -23 18 -23 21 -18 161 5 128 22
292 33 309 2 4 6 24 10 45 8 49 7 49 48 53 7 0 16 10 19 20 4 18 -5 22 -82 40
-85 20 -246 51 -262 51 -4 0 -11 -4 -14 -10z m186 -86 c4 -2 1 -32 -7 -67 -7
-35 -16 -86 -20 -113 -8 -65 -12 -69 -40 -43 -38 35 -48 107 -29 204 2 11 4
24 4 28 1 8 77 0 92 -9z"/>
<path d="M3186 5260 c-37 -11 -82 -55 -106 -100 -9 -19 -24 -48 -33 -65 -15
-29 -19 -97 -18 -302 1 -63 3 -72 21 -78 11 -4 28 -18 37 -32 16 -24 16 -26 0
-38 -9 -7 -17 -21 -17 -32 0 -20 2 -20 81 -7 44 7 91 20 104 28 49 32 95 116
95 172 0 22 -4 24 -55 24 -51 0 -55 -2 -55 -24 0 -31 -19 -87 -36 -105 -11
-13 -14 -12 -20 5 -4 10 -17 33 -30 50 -16 22 -23 47 -25 87 -1 31 0 60 4 63
3 4 29 8 58 11 82 7 97 16 93 54 -2 18 -5 33 -7 35 -1 1 -31 -4 -67 -11 -94
-20 -89 -23 -83 47 5 72 35 148 57 148 18 0 56 -69 56 -100 0 -11 5 -20 11
-20 18 0 99 51 99 63 0 27 -43 94 -73 115 -36 24 -46 25 -91 12z"/>
<path d="M2829 5154 c-130 -42 -168 -58 -172 -73 -4 -15 1 -21 20 -23 l24 -3
5 -200 c2 -110 6 -219 8 -243 4 -34 1 -44 -15 -52 -22 -13 -27 -55 -5 -47 8 3
33 11 55 16 23 6 59 16 81 21 36 10 39 13 30 31 -6 11 -15 17 -20 14 -13 -8
-18 19 -26 122 l-6 92 41 20 c90 46 145 131 156 242 4 35 8 74 10 87 4 25 -3
52 -14 52 -3 -1 -81 -25 -172 -56z m76 -65 c-3 -12 -5 -39 -7 -60 -2 -48 -36
-117 -66 -137 l-22 -14 0 105 0 105 43 15 c49 17 57 14 52 -14z"/>
<path d="M2495 5033 c-16 -8 -39 -25 -50 -37 -33 -34 -82 -120 -90 -156 l-7
-34 -14 27 c-17 32 -62 57 -103 57 -45 0 -95 -50 -142 -143 l-41 -82 6 -128
c7 -159 12 -177 40 -177 37 0 49 -21 26 -45 -12 -13 -16 -25 -11 -34 7 -10 23
-5 77 25 38 21 83 52 101 69 33 32 77 127 65 140 -13 15 53 -6 68 -21 13 -14
13 -17 -3 -29 -10 -7 -17 -22 -15 -33 3 -19 5 -19 68 7 36 14 82 36 101 48 42
27 86 102 93 159 l5 42 -52 -12 c-52 -11 -52 -12 -58 -57 -4 -26 -14 -59 -22
-75 l-15 -28 -16 32 c-9 17 -22 35 -30 39 -9 5 -16 28 -18 63 l-3 54 73 25 72
25 0 38 c0 21 -2 38 -5 38 -3 0 -35 -13 -72 -30 -36 -16 -67 -30 -69 -30 -2 0
-4 30 -4 66 0 69 22 134 45 134 17 0 55 -52 55 -74 0 -25 24 -19 68 17 48 38
47 56 -4 105 -38 36 -71 40 -119 15z m-277 -246 c11 -12 25 -32 29 -45 9 -23
9 -23 52 18 23 23 44 40 46 38 1 -2 5 -53 8 -114 l5 -110 -48 -17 c-46 -16
-47 -18 -53 -65 -3 -26 -11 -60 -18 -75 l-12 -27 -33 36 c-30 32 -34 44 -39
113 -14 178 -11 222 18 259 13 17 20 15 45 -11z"/>
<path d="M5025 5017 c-91 -36 -129 -80 -139 -161 -4 -27 -9 -52 -11 -55 -1 -3
-6 -40 -10 -81 -3 -41 -8 -87 -11 -102 -3 -20 4 -40 26 -69 36 -50 37 -59 9
-83 -27 -23 -19 -31 67 -61 80 -29 105 -30 143 -10 41 20 50 50 67 212 2 23
11 71 19 105 28 118 11 240 -38 286 -29 28 -81 36 -122 19z m61 -85 c11 -40
11 -140 0 -212 -4 -25 -14 -90 -22 -145 -21 -146 -46 -161 -86 -53 -23 59 -25
86 -14 173 16 132 36 208 61 241 33 44 49 43 61 -4z"/>
<path d="M5332 4865 c-66 -20 -109 -52 -119 -90 -14 -55 -29 -146 -39 -245 -6
-60 -4 -69 20 -104 29 -44 33 -66 11 -66 -8 0 -15 -9 -15 -20 0 -20 58 -51
137 -73 50 -13 80 -1 106 43 26 43 21 64 -21 94 -21 14 -40 26 -43 26 -3 0
-11 -17 -17 -39 -7 -21 -19 -44 -27 -51 -12 -10 -15 -7 -20 17 -4 15 -14 46
-23 68 -15 34 -20 131 -7 143 2 2 30 -12 62 -31 31 -20 61 -33 65 -31 5 3 8
20 8 37 0 29 -6 35 -63 64 -56 28 -62 34 -59 60 9 73 74 164 99 139 5 -4 9
-41 9 -83 1 -41 5 -78 10 -83 5 -4 27 -10 49 -12 l40 -3 3 43 c4 50 -20 140
-45 171 -26 31 -70 40 -121 26z"/>
<path d="M3373 4578 c-50 -13 -122 -115 -123 -175 0 -33 92 -347 103 -352 5
-2 28 -20 49 -39 34 -31 38 -38 24 -47 -9 -7 -13 -20 -9 -33 5 -20 12 -22 67
-21 93 2 118 10 143 48 25 36 32 122 13 151 -5 8 -10 12 -10 9 0 -3 -20 -3
-45 1 l-44 7 1 -63 c2 -68 -7 -90 -24 -59 -6 10 -28 37 -48 59 -35 39 -78 141
-65 155 4 3 37 6 73 6 49 0 66 3 64 13 -1 7 -4 22 -5 33 -4 21 -26 41 -38 34
-3 -3 -32 -6 -64 -7 l-58 -3 -14 55 c-15 58 -12 135 6 153 15 15 42 -11 76
-76 15 -28 29 -53 30 -55 2 -2 23 7 49 20 52 25 53 37 8 98 -52 71 -107 102
-159 88z"/>
<path d="M3563 4582 c-32 -5 -28 -29 7 -47 17 -9 30 -17 30 -19 0 -2 5 -28 10
-57 6 -30 13 -70 16 -89 14 -88 34 -173 80 -329 17 -61 17 -64 0 -76 -11 -8
-16 -21 -12 -32 5 -15 19 -18 96 -20 56 -2 90 1 90 8 0 6 -13 22 -29 37 -21
20 -35 51 -55 122 -15 52 -29 103 -32 113 -3 11 0 17 10 17 26 0 80 30 99 56
32 42 38 103 23 237 -7 58 -11 68 -29 72 -26 6 -273 11 -304 7z m234 -92 c17
-114 1 -203 -38 -213 -14 -4 -18 4 -24 42 -3 25 -10 60 -15 76 -4 17 -11 51
-15 77 l-6 47 47 -3 c41 -2 48 -5 51 -26z"/>
<path d="M3999 4543 c-35 -30 -68 -90 -73 -134 -3 -32 0 -48 49 -256 25 -104
30 -115 73 -160 36 -38 43 -49 29 -51 -20 -4 -23 -40 -4 -47 40 -15 128 -21
158 -11 43 14 69 63 69 128 0 47 0 47 -41 58 -22 6 -46 13 -53 16 -9 4 -13
-10 -13 -49 0 -30 -3 -62 -7 -73 -6 -15 -11 -11 -33 26 -14 25 -34 54 -44 66
-19 20 -49 104 -49 136 0 10 6 15 13 13 6 -2 23 -6 37 -9 14 -2 41 -7 61 -11
l37 -7 -11 45 c-9 42 -12 44 -46 45 -77 3 -109 13 -115 35 -22 90 -17 187 9
187 18 0 73 -83 81 -122 4 -18 13 -28 24 -28 26 0 80 21 80 31 0 20 -29 76
-58 112 -68 85 -121 103 -173 60z"/>
<path d="M3117 4539 c-35 -21 -55 -83 -58 -192 -3 -81 -20 -67 -41 33 -14 71
-15 86 -3 103 27 38 10 44 -80 28 -71 -13 -85 -19 -85 -34 0 -10 9 -21 20 -24
21 -6 22 -8 45 -107 21 -93 9 -103 -32 -26 -34 65 -81 125 -107 140 -23 12
-31 11 -61 -3 -40 -19 -41 -23 -18 -72 15 -32 20 -35 48 -29 28 5 34 1 77 -57
l47 -63 -25 -24 c-50 -51 -52 -130 -4 -243 27 -65 27 -66 8 -78 -18 -11 -19
-15 -6 -27 12 -13 26 -13 89 -3 41 7 78 16 83 20 11 10 -21 49 -39 49 -14 0
-64 123 -66 165 -3 53 1 73 17 89 22 22 31 20 39 -11 3 -14 24 -72 46 -127 34
-85 38 -104 28 -122 -22 -43 -8 -46 134 -30 15 2 30 5 32 8 8 8 -26 48 -40 48
-7 0 -20 19 -28 43 -9 23 -30 82 -47 130 -17 49 -29 91 -27 94 7 7 59 -22 79
-44 20 -22 83 -154 93 -196 5 -18 3 -27 -5 -27 -6 0 -10 -10 -8 -22 3 -21 8
-23 63 -23 33 0 75 2 93 5 32 5 32 6 17 28 -9 12 -24 22 -34 22 -12 0 -23 16
-36 53 -50 140 -109 227 -172 253 -29 13 -33 18 -32 52 0 20 6 57 12 82 10 38
16 45 37 45 21 0 26 6 34 43 7 34 6 46 -5 53 -19 12 -60 11 -82 -2z"/>
<path d="M4306 4488 c8 -26 22 -38 45 -38 26 0 28 -9 9 -61 -37 -100 -50 -253
-35 -405 7 -66 6 -72 -13 -78 -13 -5 -18 -13 -15 -25 4 -15 21 -21 79 -30 40
-6 79 -12 86 -13 28 -6 5 44 -25 54 -22 8 -38 224 -29 393 3 40 16 22 37 -50
10 -33 28 -91 40 -130 42 -129 75 -234 75 -240 0 -3 -6 -4 -12 -3 -7 2 -14 -6
-16 -18 -3 -19 8 -23 120 -48 68 -15 173 -40 235 -56 62 -15 114 -26 116 -24
2 3 1 24 -4 47 -4 23 -8 51 -9 61 0 19 0 19 21 0 12 -10 27 -31 35 -46 13 -25
13 -28 -1 -28 -11 0 -15 -7 -13 -22 2 -19 15 -26 72 -41 87 -23 121 -16 147
33 29 53 25 96 -8 113 -61 31 -70 30 -71 -6 -1 -19 -6 -46 -12 -61 -10 -27
-11 -26 -49 49 -34 65 -66 163 -57 173 2 1 28 -6 57 -18 71 -27 79 -26 73 8
-7 36 -19 45 -87 66 -32 10 -60 23 -63 29 -6 18 -12 139 -6 159 2 10 10 18 18
18 15 0 56 -68 74 -122 11 -35 14 -38 51 -38 31 0 39 4 39 19 0 55 -83 175
-136 197 -30 13 -38 12 -63 -1 -37 -18 -68 -57 -76 -94 -3 -16 1 -67 10 -113
9 -45 18 -99 21 -118 4 -32 2 -31 -23 19 -32 67 -98 134 -147 152 -20 7 -36
15 -37 19 -1 3 -2 16 -4 30 -6 58 -16 124 -21 132 -3 4 6 12 20 18 15 5 26 17
26 28 0 15 -16 23 -80 41 -45 12 -87 24 -95 28 -23 8 -19 -42 4 -58 14 -10 21
-31 25 -74 5 -51 15 -109 41 -260 3 -16 8 -38 11 -47 3 -9 7 -27 9 -40 9 -45
25 -132 25 -134 0 -4 -39 4 -50 11 -12 7 -115 327 -164 505 l-34 125 -68 17
c-98 23 -107 23 -98 -4z m543 -471 c18 -37 34 -91 55 -189 7 -29 6 -29 -56
-13 -16 4 -28 8 -28 10 0 3 -24 132 -35 185 -3 14 -8 40 -11 59 l-7 34 31 -21
c17 -12 39 -41 51 -65z"/>
<path d="M2494 4400 c-43 -16 -107 -119 -117 -187 -5 -31 26 -129 83 -261 21
-48 29 -56 77 -77 51 -23 66 -39 41 -47 -7 -3 -9 -12 -5 -22 9 -22 52 -16 137
17 73 30 97 68 82 135 -17 78 -110 335 -133 370 -23 33 -86 73 -124 77 -11 2
-29 -1 -41 -5z m48 -97 c14 -16 32 -39 41 -53 22 -36 109 -278 114 -321 7 -48
-12 -59 -43 -26 -13 14 -37 34 -54 44 -32 18 -43 42 -101 212 -31 91 -35 121
-19 152 15 26 32 24 62 -8z"/>
</g>
</svg>
